<?xml version="1.0" encoding="utf-8"?>
<!-- Generator: Adobe Illustrator 19.1.0, SVG Export Plug-In . SVG Version: 6.00 Build 0)  -->
<svg version="1.1" xmlns="http://www.w3.org/2000/svg" xmlns:xlink="http://www.w3.org/1999/xlink" x="0px" y="0px"
	 viewBox="0 0 141.7 99.2" style="enable-background:new 0 0 141.7 99.2;" xml:space="preserve">
<style type="text/css">
	.st0{display:none;}
	.st1{display:inline;fill:#E7E2D8;stroke:#000000;stroke-width:1.1426;stroke-miterlimit:10;}
	.st2{display:inline;}
	.st3{fill:#80491E;}
	.st4{display:inline;fill:#A76F54;stroke:#443F35;stroke-width:8.242828e-002;stroke-miterlimit:10;}
	.st5{display:inline;fill:#696A6D;}
	.st6{display:inline;fill:#80491E;}
	.st7{display:inline;fill:#CD7F62;}
	.st8{fill:#3C3C3C;}
	.st9{fill:#956667;}
	.st10{fill:#B76C31;}
	.st11{fill:#8A8C8E;}
	.st12{display:inline;fill:#353539;}
	.st13{fill:#353539;}
	.st14{display:inline;fill:#8A8C8E;}
	.st15{display:inline;fill:#D8CCD7;}
	.st16{fill:#FBC0A2;}
	.st17{fill:#D8CCD7;}
	.st18{display:inline;fill:#53697A;}
	.st19{display:inline;fill:#689676;}
	.st20{display:inline;fill:#7C9A7B;}
	.st21{display:inline;fill:none;stroke:#53697A;stroke-miterlimit:10;}
	.st22{display:inline;fill:#C26558;}
	.st23{display:inline;fill:#D9BC7B;}
	.st24{display:inline;fill:none;stroke:#A06262;stroke-width:0.9433;stroke-miterlimit:10;}
	.st25{display:inline;fill:#F0EAD6;}
	.st26{display:inline;fill:#A06262;}
	.st27{fill:#7CB0A9;}
	.st28{display:inline;fill:#D8D13E;}
	.st29{display:inline;fill:#777C77;}
	.st30{fill:#443F35;}
	.st31{fill:#E7E2D8;}
	.st32{display:inline;opacity:0.2;}
</style>
<g id="Layer_1" class="st0">
	<rect x="-777.9" y="-736.3" class="st1" width="1673.8" height="1571.8"/>
</g>
<g id="Layer_3" class="st0">
</g>
<g id="Layer_5" class="st0">
</g>
<g id="Layer_2" class="st0">
	<g class="st2">
		<g>
			<g>
				<path class="st30" d="M38.3,46.4c0.9,0,0.9-1.4,0-1.4C37.4,45.1,37.4,46.4,38.3,46.4L38.3,46.4z"/>
			</g>
		</g>
		<g>
			<g>
				<path class="st30" d="M38,34.1c-0.3,8.9-0.5,17.7-0.8,26.6c0.5,0,0.9,0,1.4,0c0-8.7,0.5-17.3,1.2-26c0.1-0.9-1.3-0.9-1.4,0
					c-0.8,8.6-1.2,17.3-1.2,26c0,0.9,1.3,0.9,1.4,0c0.3-8.9,0.5-17.7,0.8-26.6C39.4,33.2,38,33.2,38,34.1L38,34.1z"/>
			</g>
		</g>
		<g>
			<g>
				<path class="st30" d="M38.9,34.9c6.9,2.9,12.3,8.5,18.4,12.7c5.7,4,11.9,7.2,18.5,9.6c0.8,0.3,1.2-1,0.4-1.3
					c-7-2.6-13.5-6.1-19.5-10.5c-5.5-4.1-10.6-9-17-11.7C38.8,33.3,38.1,34.5,38.9,34.9L38.9,34.9z"/>
			</g>
		</g>
		<g>
			<g>
				<path class="st30" d="M75,58.2c0.3,6.5,0.5,13.1,0.4,19.6c0.5,0,0.9,0,1.4,0c-0.5-7.2-0.8-14.4-0.9-21.6c0-0.8-1.1-0.9-1.3-0.2
					c-0.1,0.4-0.3,0.7-0.4,1.1c-0.3,0.8,1,1.2,1.3,0.4c0.1-0.4,0.3-0.7,0.4-1.1c-0.4-0.1-0.9-0.1-1.3-0.2c0.1,7.2,0.4,14.4,0.9,21.6
					c0.1,0.9,1.4,0.9,1.4,0c0.1-6.5,0-13.1-0.4-19.6C76.3,57.4,75,57.4,75,58.2L75,58.2z"/>
			</g>
		</g>
		<g>
			<g>
				<path class="st30" d="M38.8,61.2c11.8,6.7,24,12.5,36.6,17.4c0.8,0.3,1.2-1,0.4-1.3C63.3,72.4,51.2,66.6,39.5,60
					C38.8,59.6,38.1,60.8,38.8,61.2L38.8,61.2z"/>
			</g>
		</g>
		<g>
			<g>
				<path class="st30" d="M41,32.9c5.2-2.9,10.7-5.4,16.3-7.4c0.8-0.3,0.5-1.6-0.4-1.3c-5.8,2-11.3,4.5-16.6,7.5
					C39.6,32.2,40.3,33.3,41,32.9L41,32.9z"/>
			</g>
		</g>
		<g>
			<g>
				<path class="st30" d="M39.9,58.8c11.6-7.3,22.8-15.2,33.6-23.7c0.7-0.5-0.3-1.5-1-1c-10.7,8.4-21.8,16.2-33.4,23.5
					C38.5,58.1,39.2,59.2,39.9,58.8L39.9,58.8z"/>
			</g>
		</g>
		<g>
			<g>
				<path class="st30" d="M42.4,32.3c7.7-3.8,15-8.1,22-12.9c0.7-0.5,0-1.7-0.7-1.2c-7,4.8-14.4,9.1-22,12.9
					C40.9,31.5,41.6,32.6,42.4,32.3L42.4,32.3z"/>
			</g>
		</g>
		<g>
			<g>
				<path class="st30" d="M64.7,16C55.5,20.9,46.6,26.2,38,32.1c-0.7,0.5-0.1,1.7,0.7,1.2c9.4-6,19-11.6,28.8-17
					c0.8-0.4,0.1-1.6-0.7-1.2c-9.8,5.4-19.3,11-28.8,17c0.2,0.4,0.5,0.8,0.7,1.2c8.6-5.9,17.5-11.3,26.8-16.1
					C66.2,16.7,65.5,15.6,64.7,16L64.7,16z"/>
			</g>
		</g>
		<g>
			<g>
				<path class="st30" d="M73.6,37.9C73.5,37.8,73.6,37.8,73.6,37.9C73.5,37.9,73.6,37.8,73.6,37.9c0.2-0.1,0.3-0.1,0.5,0
					c0.3,0.2,0.8,0.8,0.8,1.2c-0.2,1.2,1.6,1.7,1.8,0.5c0.3-1.5-0.8-3.2-2.3-3.6c-1.4-0.4-3.1,0.9-2.5,2.4
					C72.2,39.5,74,39.1,73.6,37.9L73.6,37.9z"/>
			</g>
		</g>
		<g>
			<g>
				<path class="st30" d="M77,39.1c0.3-0.7,0.6-1.4,1-2.1c0.2-0.3,1.1-2,1.5-1.8c0.4,0.1-0.2,1.1-0.3,1.2c-0.4,0.6-0.7,1.1-0.9,1.8
					c-0.3,1.2,1.5,1.7,1.8,0.5c0.3-1.1,1.2-1.8,1.3-3c0.1-1-0.3-2-1.3-2.3c-1.3-0.4-2.3,0.7-3,1.6c-0.9,1.1-1.5,2.4-2,3.7
					C74.8,39.8,76.6,40.3,77,39.1L77,39.1z"/>
			</g>
		</g>
		<g>
			<g>
				<path class="st30" d="M70.3,39c-0.5,1-1,2.1-1.5,3.1c-0.4,0.8-1,1.7-0.6,2.5c0.8,1.6,3.1,0.7,4.1-0.2c0.9-0.8-0.4-2.1-1.3-1.3
					c-0.2,0.1-0.3,0.3-0.5,0.4c-0.1,0-0.6,0.1-0.7,0.2c0,0.1,0.1,0.3,0.1,0.4c0.1-0.1,0.1-0.2,0.2-0.3c0.2-0.2,0.3-0.6,0.4-0.9
					c0.5-1,1-2,1.5-2.9C72.4,38.9,70.8,37.9,70.3,39L70.3,39z"/>
			</g>
		</g>
		<g>
			<g>
				<path class="st30" d="M70.5,44.8c-0.1,1.9-0.3,3.9-0.3,5.8c0.1,1.1,0.8,2,1.9,2.1c3.3,0.2,3.3-4.2,3.4-6.4c0-1.2-1.8-1.2-1.9,0
					c0,0.8,0,1.7-0.1,2.5c-0.1,0.5-0.1,1.1-0.5,1.5c-0.1,0.3-0.3,0.4-0.6,0.3c-0.4,0.2-0.6,0.1-0.4-0.3c-0.2-0.6,0.1-1.8,0.1-2.5
					c0-1,0.1-2,0.1-3C72.5,43.6,70.6,43.6,70.5,44.8L70.5,44.8z"/>
			</g>
		</g>
		<g>
			<g>
				<path class="st30" d="M74.4,47.5c0.4,2.2,2.7,4,4.3,1.5c0.7-1,0.6-2.3,0.4-3.5c-0.3-1.3-0.6-2.5-0.2-3.8c0.3-1,0.9-1.9,1.5-2.7
					c0.7-1-0.9-1.9-1.6-0.9c-0.9,1.3-1.8,2.7-2,4.4c-0.1,0.7,0,1.4,0.1,2.1c0.1,0.5,0.4,1.1,0.4,1.6c0.3,0.5,0.1,0.8-0.4,0.9
					c-0.5,0.6-0.7,0.6-0.6-0.1C75.9,45.8,74.1,46.3,74.4,47.5L74.4,47.5z"/>
			</g>
		</g>
		<g>
			<g>
				<path class="st30" d="M77,58.5c2.3,3.1,4.7,6,7.4,8.7c0.8,0.9,2.2-0.5,1.3-1.3c-2.5-2.6-4.9-5.4-7.1-8.4
					C77.9,56.6,76.3,57.5,77,58.5L77,58.5z"/>
			</g>
		</g>
		<g>
			<g>
				<path class="st30" d="M77.6,75.9c2.4-10,6-19.5,10.9-28.6c0.6-1.1-1-2-1.6-0.9c-4.9,9.2-8.6,18.9-11.1,29
					C75.5,76.5,77.3,77,77.6,75.9L77.6,75.9z"/>
			</g>
		</g>
		<g>
			<g>
				<path class="st30" d="M87,51.7c2.3,2.3,4.6,4.6,6.9,6.9c0.8,0.9,2.2-0.5,1.3-1.3c-2.3-2.3-4.6-4.6-6.9-6.9
					C87.4,49.5,86.1,50.8,87,51.7L87,51.7z"/>
			</g>
		</g>
		<g>
			<g>
				<path class="st30" d="M82,72.3c4.5-11.5,9.7-22.7,15.5-33.5c0.6-1.1-1-2-1.6-0.9c-5.9,11-11.2,22.3-15.7,34
					C79.7,72.9,81.5,73.4,82,72.3L82,72.3z"/>
			</g>
		</g>
		<g>
			<g>
				<path class="st30" d="M97,42.4c-3.7,7.6-7.7,15-12,22.3c-0.6,1,1,2,1.6,0.9c4.3-7.3,8.3-14.7,12-22.3
					C99.1,42.3,97.5,41.3,97,42.4L97,42.4z"/>
			</g>
		</g>
		<g>
			<g>
				<path class="st30" d="M102.5,37.4c-3.1,8.4-7.3,16.2-12.5,23.5c-0.7,1,0.9,1.9,1.6,0.9c5.3-7.4,9.5-15.4,12.7-24
					C104.7,36.8,102.9,36.3,102.5,37.4L102.5,37.4z"/>
			</g>
		</g>
		<g>
			<g>
				<path class="st30" d="M91.8,48.5c3.5,1.5,7.1,2.4,11,2.7c1.2,0.1,1.2-1.8,0-1.9c-3.5-0.3-6.8-1.1-10-2.5
					C91.7,46.4,90.7,48,91.8,48.5L91.8,48.5z"/>
			</g>
		</g>
		<g>
			<g>
				<path class="st30" d="M93.8,39c4.5,2,7.7,5.9,12.3,7.6c1.1,0.4,1.6-1.4,0.5-1.8c-4.4-1.6-7.6-5.5-11.9-7.4
					C93.6,36.9,92.7,38.5,93.8,39L93.8,39z"/>
			</g>
		</g>
		<g>
			<g>
				<path class="st30" d="M56.7,24.5c4.1,4.5,6.8,10.1,11.2,14.3c0.9,0.8,2.2-0.5,1.3-1.3c-2.3-2.2-3.9-5-5.7-7.6
					c-1.7-2.3-3.5-4.6-5.4-6.7C57.2,22.3,55.8,23.6,56.7,24.5L56.7,24.5z"/>
			</g>
		</g>
		<g>
			<g>
				<path class="st30" d="M52.6,29.5c4.6,3.6,8,8.3,12.4,12c0.9,0.8,2.2-0.6,1.3-1.3c-4.4-3.7-7.8-8.5-12.4-12
					C53,27.4,51.6,28.7,52.6,29.5L52.6,29.5z"/>
			</g>
		</g>
		<g>
			<g>
				<path class="st30" d="M47.1,31C52.4,36.1,55.8,43,62,47.2c1,0.7,1.9-0.9,0.9-1.6c-6-4.1-9.3-10.9-14.5-15.9
					C47.5,28.9,46.2,30.2,47.1,31L47.1,31z"/>
			</g>
		</g>
		<g>
			<g>
				<path class="st30" d="M41.9,32c2.5,2.9,4.4,6.3,6.7,9.4c1.6,2.2,3.2,4.3,5.8,5.2c1.1,0.4,1.6-1.4,0.5-1.8
					c-3.2-1.1-5.2-4.9-6.9-7.5c-1.5-2.2-3-4.5-4.8-6.5C42.5,29.8,41.2,31.1,41.9,32L41.9,32z"/>
			</g>
		</g>
		<g>
			<g>
				<path class="st30" d="M41.9,40c1.9,4,3.9,7.9,5.8,11.9c0.5,1.1,2.1,0.1,1.6-0.9c-1.9-4-3.9-7.9-5.8-11.9C43,38,41.4,39,41.9,40
					L41.9,40z"/>
			</g>
		</g>
		<g>
			<g>
				<path class="st30" d="M39.3,57c3-8.3,6.5-16.4,10.4-24.2c0.5-1.1-1.1-2-1.6-0.9c-4,8-7.6,16.2-10.6,24.7
					C37.1,57.6,38.9,58.1,39.3,57L39.3,57z"/>
			</g>
		</g>
		<g>
			<g>
				<path class="st30" d="M44.6,52.6c2.5-4.9,5-9.8,7.4-14.7c0.5-1.1-1.1-2-1.6-0.9c-2.5,4.9-5,9.8-7.4,14.7
					C42.4,52.7,44,53.6,44.6,52.6L44.6,52.6z"/>
			</g>
		</g>
		<g>
			<g>
				<path class="st30" d="M43.1,61c3.3-6,6.9-11.8,10.9-17.4c0.7-1-0.9-1.9-1.6-0.9C48.5,48.2,44.8,54,41.5,60
					C40.9,61.1,42.5,62,43.1,61L43.1,61z"/>
			</g>
		</g>
		<g>
			<g>
				<path class="st30" d="M47.9,60.7c1.6-4,3.8-7.7,6.3-11.2c0.7-1-0.9-1.9-1.6-0.9c-2.7,3.6-4.8,7.5-6.5,11.6
					C45.7,61.3,47.5,61.8,47.9,60.7L47.9,60.7z"/>
			</g>
		</g>
		<g>
			<g>
				<path class="st30" d="M53.4,59.8c2.3-4.7,4.8-9.2,7.5-13.6c0.6-1-1-2-1.6-0.9c-2.7,4.4-5.2,9-7.5,13.6
					C51.2,59.9,52.8,60.9,53.4,59.8L53.4,59.8z"/>
			</g>
		</g>
		<g>
			<g>
				<path class="st30" d="M56.4,66.2c2.7-5.5,5.8-10.8,9.5-15.8c0.7-1-0.9-1.9-1.6-0.9c-3.6,5-6.8,10.2-9.5,15.8
					C54.3,66.3,55.9,67.2,56.4,66.2L56.4,66.2z"/>
			</g>
		</g>
		<g>
			<g>
				<path class="st30" d="M62.9,64.4c1.5-3.6,3.3-7.1,5.5-10.4c0.7-1-0.9-1.9-1.6-0.9c-2.3,3.4-4.2,7-5.7,10.8
					C60.7,65,62.5,65.5,62.9,64.4L62.9,64.4z"/>
			</g>
		</g>
		<g>
			<g>
				<path class="st30" d="M64.8,71.7c1.9-4.2,3.8-8.3,5.7-12.5c0.5-1.1-1.1-2-1.6-0.9c-1.9,4.2-3.8,8.3-5.7,12.5
					C62.6,71.8,64.3,72.7,64.8,71.7L64.8,71.7z"/>
			</g>
		</g>
		<g>
			<g>
				<path class="st30" d="M69.7,73c1.2-3.5,2.7-6.9,4.5-10.1c0.6-1-1-2-1.6-0.9c-1.9,3.4-3.5,6.9-4.7,10.5
					C67.5,73.6,69.3,74.1,69.7,73L69.7,73z"/>
			</g>
		</g>
		<g>
			<g>
				<path class="st30" d="M48.9,49.5c3.9,7,7.9,13.8,12,20.7c0.6,1,2.2,0.1,1.6-0.9c-4.1-6.8-8.1-13.7-12-20.7
					C49.9,47.5,48.3,48.4,48.9,49.5L48.9,49.5z"/>
			</g>
		</g>
		<g>
			<g>
				<path class="st30" d="M55.5,53.4c3.4,5.9,7,11.7,10.9,17.4c0.7,1,2.3,0.1,1.6-0.9c-3.9-5.6-7.5-11.4-10.9-17.4
					C56.5,51.4,54.9,52.4,55.5,53.4L55.5,53.4z"/>
			</g>
		</g>
		<g>
			<g>
				<path class="st30" d="M63.2,58.9c3.7,5.6,7.5,11.1,11.6,16.5c0.7,0.9,2.3,0,1.6-0.9c-4.1-5.4-7.9-10.8-11.6-16.5
					C64.1,57,62.5,57.9,63.2,58.9L63.2,58.9z"/>
			</g>
		</g>
		<g>
			<g>
				<path class="st30" d="M64.1,52.7c5,5.6,8.2,12.4,13.3,17.9c0.8,0.9,2.1-0.4,1.3-1.3c-5-5.5-8.3-12.4-13.3-17.9
					C64.6,50.4,63.3,51.8,64.1,52.7L64.1,52.7z"/>
			</g>
		</g>
		<g>
			<g>
				<path class="st30" d="M43.1,40.5c0.2-2.8,3.8-6.2,5.4-8.4c2.2-2.9,4.4-6.2,7.3-8.4c0.9-0.7,0-2.3-0.9-1.6
					c-3,2.3-5.3,5.6-7.6,8.6c-2.1,2.8-5.8,6.2-6.1,9.8C41.1,41.6,43,41.6,43.1,40.5L43.1,40.5z"/>
			</g>
		</g>
		<g>
			<g>
				<path class="st30" d="M58.8,19C52.5,29.2,46.6,39.6,41,50.2c-0.6,1.1,1.1,2,1.6,0.9c5.6-10.6,11.5-21,17.8-31.1
					C61.1,19,59.5,18,58.8,19L58.8,19z"/>
			</g>
		</g>
		<g>
			<g>
				<path class="st30" d="M61.7,20.9c-2.3,6-4.9,11.8-7.9,17.5c-2.4,4.4-5.6,8.6-7.1,13.5c-0.4,1.1,1.4,1.6,1.8,0.5
					c1.8-5.7,5.9-10.9,8.6-16.3c2.4-4.8,4.5-9.7,6.4-14.6C64,20.3,62.2,19.8,61.7,20.9L61.7,20.9z"/>
			</g>
		</g>
		<g>
			<g>
				<path class="st30" d="M64.9,24.9c-3.4,7-6.8,14.1-10.2,21.1c-0.5,1.1,1.1,2,1.6,0.9c3.4-7,6.8-14.1,10.2-21.1
					C67,24.8,65.4,23.9,64.9,24.9L64.9,24.9z"/>
			</g>
		</g>
		<g>
			<g>
				<path class="st30" d="M38.8,32.3c0.5-1.3,1-2.6,1.5-3.9c0.5,0.2,0.9,0.4,1.4,0.6c1.1-1.6,2.2-3.2,3.2-4.8
					c0.5,0.2,0.9,0.4,1.4,0.6c1.2-1.1,2.3-2.2,3.5-3.3c0.4,0.3,0.8,0.6,1.2,0.9c1-1.1,2-2.1,3-3.2c0.5,0.3,0.9,0.5,1.4,0.8
					c-0.6-2.2,0.7-3.6,4-4c0.5,0.3,1,0.6,1.6,0.9c0.8-3.1,2.9-3.5,6.3-1.1c0.6,1,2.2,0.1,1.6-0.9c-2.6-4.4-8.2-2.1-7.1,2.9
					c0.1,0.5,0.7,0.8,1.1,0.7c2.2-0.6,6.1-2.8,3.8-5.6c-2.6-3.2-6.8,1-7.5,3.6c-0.2,0.9,0.9,1.5,1.6,0.9c1.8-1.7,0.9-4.3-1.7-4.5
					c-3.9-0.4-5.9,4-5.5,7.2c0.1,0.7,0.7,1.1,1.4,0.8c1.7-0.8,4.3-3.9,1.2-5.1c-3.1-1.2-4.5,3.4-4.1,5.5c0.1,0.4,0.5,0.7,0.9,0.7
					c2.6-0.1,4.7-3,2.2-5c-3.5-2.8-6.3,2.7-6.1,5.5c0,0.6,0.6,1.1,1.2,0.9c2.7-0.9,2-4.4-0.8-4.6c-3.2-0.2-7.1,5.1-3.3,7.1
					c2.6,1.4,5.2-2.1,3.4-4.3c-2.7-3.3-6.3,0.8-5.1,3.9c0.2,0.5,0.8,1,1.4,0.6c2.3-1.7,3.4-5.6-0.7-5.3c-3.1,0.3-6.8,6.2-3.8,8.6
					c2.1,1.7,4.9-0.9,3.4-3.2c-2.3-3.3-5.4,0.8-4.9,3.5c0.1,0.6,0.9,0.9,1.4,0.6c1.2-0.9,1.3-2.4-0.2-3.1c-3.2-1.4-4.1,3.5-4.1,5.4
					C36.9,33.5,38.8,33.5,38.8,32.3L38.8,32.3z"/>
			</g>
		</g>
		<g>
			<g>
				<path class="st30" d="M39.9,32.3c2.7,0.1,3.3,0.8,2,2.2c0.6,0.1,1.1,0.1,1.7,0.2c-0.1,0.4-0.1,0.8-0.2,1.1
					c0.5,0.1,1,0.3,1.6,0.4c1,0.8,1.9,1.6,2.9,2.3c0.5,0.4,1,0.8,1.5,1.1c1.2,0.4,2.4,0.9,3.6,1.3c0.5,0.3,1.1,0.6,1.6,0.9
					c1.8-2.8,2.3-0.2,1.6,2.1c-0.3,1,1.3,1.7,1.7,0.7c0.3,0.4,0.5,0.7,0.8,1.1c-0.2,0.9,0.8,1.5,1.6,0.9c0.7,1.4,1.5,2.7,2.2,4.1
					c0.6,0.1,1.2,0.2,1.8,0.2c0,0.3,0.1,0.6,0.1,0.9c-0.8,0.7,0.3,2.1,1.1,1.5c0.9,0.1,1.8,0.3,2.7,0.4c-0.5,1.1,1.1,2,1.6,0.9
					c1.6-0.5,2.6,0,3,1.3c0.4,0.7,1.5,0.6,1.7-0.2c-0.1,0.2-0.2,0.5-0.4,0.7c-1,0.7-0.1,2.3,0.9,1.6c4.6-3-1.5-6.7-2.4-2.8
					c0.6-0.1,1.1-0.1,1.7-0.2c-1.3-2.4-4.4-4.7-6.2-1.3c0.5,0.3,1.1,0.6,1.6,0.9c1.8-3.9-2.5-5-5.3-3c0.4,0.5,0.8,1,1.1,1.5
					c5-4-3.6-7.5-3.3-2.2c0.1,1,1.6,1.3,1.8,0.2c0.7-3.3-1-9.6-5.3-5.9c0.5,0.3,1,0.6,1.6,0.9c0.4-1.9,0.2-3-0.8-4.7
					c-0.2-0.4-0.9-0.6-1.3-0.3c-1.5,1.1-1.3,0.8-2.1,2.5c0.6,0.2,1.1,0.5,1.7,0.7c0.7-2.3,1.5-5.8-1.1-7.1c-0.3-0.1-0.7-0.2-0.9,0
					c-1.3,1-2,2.1-2.9,3.5c-0.7,1,0.9,1.9,1.6,0.9c3.6-4.8-4.1-8.7-6.8-3.2c-0.5,0.9,0.7,2,1.5,1.1c6.5-7.1-7.1-11.5-6-3.2
					c0.1,0.8,1.1,0.8,1.6,0.4c5.9-4.9-4.9-7.5-2.9-2c0.3,0.7,1.3,1,1.7,0.2c1.2-2.1,2.6-5.5-0.1-7.2c-2.8-1.7-4.5,1.3-5.3,3.5
					C37.7,32.9,39.5,33.4,39.9,32.3L39.9,32.3z"/>
			</g>
		</g>
		<g>
			<g>
				<path class="st30" d="M77.2,78c8.7-7.6,17.4-15.2,26.1-22.8c3.4-2.9,9.6-8.4,4-12.4c-0.8-0.6-1.7,0.5-1.3,1.3
					c1.1,2,2.1,3.2,0.9,5.3c-0.7,1.2-3.5,2.9-4.6,3.8c-3.1,2.5-6.1,5-9.2,7.6c-6.1,5-12.2,10.1-18.3,15.1c-0.9,0.8,0.4,2.1,1.3,1.3
					c11.2-9.3,22.4-18.5,33.6-27.8c0.2-0.2,0.3-0.6,0.2-0.9c-0.6-1.9-1.3-3.6-2.3-5.4c-0.4,0.4-0.9,0.9-1.3,1.3
					c4.6,3.3-4,9.2-5.9,10.8c-2.7,2.4-5.5,4.8-8.2,7.2c-5.5,4.8-11,9.6-16.4,14.3C74.9,77.5,76.3,78.8,77.2,78L77.2,78z"/>
			</g>
		</g>
		<g>
			<g>
				<path class="st30" d="M75.7,75c-6.4-1.7-13.1-2.7-19.4-5c-6.5-2.5-12.2-6.5-17.9-10.4c-1-0.7-1.9,0.9-0.9,1.6
					c5.3,3.7,10.7,7.4,16.7,9.9c6.7,2.8,14,3.8,21,5.7C76.3,77.1,76.8,75.3,75.7,75L75.7,75z"/>
			</g>
		</g>
		<g>
			<g>
				<path class="st30" d="M43.1,70.6c-1.5-0.6-3.7,0.1-3.4,2.1c0.4,2,2.8,2.7,4.6,2.3c1.5-0.4,3.6-2.3,1.5-3.5
					c-1.8-1-4.3-1.3-5.6,0.5c-0.5,0.7,0.7,1.4,1.2,0.7c0.7-0.9,1.9-0.7,2.9-0.4c0.3,0.1,1.1,0.3,0.9,0.8c-0.2,0.3-0.9,0.6-1.2,0.6
					c-0.8,0.2-1.8,0.1-2.5-0.5c-1.2-1.2,0.4-1.5,1.3-1.2C43.5,72.2,43.9,70.9,43.1,70.6L43.1,70.6z"/>
			</g>
		</g>
		<g>
			<g>
				<path class="st30" d="M36.9,58.9c-1.9,1.2-3.8,2.5-5.5,4c-0.6,0.5,0.2,1.5,0.8,1.1c3.5-2.4,7-4.7,10.5-7.1
					c-0.3-0.4-0.6-0.7-0.8-1.1c-2.7,2.1-5.5,4.1-8.5,5.9c-2,1.2-4.1,2.1-5.6,4c-0.3,0.3,0,0.9,0.4,1c0.2,0,0.5,0.1,0.7,0.1
					c0.9,0.1,1.2-1.2,0.4-1.3c-0.2,0-0.5-0.1-0.7-0.1c0.1,0.3,0.3,0.7,0.4,1c1.7-2.3,5.3-3.6,7.6-5.1c2.1-1.4,4.2-2.9,6.2-4.5
					c0.6-0.5-0.2-1.5-0.8-1.1c-3.5,2.4-7,4.7-10.5,7.1c0.3,0.4,0.6,0.7,0.8,1.1c1.7-1.4,3.4-2.6,5.2-3.8
					C38.3,59.7,37.6,58.5,36.9,58.9L36.9,58.9z"/>
			</g>
		</g>
		<g>
			<g>
				<path class="st30" d="M32.5,62.4c-3.9,0.8-6.6,4.7-4.5,8.6c1.6,3,6,4.3,8.8,5.8c4.2,2.2,8.4,4.4,12.6,6.6
					c4.7,2.4,12.4,8.1,18.1,6.2c2.8-1,5.2-3.9,7.3-5.9c3.6-3.2,7.1-6.5,10.7-9.8c0.6-0.6-0.3-1.6-1-1c-3.5,3.3-7.1,6.5-10.7,9.8
					C72.2,84.2,70,87,68,87.8c-3.8,1.5-8.2-0.6-11.5-2.3c-4.4-2.2-8.8-4.6-13.2-6.8c-2.2-1.2-4.5-2.3-6.7-3.5c-1-0.5-2.5-1-3.4-1.8
					c-1.8-0.7-2.3-2.2-1.6-4.7c-2.1-3.1-1.6-4.8,1.2-5C33.7,63.5,33.3,62.2,32.5,62.4L32.5,62.4z"/>
			</g>
		</g>
		<g>
			<g>
				<path class="st30" d="M29.1,71.2c0.9,0,0.9-1.4,0-1.4C28.2,69.8,28.2,71.2,29.1,71.2L29.1,71.2z"/>
			</g>
		</g>
		<g>
			<g>
				<path class="st30" d="M27.6,66.2c-0.5,3.7-1,7.3-1.5,11c-0.1,0.9,1.2,1.2,1.3,0.4c0.5-3.6,1.1-7.3,1.5-10.9
					c0.1-0.9-1.3-0.9-1.4,0c-0.5,3.5-0.9,7-1.5,10.5c0.4,0.1,0.9,0.2,1.3,0.4c0.5-3.7,1-7.3,1.5-11C29,65.7,27.7,65.3,27.6,66.2
					L27.6,66.2z"/>
			</g>
		</g>
		<g>
			<g>
				<path class="st30" d="M26.8,78.8c9.5,5.9,19.1,11.9,29.3,16.4c2.7,1.2,6.4,3.6,9.4,1.9c2.8-1.5,3.1-5.6,4.6-8.1
					c0.5-0.8-0.7-1.4-1.2-0.7c-0.6,1-1,2-1.5,3c-0.3,1-0.7,1.9-1.1,2.8c-2.5,1.8-4.8,2.1-7.1,0.8c-3.9-1.1-7.8-3.5-11.4-5.4
					c-7-3.7-13.7-7.9-20.4-12C26.7,77.2,26,78.3,26.8,78.8L26.8,78.8z"/>
			</g>
		</g>
		<g>
			<g>
				<path class="st30" d="M67.4,95.2c15.8-16.9,32.7-32.6,50.6-47.2c0.7-0.6-0.3-1.5-1-1C99.2,61.6,82.3,77.4,66.5,94.3
					C65.9,94.9,66.8,95.9,67.4,95.2L67.4,95.2z"/>
			</g>
		</g>
		<g>
			<g>
				<path class="st30" d="M82.6,75.5c13.2-10.3,25.6-21.5,37.2-33.6c0.6-0.6-0.3-1.5-1-1c-10,8.7-20,17.4-30.1,26.2
					c-0.7,0.6,0.3,1.5,1,1c7-5.7,13.9-11.5,20.7-17.5c1.9-1.7,3.9-3.4,5.8-5.1c1-0.9,1.9-1.7,2.9-2.6c0.1,0.9,0.2,1.8,0.3,2.7
					c-1,3.1-7.6,6.5-10.2,8.6c-14.1,11-27.5,22.8-41,34.5c-0.7,0.6,0.3,1.5,1,1c10.9-9.5,21.7-18.9,32.9-28
					c5.2-4.2,10.7-8.1,15.8-12.4c2.7-2.3,4.5-5,2.8-8.4c-0.2-0.4-0.8-0.4-1.1-0.1c-10,9.1-20.3,17.9-30.7,26.5c0.3,0.3,0.6,0.6,1,1
					c10-8.7,20-17.4,30.1-26.2c-0.3-0.3-0.6-0.6-1-1c-11.6,12.1-24,23.3-37.2,33.6C81,75.1,81.9,76,82.6,75.5L82.6,75.5z"/>
			</g>
		</g>
		<g>
			<g>
				<path class="st30" d="M121.4,41c-8.9-5.2-18.7-9.8-28.9-12c-9.7-2.1-17.2,1.5-25,7.1c-0.7,0.5-0.1,1.7,0.7,1.2
					c5.4-3.4,11-6.5,16.7-9.3c0.8-0.4,0.1-1.6-0.7-1.2c-5.7,2.9-11.3,6-16.7,9.3c0.2,0.4,0.5,0.8,0.7,1.2c8.7-6.3,16.6-9.2,27.3-6.1
					c8.8,2.6,17.2,6.3,25.1,11C121.4,42.7,122.1,41.5,121.4,41L121.4,41z"/>
			</g>
		</g>
		<g>
			<g>
				<path class="st30" d="M83.9,26.3c-1.7-4.9-2.4-10-2.3-15.2c-0.5,0-0.9,0-1.4,0c0.7,5.4,0.8,10.8,0.6,16.2c0,0.9,1.3,0.9,1.4,0
					c0.3-5.4,0.1-10.8-0.6-16.2c-0.1-0.8-1.3-0.9-1.4,0c-0.1,5.3,0.6,10.5,2.3,15.5C82.8,27.5,84.2,27.1,83.9,26.3L83.9,26.3z"/>
			</g>
		</g>
		<g>
			<g>
				<path class="st30" d="M66.4,18.9c4.6-3.2,9.5-6,14.6-8.3c-0.2-0.4-0.5-0.8-0.7-1.2c-6.7,3.2-13.4,6.3-20.2,9.5
					c-0.8,0.4-0.1,1.5,0.7,1.2c6.7-3.2,13.4-6.3,20.2-9.5c0.8-0.4,0.1-1.5-0.7-1.2c-5.1,2.3-10,5-14.6,8.3
					C65,18.3,65.6,19.4,66.4,18.9L66.4,18.9z"/>
			</g>
		</g>
		<g>
			<g>
				<path class="st30" d="M69.6,13.5c1.5-2.9,1.9-3.3,1.3-1.2c0.1,1-0.4,1.6-1.4,1.9c0.3,0.2,0.7,0.4,1,0.6c0.2-1.6,1.5-2.9,2.6-3.8
					c0.6-0.4,2.5-1.6,0.1,0.4c0.4,0.1,0.8,0.2,1.1,0.3c0-3,1-3.7,3-2.1c0.4,0.2,0.8,0.4,1.2,0.5C79,9.5,79.5,8.8,80,8.1
					c-0.3-0.1-0.7-0.3-1-0.4c0,0.6-0.1,1.3-0.1,1.9c-0.3,0.6,0.3,1.3,0.9,0.9c0.9-0.5,1.8-0.8,2.8-1c0.9-0.2,0.5-1.5-0.4-1.3
					c-1.2,0.2-2.1,0.6-3.2,1.2c0.3,0.3,0.6,0.6,0.9,0.9c0.6-1,0.7-1.8,0.3-2.9c-0.1-0.4-0.6-0.7-1-0.4c-1.2,0.8-1.7,1.6-2,2.9
					c-0.2,0.7,0.9,1.2,1.2,0.5c1-1.8,0.8-4.1-1.8-3.7C74.2,7,72.4,9.8,73,12.1c0.1,0.5,0.8,0.6,1.1,0.3c1-0.8,1.5-1.7,1.1-2.9
					c-0.1-0.2-0.2-0.4-0.5-0.5c-2.8-0.5-5.4,3.4-5.7,5.8c-0.1,0.6,0.6,0.8,1,0.6c1.8-0.9,4.4-5.3,1-5.6c-2.8-0.3-5.2,3.4-2.3,4.9
					C69.7,15.1,70.4,13.9,69.6,13.5L69.6,13.5z"/>
			</g>
		</g>
		<g>
			<g>
				<path class="st30" d="M81.6,11.2c2.9-0.2,5.8,1.2,8.5,2.1c3,0.9,5.9,1.7,9,2.4c1.7,0.4,16.8,1.9,17.1,3.8
					c0.1,0.9,1.5,0.5,1.3-0.4c-0.2-1.5-1.1-1.8-2.5-2.2c-3.8-1-8-1-11.9-1.8c-3.9-0.8-7.9-1.8-11.7-2.9c-3.2-1-6.4-2.6-9.8-2.4
					C80.7,9.9,80.7,11.3,81.6,11.2L81.6,11.2z"/>
			</g>
		</g>
		<g>
			<g>
				<path class="st30" d="M115.6,26.2c0,5.1,0.5,10.2,1.2,15.3c0.1,0.8,1.4,0.6,1.3-0.2c-0.6-7.7-1.5-15.5-0.7-23.2
					c-0.5,0-0.9,0-1.4,0c0.8,6.2,2,13.7,0.7,19.8c-1.5,7.1-10.7,11.3-16.3,15.1c-0.7,0.5,0,1.7,0.7,1.2c3.5-2.4,6.9-4.8,10.4-7.2
					c1.8-1.2,4.7-2.5,5.9-4.5c1.6-2.8,0.9-8.2,0.9-11.2c0-4.4-0.4-8.8-0.9-13.2c-0.1-0.9-1.3-0.9-1.4,0c-0.9,7.7,0.1,15.5,0.7,23.2
					c0.4-0.1,0.9-0.1,1.3-0.2c-0.8-5-1.2-9.9-1.2-14.9C117,25.3,115.6,25.3,115.6,26.2L115.6,26.2z"/>
			</g>
		</g>
		<g>
			<g>
				<path class="st30" d="M75.9,56.6C89.5,44.8,103,33,116.5,21.2c0.7-0.6-0.3-1.5-1-1C102,32,88.5,43.8,75,55.6
					C74.3,56.2,75.3,57.1,75.9,56.6L75.9,56.6z"/>
			</g>
		</g>
		<g>
			<g>
				<path class="st30" d="M83.2,47.7c0.2-0.5,0.4-0.9,0.5-1.4c0.4,0.1,0.9,0.1,1.3,0.2c0.5-2.7,1.8-4.8,3.8-6.3
					c-0.4-0.1-0.8-0.2-1.1-0.3c0.3,0,0.6,0,0.9-0.1c0.4,0.2,0.8,0.5,1.2,0.7c0.3-0.2,0.6-0.4,0.9-0.6c0.4,0.1,0.8,0.2,1.3,0.3
					c1.1-1.6,2.2-3.1,3.3-4.7c-0.3-0.2-0.7-0.4-1-0.6c-0.3,1-0.5,2-0.8,3c0.4,0.2,0.8,0.4,1.2,0.5c0.9-1.3,1.8-2.6,2.7-4
					c-0.3-0.2-0.7-0.4-1-0.6c-0.1,0.8-0.3,1.6-0.4,2.5c0.4,0.2,0.8,0.4,1.2,0.5c0.2-1.9,1.2-3.4,2.8-4.5c-0.4-0.2-0.8-0.3-1.2-0.5
					c-0.2,0.6-0.3,1.2-0.5,1.8c0.4,0.2,0.8,0.4,1.2,0.5c0.5-2,1.6-3.5,3.5-4.6c-0.3-0.2-0.7-0.4-1-0.6c-0.1,0.6-0.3,1.3-0.4,1.9
					c0.4,0.2,0.8,0.4,1.2,0.5c0.2-1.2,0.3-3.6,1.6-4.3c0.3,0.2,0.7,0.4,1,0.6c0.8-0.7,1.5-1.4,2.3-2c0.1,0.8,1.1,0.9,1.3,0.2
					c0.8-2.4,2.3-4.2,4.6-5.3c-0.3-0.2-0.7-0.4-1-0.6c-0.6,1.1-1.1,2.2-1.7,3.4c0.3,0.2,0.7,0.4,1,0.6c0.8-1.1,1.6-2.3,2.4-3.4
					c-0.1-0.4-0.2-0.8-0.3-1.1c-0.4,0.4-0.8,0.7-1.3,1.1c-0.8,0.4-0.1,1.6,0.7,1.2c1-0.6,0.8-0.4,1.5-1.3c0.3-0.4,0.2-1-0.3-1.1
					c-3.2-0.9-4.1,2-4.2,4.7c0,0.5,0.6,0.9,1,0.6c1.8-1.1,2.5-2.4,2.3-4.5c0-0.5-0.5-0.8-1-0.6c-2.7,1.4-4.3,3.3-5.2,6.1
					c0.4,0.1,0.9,0.1,1.3,0.2c-0.1-1.3-0.8-2.3-2.3-2.2c-2.1,0.2-2.5,2.6-2.7,4.2c-0.1,0.6,0.6,0.8,1,0.6c1.5-0.7,2.7-2.8,0.4-3.7
					c-3.2-1.3-3.8,5.1-4.1,6.5c-0.1,0.7,0.8,1.2,1.2,0.5c0.9-1.4,0.8-1,0.6-2.6c0-0.5-0.6-0.9-1-0.6c-2.1,1.4-3.4,3-4.1,5.4
					c-0.2,0.8,0.8,1.2,1.2,0.5c0.8-1.3,0.7-1,0.6-2.5c0-0.6-0.7-0.9-1.2-0.5c-1.7,1.4-2.6,2.9-3.1,5.1c-0.2,0.7,0.9,1.3,1.2,0.5
					c0.8-1.7,0.7-1.2,0.6-3.1c0-0.5-0.6-0.9-1-0.6c-2.1,1.2-2.9,2.4-3.3,4.8c-0.1,0.7,0.9,1.3,1.2,0.5c0.7-1.3,0.9-2.3,1-3.7
					c0-0.5-0.6-0.8-1-0.6c-2.5,1.3-3.7,3.1-4,5.9c-0.1,0.8,0.9,0.8,1.3,0.3c0.9-1.2,1-2,0.5-3.3c-0.1-0.4-0.6-0.7-1-0.4
					c-1.3,0.8-2,1.6-2.7,3c-0.4,0.8,0.7,1.5,1.2,0.7c0.8-1.4,0.7-1.3,0.5-2.8c0-0.3-0.5-0.6-0.8-0.5c-2.2,0.9-3.1,2.5-2.6,4.9
					c0.1,0.4,0.6,0.6,1,0.4c1.3-0.8,1.6-1.5,1.1-3c-0.2-0.5-0.7-0.6-1.1-0.3c-1.4,1.2-3.3,2.8-2.7,4.8c0.1,0.3,0.3,0.5,0.7,0.5
					c0.6,0,0.8,0,1.1-0.5c0.2-0.2,0.3-0.6,0.1-0.8c-0.1-0.1-0.1-0.2-0.2-0.3c-0.1-0.2-0.5-0.4-0.8-0.3c-1.9,0.7-2.7,1.8-2.5,3.9
					c0.1,0.7,1.2,1,1.3,0.2c0.3-1.5,0.3-1.4-0.4-2.8c-0.2-0.4-0.8-0.4-1.1-0.1c-1.3,1.3-1.7,2.2-1.7,4
					C81.8,48.6,83.2,48.6,83.2,47.7L83.2,47.7z"/>
			</g>
		</g>
		<g>
			<g>
				<path class="st30" d="M79.4,49.4c-1.2,0.3-1.9,1.8-1.2,2.9c0.9,1.4,2.6-0.5,2.6-1.6c0-0.3-0.2-0.6-0.5-0.7
					c-1.2-0.2-2.6,0-3.5,0.9c-1,1,0,2.6,0.3,3.8c0.3,0.8,1.6,0.5,1.3-0.4c-0.2-0.6-0.8-1.7-0.7-2.3c0.2-0.7,1.5-0.8,2.1-0.7
					c-0.2-0.2-0.3-0.4-0.5-0.7c0,0.5-0.2,0.7-0.7,0.7c0.2,0.1,0.4,0.1,0.7,0.2c-0.3-0.4,0-0.8,0.4-0.9
					C80.6,50.5,80.3,49.2,79.4,49.4L79.4,49.4z"/>
			</g>
		</g>
		<g>
			<g>
				<path class="st30" d="M79.5,57.3c1.4-1.9,2-3.7,2.1-6c0-0.8-1.2-0.9-1.3-0.2c-0.9,6.7-2.1,13.4-3.4,20.1
					c-0.2,0.9,1.1,1.2,1.3,0.4c1.3-6.7,2.5-13.4,3.4-20.1c-0.4-0.1-0.9-0.1-1.3-0.2c-0.1,2.1-0.7,3.7-2,5.3
					C77.8,57.3,79,58,79.5,57.3L79.5,57.3z"/>
			</g>
		</g>
		<g>
			<g>
				<path class="st30" d="M103.3,39.6c-2.2,6.1-4.6,12-7.3,17.9c-0.4,0.8,0.8,1.5,1.2,0.7c2.7-6,5.2-12,7.5-18.2
					C104.9,39.1,103.6,38.8,103.3,39.6L103.3,39.6z"/>
			</g>
		</g>
		<g>
			<g>
				<path class="st30" d="M110.2,32.4c-2.2,7.2-4.8,14.3-7.9,21.2c-0.4,0.8,0.8,1.5,1.2,0.7c3.1-7,5.8-14.2,8-21.5
					C111.8,31.9,110.5,31.5,110.2,32.4L110.2,32.4z"/>
			</g>
		</g>
		<g>
			<g>
				<path class="st30" d="M114.4,26.9c-2,7-4.3,13.9-6.9,20.7c-0.3,0.8,1,1.2,1.3,0.4c2.7-6.8,5-13.7,6.9-20.7
					C116,26.4,114.7,26,114.4,26.9L114.4,26.9z"/>
			</g>
		</g>
		<g>
			<g>
				<path class="st30" d="M104.1,47.9c1.8-7.8,4.3-15.3,7.6-22.7c0.4-0.8-0.8-1.5-1.2-0.7c-3.3,7.4-5.9,15.1-7.7,23
					C102.6,48.4,103.9,48.7,104.1,47.9L104.1,47.9z"/>
			</g>
		</g>
		<g>
			<g>
				<path class="st30" d="M110.7,49c2.5-7.5,4.7-15.1,6.7-22.7c0.2-0.9-1.1-1.2-1.3-0.4c-2,7.6-4.2,15.2-6.7,22.7
					C109.1,49.5,110.4,49.9,110.7,49L110.7,49z"/>
			</g>
		</g>
		<g>
			<g>
				<path class="st30" d="M117.1,41.4c-6.6-2.1-13.1-4.4-19.4-7.2c-0.8-0.3-1.5,0.8-0.7,1.2c6.5,2.8,13,5.2,19.8,7.3
					C117.6,42.9,118,41.6,117.1,41.4L117.1,41.4z"/>
			</g>
		</g>
		<g>
			<g>
				<path class="st30" d="M116.4,36.1c-2.5-1.5-5.1-2.7-7.9-3.8c-0.8-0.3-1.2,1-0.4,1.3c2.6,1,5.1,2.2,7.5,3.6
					C116.4,37.7,117.1,36.6,116.4,36.1L116.4,36.1z"/>
			</g>
		</g>
		<g>
			<g>
				<path class="st30" d="M116.7,29.7c-2.5-0.1-4.8-0.7-7.1-1.7c-0.8-0.4-1.5,0.8-0.7,1.2c2.5,1.2,5.1,1.8,7.8,1.9
					C117.5,31.1,117.5,29.8,116.7,29.7L116.7,29.7z"/>
			</g>
		</g>
		<g>
			<g>
				<path class="st30" d="M61.7,40.4c3.2-3.3,4.9-8.3,6.9-12.4c2.7-5.5,5.5-10.9,9.3-15.8c0.5-0.7-0.4-1.7-1-1c-3.2,4-5.7,8.4-8,13
					c-2.4,4.8-4.3,11.2-8.1,15.2C60.1,40.1,61.1,41,61.7,40.4L61.7,40.4z"/>
			</g>
		</g>
		<g>
			<g>
				<path class="st30" d="M68.9,35.4c3.4-8.1,7.3-15.8,11.7-23.3c0.5-0.8-0.7-1.4-1.2-0.7C74.9,19,70.9,26.8,67.5,35
					C67.2,35.8,68.5,36.2,68.9,35.4L68.9,35.4z"/>
			</g>
		</g>
		<g>
			<g>
				<path class="st30" d="M73.1,32.7c2.5-6.2,5.3-12.4,8.3-18.4c0.4-0.8-0.8-1.5-1.2-0.7c-3.1,6.1-5.9,12.4-8.4,18.7
					C71.4,33.1,72.8,33.5,73.1,32.7L73.1,32.7z"/>
			</g>
		</g>
		<g>
			<g>
				<path class="st30" d="M78.7,30.3c2-3.9,4-7.9,5.7-11.9c0.3-0.8-0.8-1.5-1.2-0.7c-1.8,4-3.7,8-5.7,11.9
					C77.2,30.4,78.3,31.1,78.7,30.3L78.7,30.3z"/>
			</g>
		</g>
		<g>
			<g>
				<path class="st30" d="M88.6,28.3c0.6-1.7-1.5-3.9-2.2-5.2c-1.5-2.6-3.1-5.2-4.6-7.8c-0.5-0.7-1.6-0.1-1.2,0.7
					c1.2,1.9,2.3,3.8,3.4,5.7c0.5,0.8,1,1.6,1.4,2.5c0.4,0.7,2.1,3,1.9,3.8C87,28.8,88.3,29.2,88.6,28.3L88.6,28.3z"/>
			</g>
		</g>
		<g>
			<g>
				<path class="st30" d="M85,18.8c2.7,4.3,5.9,8.1,9.8,11.3c0.7,0.6,1.6-0.4,1-1c-3.8-3.2-6.9-6.9-9.6-11
					C85.7,17.4,84.5,18.1,85,18.8L85,18.8z"/>
			</g>
		</g>
		<g>
			<g>
				<path class="st30" d="M97.7,26.6c-5.1-6.2-10.8-11.9-17.1-16.9c-0.7-0.5-1.6,0.4-1,1c6.3,5.1,12,10.7,17.1,16.9
					C97.2,28.2,98.2,27.2,97.7,26.6L97.7,26.6z"/>
			</g>
		</g>
		<g>
			<g>
				<path class="st30" d="M104,30.1c-5-6.7-10.2-13.2-15.5-19.6c-0.6-0.7-1.5,0.3-1,1c5.3,6.3,10.4,12.7,15.3,19.3
					C103.4,31.5,104.6,30.8,104,30.1L104,30.1z"/>
			</g>
		</g>
		<g>
			<g>
				<path class="st30" d="M111.7,32.9c-3.9-6.3-8.6-12.1-13.9-17.2c-0.6-0.6-1.6,0.4-1,1c5.3,5.1,9.8,10.7,13.7,17
					C111,34.4,112.2,33.7,111.7,32.9L111.7,32.9z"/>
			</g>
		</g>
		<g>
			<g>
				<path class="st30" d="M116.3,36.2c-4.3-6.6-8.3-13.4-12-20.3c-0.4-0.8-1.6-0.1-1.2,0.7c3.7,7,7.7,13.7,12,20.3
					C115.6,37.7,116.7,37,116.3,36.2L116.3,36.2z"/>
			</g>
		</g>
		<g>
			<g>
				<path class="st30" d="M116.5,33.3c-1.9-5-4.1-10-6.6-14.8c-0.4-0.8-1.6-0.1-1.2,0.7c2.4,4.7,4.6,9.5,6.4,14.4
					C115.5,34.5,116.8,34.1,116.5,33.3L116.5,33.3z"/>
			</g>
		</g>
		<g>
			<g>
				<path class="st30" d="M84,22.2c-2.1-0.6-2.4,2.3-1.2,3.4c0.7,0.7,1.7,1,2.7,0.9c1.5-0.1,2.8-1.5,4.2-1.3c0.9,0.1,0.9-1.3,0-1.4
					c-1-0.1-1.6,0.3-2.4,0.7c-0.5,0.2-1,0.5-1.5,0.6c-0.4,0.1-0.9,0.1-1.3,0c-0.8-0.2-1-0.8-0.8-1.6C84.5,23.8,84.9,22.4,84,22.2
					L84,22.2z"/>
			</g>
		</g>
		<g>
			<g>
				<path class="st30" d="M84.7,20.9c1.2-3.6,3-6.8,5.4-9.7c0.6-0.7-0.4-1.6-1-1c-2.6,3.1-4.5,6.5-5.7,10.3
					C83.1,21.4,84.4,21.7,84.7,20.9L84.7,20.9z"/>
			</g>
		</g>
		<g>
			<g>
				<path class="st30" d="M84.7,27.4c2.7-5.2,5.7-10.3,9-15.2c0.5-0.7-0.7-1.4-1.2-0.7c-3.3,4.9-6.3,10-9,15.2
					C83.1,27.5,84.3,28.2,84.7,27.4L84.7,27.4z"/>
			</g>
		</g>
		<g>
			<g>
				<path class="st30" d="M87.9,28.5c3.5-4.7,6.7-9.5,9.6-14.5c0.4-0.8-0.7-1.4-1.2-0.7c-2.9,5-6.2,9.8-9.6,14.5
					C86.2,28.5,87.3,29.2,87.9,28.5L87.9,28.5z"/>
			</g>
		</g>
		<g>
			<g>
				<path class="st30" d="M91.3,29.1c2.6-3.9,5.6-7.5,9-10.8c0.6-0.6-0.3-1.6-1-1c-3.4,3.4-6.5,7.1-9.2,11
					C89.6,29.2,90.8,29.9,91.3,29.1L91.3,29.1z"/>
			</g>
		</g>
		<g>
			<g>
				<path class="st30" d="M95.4,28c3.1-3.6,6.3-7,9.6-10.3c0.6-0.6-0.3-1.6-1-1c-3.3,3.3-6.6,6.8-9.6,10.3
					C93.9,27.7,94.9,28.7,95.4,28L95.4,28z"/>
			</g>
		</g>
		<g>
			<g>
				<path class="st30" d="M97.6,29.3c3.5-3.6,7.2-7,11-10.3c0.7-0.6-0.3-1.5-1-1c-3.8,3.3-7.4,6.7-11,10.3C96,29,97,29.9,97.6,29.3
					L97.6,29.3z"/>
			</g>
		</g>
		<g>
			<g>
				<path class="st30" d="M102.5,29.3c2.3-2.3,4.5-4.8,6.5-7.4c0.5-0.7-0.7-1.4-1.2-0.7c-1.9,2.5-4,4.9-6.3,7.1
					C100.9,29,101.8,29.9,102.5,29.3L102.5,29.3z"/>
			</g>
		</g>
		<g>
			<g>
				<path class="st30" d="M61.2,20.9c3.9,4.9,8.4,9.3,13.4,13.2c0.7,0.5,1.4-0.6,0.7-1.2c-4.9-3.8-9.3-8.1-13.1-13
					C61.6,19.3,60.6,20.2,61.2,20.9L61.2,20.9z"/>
			</g>
		</g>
		<g>
			<g>
				<path class="st30" d="M65.9,18.6c3.9,3.9,7.7,7.9,11.4,12.1c0.6,0.7,1.5-0.3,1-1c-3.6-4.2-7.4-8.2-11.4-12.1
					C66.3,17,65.3,17.9,65.9,18.6L65.9,18.6z"/>
			</g>
		</g>
		<g>
			<g>
				<path class="st30" d="M70.8,16.6c3,3.9,6.2,7.6,9.6,11c0.6,0.6,1.6-0.3,1-1c-3.4-3.4-6.5-6.9-9.4-10.7
					C71.4,15.2,70.2,15.9,70.8,16.6L70.8,16.6z"/>
			</g>
		</g>
		<g>
			<g>
				<path class="st30" d="M78,19c0.8,1,1.6,1.9,2.4,2.9c0.6,0.7,1.5-0.3,1-1c-0.8-1-1.6-1.9-2.4-2.9C78.4,17.4,77.4,18.3,78,19
					L78,19z"/>
			</g>
		</g>
		<g>
			<g>
				<path class="st30" d="M82.8,8.9c0.3-0.5,0.6-1.1,0.9-1.6c0.4,0.1,0.8,0.2,1.3,0.3c0.4,0.5,0.1,0.9-0.8,1.4
					c0.4,0.1,0.8,0.1,1.2,0.2c0.2,0.1,0.4,0.2,0.5,0.2c0.3,0.3,0.7,0.5,1,0.8c0.6-3,1-2.8,1.3,0.4c0.4,0.1,0.8,0.1,1.2,0.2
					c0.6,0,1.2,0.1,1.9,0.1c0.4,0.1,0.9,0.2,1.3,0.4c2.1-4.6,3.4-5.4,3.8-2.3c0.7,1.1,0.6,2.1-0.1,3.1c0.4,0.1,0.9,0.1,1.3,0.2
					c0.3,0,0.6,0,0.9,0c0.3,0.3,0.7,0.5,1,0.8c0.8-0.2,1.5-0.3,2.3-0.5c-0.5,0.7,0.5,1.3,1.1,0.8c3.7-3.1,4.3-2.4,1.8,2.1
					c0.4,0.3,0.7,0.6,1.1,0.8c0.3-0.9,0.7-1.7,1.3-2.4c1.1-1.6,1-1.5-0.2,0.3c0.4,0.3,0.7,0.6,1.1,0.8c0.9,0.5,1.8,1,2.7,1.5
					c0.3,0.2,0.7,0.4,1,0.6c0.8-0.9,1.5-1.8,2.3-2.7c-0.4,0.5,0.4,1.3,0.9,0.9c0.4-0.3,0.9-0.6,1.3-1c3.1-0.6,3.5,0,1.1,2
					c0,0.6,0.7,0.9,1.2,0.5c0.1,0.3,0.2,0.6,0.3,0.8c-0.9,0-0.9,1.4,0,1.4c4.9-0.2,1.8-6.4-1.3-3.2c0.4,0.2,0.8,0.3,1.2,0.5
					c-0.1-1.2-0.8-1.7-2-1.4c-0.3,0.1-0.5,0.4-0.5,0.7c-0.4,3.2,3.2,2.4,3.9-0.1c1.5-5.3-3.8-2.9-5.8-1.4c0.3,0.3,0.6,0.6,0.9,0.9
					c0.9-1.3,0.6-3.2-1.2-3.6c-3.3-0.8-3.8,3.5-3.6,5.6c0,0.5,0.6,0.9,1,0.6c1.8-1.3,4.4-3.9,1.9-5.9c-2.4-2-5.1,0.8-6.5,2.6
					c-0.5,0.6,0.5,1.3,1.1,0.8c1.3-1.2,3.2-2.8,1.8-4.5c-0.2-0.3-0.6-0.4-0.9-0.2c-2.1,0.9-3.3,3.2-4.1,5.1
					c-0.3,0.7,0.5,1.4,1.1,0.8c1.7-1.8,2.3-3.3,2.2-5.7c0-0.5-0.4-0.7-0.9-0.7c-2.1,0.3-3.5,1-5.1,2.4c0.4,0.3,0.7,0.6,1.1,0.8
					c1-1.4,2.6-4.3,0.1-5.4c-2.6-1.1-4.3,3.1-4.9,4.8c-0.2,0.6,0.5,1,1,0.8c5.1-2.3-3.5-7.8-3-1.1c0.1,0.8,1.1,0.9,1.3,0.2
					c0.8-2,1.3-4,0.7-6.1c-0.1-0.2-0.2-0.4-0.5-0.5c-3.2-0.7-5.8,2.6-4.7,5.5c0.1,0.4,0.6,0.7,1,0.4c1.9-1.1,2.1-3,0.7-4.6
					C94.7,7,94.4,7,94.1,7.2c-1.7,0.9-2.4,1.9-2.7,3.8c-0.1,0.9,1,1.2,1.3,0.4c1.6-4.7-5.8-5.1-4.5-0.1c0.2,0.6,1,0.7,1.2,0.2
					c0.7-1.2,2.7-5.6,0.3-6.3c-2.2-0.6-3.7,3.4-4,4.8c-0.1,0.6,0.5,1.1,1,0.8c4.8-3.1-3.8-6.6-2.5-1c0.1,0.6,0.9,0.6,1.2,0.2
					c0.7-1.1,3-4.2,0.5-5c-1.9-0.6-2.3,1.7-2.3,2.9c0,0.7,0.9,0.9,1.3,0.3c1.2-1.9,0.1-4.5-2.4-4c-3.3,0.6-2.3,4.3-0.6,5.9
					C82.5,10.4,83.5,9.5,82.8,8.9L82.8,8.9z"/>
			</g>
		</g>
		<g>
			<g>
				<path class="st30" d="M116.9,27.7c-0.2,5-0.4,10-0.7,15c0.3-0.2,0.7-0.4,1-0.6c-0.1-0.1-0.2-0.2-0.3-0.3
					c-0.3-0.8-1.7-0.4-1.3,0.4c0.3,0.6,0.3,0.8,0.9,1.1c0.5,0.3,1-0.1,1-0.6c0.3-5,0.5-10,0.7-15C118.2,26.9,116.9,26.9,116.9,27.7
					L116.9,27.7z"/>
			</g>
		</g>
		<g>
			<g>
				<path class="st30" d="M54.5,91.5c0.3,1.3,2.2,1.8,3.1,0.7c0.5-0.6,0.4-1.5,0.1-2.1c-0.4-0.8-1.1-1.2-1.8-1.6
					c-0.8-0.4-1.4,0.7-0.7,1.2c0.5,0.3,1.5,0.8,1.4,1.5c-0.1,0.4-0.6,0.4-0.7,0C55.6,90.3,54.2,90.7,54.5,91.5L54.5,91.5z"/>
			</g>
		</g>
		<g>
			<g>
				<path class="st30" d="M55.8,89c-0.1-1.8-2.6-2.1-3.3-0.5c-0.3,0.8-0.1,1.8,0.5,2.4c0.7,0.8,1.7,1,2.7,1.1c0.9,0.1,0.9-1.3,0-1.4
					c-0.8,0-1.9-0.3-2-1.2c0-0.3,0-0.6,0.3-0.6c0.1,0,0.4,0,0.4,0.2C54.5,89.9,55.9,89.9,55.8,89L55.8,89z"/>
			</g>
		</g>
		<g>
			<g>
				<path class="st30" d="M36.8,82c2.5,1.4,5,2.7,7.4,4.1c0.7,0.4,1.4-0.5,0.8-1.1c-2.1-2.1-4.5-3.9-7.1-5.2
					c-0.6-0.3-1.5,0.6-0.8,1.1c2.8,2.2,5.6,4.3,9,5.4c0.8,0.2,1.2-0.8,0.5-1.2c-3-1.9-6.1-3.7-9.3-5.3c-0.6-0.3-1.4,0.3-0.9,0.9
					c0.7,1,1.4,1.7,2.4,2.3c0.7,0.5,1.4-0.7,0.7-1.2c-0.9-0.5-1.4-1-1.9-1.8c-0.3,0.3-0.6,0.6-0.9,0.9c3.2,1.6,6.3,3.4,9.3,5.3
					c0.2-0.4,0.4-0.8,0.5-1.2c-3.2-1-5.8-3-8.4-5c-0.3,0.4-0.6,0.7-0.8,1.1c2.6,1.3,4.8,3,6.8,5c0.3-0.4,0.6-0.7,0.8-1.1
					c-2.5-1.4-5-2.7-7.4-4.1C36.7,80.4,36,81.6,36.8,82L36.8,82z"/>
			</g>
		</g>
	</g>
</g>
<g id="Layer_2_copy" class="st0">
	<g class="st2">
		<g>
			<path class="st30" d="M24.4,72.5c-3.8-1.9-6.2,3.8-4.4,6.7c0.9,1.4,2.3,1.9,3.9,1.5c0.5-0.1,0.9-0.4,1.3-0.6
				c1.7-0.7,3.3-0.4,4.6,1c1.6,1.7,1.9,4.6,1.5,6.8c-0.1,0.9,1.2,1.3,1.4,0.4c0.5-3.1-0.1-6.5-2.3-8.8c-0.9-0.9-1.9-1.5-3.2-1.5
				c-0.7,0-1.2,0.4-1.8,0.5c-0.3,0.1-0.6,0.3-0.9,0.5c-4.1-2.9-4.4-4.6-0.8-5.1C24.5,74.1,25.2,72.9,24.4,72.5L24.4,72.5z"/>
		</g>
	</g>
	<g class="st2">
		<g>
			<path class="st30" d="M30.8,86c0.2,2.9-1.3,5.1-4.5,6.6c-0.5-0.1-1-0.2-1.5-0.1c-0.6,0.4-1.1,0.1-1.6,0.5
				c-1.6,1.2-1.1,2.6-0.6,4.3c0.5,1.7,1.7,4,3.4,4.9c1.5,0.8,1.7,0,2.9,0.5c0.1,0,0.1,0,0.2,0c2.5-1.1,2.9,0.5,1.2,4.9
				c-1.8,1-8.1-0.1-9.6-1.6c-1.8-1.7-1.7-3.7-2.2-5.9c-0.3-1.4-1-2.9-2.1-3.8c-2.9-2.5-5.6-0.9-6.3,2.6c-0.8,4.3-1.3,11,3.2,13.4
				c4.7,2.4,13.2,2.6,18.3,1.7c4.7-0.9,9.7-3.8,10.4-8.9c0.6-4.2-2.2-7.5-6.3-7.9c-0.9-0.1-0.9,1.3,0,1.4c6.5,0.6,5.3,7.5,2.6,10.4
				c-1.6,1.7-3.1,2.6-5.3,3.2c-3.3,1-6.8,0.9-10.2,0.5c-4.5-0.5-10.5-0.4-11.4-6.6c-0.1-0.9,0-2,0.1-3c0-0.7,0-1.5,0.1-2.2
				c-0.2-2.5,1.8-2.3,5.8,0.5c0.4,1.1-0.3,2.5,0.3,3.7c0.6,1.3,1.9,1.9,3.1,2.5c3.1,1.4,7.2,2.3,10.6,1.2c3.4-1.1,5.9-6.7,1.3-8
				c-2.1-0.6-8,0.6-8.1-2.8c0.6-1.3,1.2-2.6,1.9-3.8c0.4,0,0.9,0,1.3,0c0.4-0.2,1-0.2,1.4-0.4c2.8-1.4,3.1-4.9,3.2-7.6
				C32.2,85.1,30.8,85.1,30.8,86L30.8,86z"/>
		</g>
	</g>
	<g class="st2">
		<g>
			<path class="st30" d="M39.4,98.8c-1.3-1.4-2.3-1.5-3.8-2.4c-1-0.6-2.2,0-0.8-1.7c0.6-0.8,2.6-1.5,3.5-2.2
				c2.6-2.2,3.7-5.7,3.4-9.1c-0.3-3.6-2-7.7-4.8-10.1c-3.6-3-8.6-2.5-12.9-2c-0.9,0.1-0.9,1.5,0,1.4c3.2-0.4,6.7-0.8,9.8,0.5
				c4,1.8,7.1,7.3,6.5,11.8c-0.4,3.2-1.7,5.5-4.5,7.4c-0.9,0.6-2.2,1-2.9,1.8c-0.9,1-1.1,1-1.1,2.4c0,0.2,0.1,0.5,0.4,0.6
				c2.2,1.1,3.7-0.2,6.2,2.5C39,100.4,40,99.4,39.4,98.8L39.4,98.8z"/>
		</g>
	</g>
	<g class="st2">
		<g>
			<path class="st30" d="M25.1,75.4c0.9,0,0.9-1.4,0-1.4C24.2,74,24.2,75.4,25.1,75.4L25.1,75.4z"/>
		</g>
	</g>
	<g class="st2">
		<g>
			<path class="st30" d="M33.1,75.7c0.9,0,0.9-1.4,0-1.4C32.2,74.3,32.2,75.7,33.1,75.7L33.1,75.7z"/>
		</g>
	</g>
	<g class="st2">
		<g>
			<path class="st30" d="M19.9,78.5c-1.7,0.6-3.6,0-4.1-1.9c-0.5-1.7,1.3-4.7,3.2-2.9c0.6,0.6,1.6-0.4,1-1c-2.4-2.4-5.7,0.1-5.7,3
				c0,3.2,3.1,5.2,6.1,4.1C21.1,79.5,20.8,78.1,19.9,78.5L19.9,78.5z"/>
		</g>
	</g>
	<g class="st2">
		<g>
			<path class="st30" d="M21.9,80c0.1,2,1.5,3.8,3.6,4c1.9,0.2,3.7-1.7,2.3-3.4c-0.6-0.7-1.6,0.3-1,1c0.4,0.5-0.3,1-0.7,1
				c-0.5,0.1-1-0.1-1.4-0.3c-0.8-0.5-1.3-1.3-1.3-2.3C23.3,79.1,21.9,79.1,21.9,80L21.9,80z"/>
		</g>
	</g>
	<g class="st2">
		<g>
			<path class="st30" d="M23,93.1c-1.6-1.1-3.1-2.4-4.4-3.8c-0.6-0.7-1.6,0.3-1,1c1.4,1.5,3,2.9,4.7,4.1C23,94.9,23.8,93.6,23,93.1
				L23,93.1z"/>
		</g>
	</g>
	<g class="st2">
		<g>
			<path class="st30" d="M10.2,87.3c0.4-0.7,0.8-1.4,1.2-2.1c0.4-0.6,1.2-2.1,1.8-2.4c0.1-0.3,0.2-0.2,0.2,0.1
				c0.1,0.3,0.2,0.5,0.4,0.7c0.2,0.4,0.5,0.8,0.8,1.2c0.6,0.9,1.1,1.7,1.7,2.6c0.5,0.8,1.7,0,1.2-0.7c-0.9-1.3-1.8-2.7-2.6-4
				C14.5,82,14,81,13,81.2c-0.7,0.2-1.3,1.2-1.7,1.7c-0.9,1.2-1.7,2.4-2.4,3.7C8.5,87.4,9.7,88.1,10.2,87.3L10.2,87.3z"/>
		</g>
	</g>
	<g class="st2">
		<g>
			<path class="st30" d="M11.2,87.2c0-1.2,4.6,0,5.3,0.2c0.9,0.3,1.2-1.1,0.4-1.4c-1.7-0.5-7-1.9-7.1,1.2
				C9.7,88.1,11.1,88.1,11.2,87.2L11.2,87.2z"/>
		</g>
	</g>
	<g class="st2">
		<g>
			<path class="st30" d="M10.4,88.5c1.3,0.6,2.7,0.9,4.2,0.8c1,0,2.2-0.1,2.9-0.9c0.5-0.6,0.4-1.5-0.1-2.1c-0.7-0.8-1.8-0.9-2.8-0.9
				c-1.1,0-6.1,0-4.9,2.2c0.5,0.9,1.9,1.3,2.8,1.6c1.3,0.3,2.6,0.3,3.9,0.1c0.9-0.2,0.5-1.5-0.4-1.4c-1.2,0.2-2.4,0.2-3.6-0.2
				c-0.5-0.2-1.7-0.3-0.7-0.6c0.7-0.2,1.4-0.2,2.1-0.2c0.5,0,1.5-0.2,1.9,0.1c1.5,0.9-0.7,1-1.1,1c-1.3,0-2.6-0.3-3.8-0.8
				C10,86.8,9.6,88.1,10.4,88.5L10.4,88.5z"/>
		</g>
	</g>
	<g class="st2">
		<g>
			<path class="st30" d="M11.7,99.2c-0.3-3.2-0.5-6.3-0.5-9.5c0-0.9-1.4-0.9-1.4,0c0,3.2,0.2,6.3,0.5,9.5
				C10.4,100.1,11.8,100.1,11.7,99.2L11.7,99.2z"/>
		</g>
	</g>
	<g class="st2">
		<g>
			<path class="st30" d="M16.5,97.3c-1.1-2.1-1.5-4.4-1.4-6.8c0.1-0.9-1.4-0.9-1.4,0c-0.2,2.6,0.4,5.1,1.6,7.5
				C15.7,98.8,17,98.1,16.5,97.3L16.5,97.3z"/>
		</g>
	</g>
	<g class="st2">
		<g>
			<path class="st30" d="M35.4,96c1.5,0.1,3-0.1,4.4-0.5c0.9-0.3,0.5-1.6-0.4-1.4c-1.3,0.4-2.7,0.6-4.1,0.5
				C34.5,94.5,34.5,95.9,35.4,96L35.4,96z"/>
		</g>
	</g>
	<g class="st2">
		<g>
			<path class="st30" d="M30.1,87.9c0.9,0,0.9-1.4,0-1.4C29.2,86.5,29.2,87.9,30.1,87.9L30.1,87.9z"/>
		</g>
	</g>
	<g class="st2">
		<g>
			<path class="st30" d="M41.6,88.7c1.4-0.2,2.6-0.8,3.5-1.9c0.6-0.7-0.4-1.7-1-1c-0.6,0.8-1.5,1.4-2.5,1.5c-0.4,0-0.7,0.3-0.7,0.7
				C40.9,88.3,41.3,88.7,41.6,88.7L41.6,88.7z"/>
		</g>
	</g>
	<g class="st2">
		<g>
			<path class="st30" d="M27.7,87.5c0.5,0.2,1,0.3,1.5,0.5c0.9,0.3,1.2-1.1,0.4-1.4c-0.5-0.2-1-0.3-1.5-0.5
				C27.2,85.8,26.8,87.2,27.7,87.5L27.7,87.5z"/>
		</g>
	</g>
	<g class="st2">
		<g>
			<path class="st30" d="M8.7,69.2c2.5-8,4.7-16,6.5-24.2c-0.5,0-0.9,0-1.4,0c2.7,7.6,4.2,15.4,5.7,23.3c0.2,0.9,1.5,0.5,1.4-0.4
				c-1.5-7.9-3-15.7-5.7-23.3c-0.2-0.6-1.2-0.7-1.4,0c-1.9,8.1-4,16.2-6.5,24.2C7.1,69.7,8.4,70.1,8.7,69.2L8.7,69.2z"/>
		</g>
	</g>
	<g class="st2">
		<g>
			<path class="st30" d="M12.4,62.8c-0.8,3.2-1.2,6.4-1.3,9.7c0,0.9,1.4,0.9,1.4,0c0.1-3.2,0.4-6.3,1.2-9.3
				C14,62.3,12.7,61.9,12.4,62.8L12.4,62.8z"/>
		</g>
	</g>
	<g class="st2">
		<g>
			<path class="st30" d="M9.4,77.9c0.9,0,0.9-1.4,0-1.4C8.5,76.5,8.5,77.9,9.4,77.9L9.4,77.9z"/>
		</g>
	</g>
	<g class="st2">
		<g>
			<path class="st30" d="M13.4,50.5c-0.2,3.7-0.3,7.3-0.5,11c0,0.9,1.4,0.9,1.4,0c0.2-3.7,0.3-7.3,0.5-11
				C14.9,49.6,13.5,49.6,13.4,50.5L13.4,50.5z"/>
		</g>
	</g>
	<g class="st2">
		<g>
			<path class="st30" d="M14.1,48c-0.1,3.8,0,7.7,0.3,11.5c0.1,0.9,1.5,0.9,1.4,0c-0.3-3.8-0.4-7.7-0.3-11.5
				C15.5,47.1,14.1,47.1,14.1,48L14.1,48z"/>
		</g>
	</g>
	<g class="st2">
		<g>
			<path class="st30" d="M13.5,47.1c-0.7,4.7-1.4,9.4-1.8,14.2c-0.1,0.9,1.3,0.9,1.4,0c0.5-4.6,1.1-9.2,1.8-13.8
				C15,46.5,13.6,46.2,13.5,47.1L13.5,47.1z"/>
		</g>
	</g>
	<g class="st2">
		<g>
			<path class="st30" d="M15.4,54.7c0.5,3.7,1,7.3,1.5,11c0.1,0.9,1.5,0.5,1.4-0.4c-0.5-3.7-1-7.3-1.5-11
				C16.7,53.4,15.3,53.8,15.4,54.7L15.4,54.7z"/>
		</g>
	</g>
	<g class="st2">
		<g>
			<path class="st30" d="M15.5,51.9c0.8,4.1,1.1,8.2,1,12.3c0,0.9,1.4,0.9,1.4,0c0.1-4.3-0.2-8.5-1-12.7
				C16.7,50.7,15.3,51,15.5,51.9L15.5,51.9z"/>
		</g>
	</g>
	<g class="st2">
		<g>
			<path class="st30" d="M14.2,65.7c-0.2,1.5-0.3,3-0.5,4.5c-0.1,0.9,1.3,0.9,1.4,0c0.2-1.5,0.3-3,0.5-4.5
				C15.7,64.8,14.3,64.8,14.2,65.7L14.2,65.7z"/>
		</g>
	</g>
	<g class="st2">
		<g>
			<path class="st30" d="M13.4,77.9c0.9,0,0.9-1.4,0-1.4C12.5,76.5,12.5,77.9,13.4,77.9L13.4,77.9z"/>
		</g>
	</g>
	<g class="st2">
		<g>
			<path class="st30" d="M10.4,74.4c0.9,0,0.9-1.4,0-1.4C9.5,73,9.5,74.4,10.4,74.4L10.4,74.4z"/>
		</g>
	</g>
	<g class="st2">
		<g>
			<path class="st30" d="M9.9,67.2c0.9,0,0.9-1.4,0-1.4C9,65.8,9,67.2,9.9,67.2L9.9,67.2z"/>
		</g>
	</g>
	<g class="st2">
		<g>
			<path class="st30" d="M7.1,74.2c0.9,0,0.9-1.4,0-1.4C6.2,72.8,6.2,74.2,7.1,74.2L7.1,74.2z"/>
		</g>
	</g>
	<g class="st2">
		<g>
			<path class="st30" d="M7.9,80.2c0.9,0,0.9-1.4,0-1.4C7,78.8,7,80.2,7.9,80.2L7.9,80.2z"/>
		</g>
	</g>
	<g class="st2">
		<g>
			<path class="st30" d="M20.4,68.4c0.9,0,0.9-1.4,0-1.4C19.5,67,19.5,68.4,20.4,68.4L20.4,68.4z"/>
		</g>
	</g>
	<g class="st2">
		<g>
			<path class="st30" d="M19.4,69.7c0.9,0,0.9-1.4,0-1.4C18.5,68.3,18.5,69.7,19.4,69.7L19.4,69.7z"/>
		</g>
	</g>
	<g class="st2">
		<g>
			<path class="st30" d="M18.9,69.4c0.9,0,0.9-1.4,0-1.4C18,68,18,69.4,18.9,69.4L18.9,69.4z"/>
		</g>
	</g>
	<g class="st2">
		<g>
			<path class="st30" d="M19.4,70.4c0.9,0,0.9-1.4,0-1.4C18.5,69,18.5,70.4,19.4,70.4L19.4,70.4z"/>
		</g>
	</g>
	<g class="st2">
		<g>
			<path class="st30" d="M9.8,38.9c-1.2,0.6-5.3,1.1-4,3.7c1.2,2.3,6.2,1.3,8.1,1.2c2.6-0.2,5.1-0.4,7.7-0.6c0.8-0.1,2.3,0,3-0.7
				c1.6-1.7-1-3.1-2.3-3.7c-2.6-1.2-16.6-5.1-16.3,1.5c0.2,5.4,15.2,1.3,18,0.6c0.7-0.2,0.7-1.2,0-1.4c-3.7-0.8-7.7-2.3-11.5-2.5
				c-1.7-0.1-3.5,0.7-3.4,2.7c0.3,6.6,11,3.8,14.6,3.2c0.5-0.1,0.6-0.7,0.4-1c-1.1-2-3.4-2.3-5.5-2.7c-3.5-0.7-7-1-10.5-0.9
				c-0.5,0-0.9,0.6-0.6,1.1c2.6,4,9.5,2.7,12.7,0.1c0.5-0.4,0.1-1.2-0.5-1.2c-4.1-0.4-8.1-0.2-12.1,0.5c-0.7,0.1-0.7,1.2,0,1.4
				c3.9,0.7,7.7,0.9,11.6,0.4c0.9-0.1,0.9-1.4,0-1.4c-2.9,0.1-5.8,0.3-8.6,0.6c-0.7,0.1-1,1.2-0.2,1.4c3.1,0.7,6,0.5,8.9-0.6
				c0.8-0.3,0.6-1.3-0.2-1.4c-3.6-0.3-6.9,0.2-10.2,1.5C8.1,40.8,8.1,42,9,42c4.3-0.2,8.6-0.2,12.8,0.2c0.8,0.1,1-1.2,0.2-1.4
				c-3.3-0.6-6.7-0.7-10.1-0.6c0.1,0.5,0.1,0.9,0.2,1.4c2.3-0.5,4.6-0.7,7-0.9c0.9-0.1,0.9-1.4,0-1.4c-0.7,0-1.4-0.1-2.1-0.1
				c-0.9-0.2-1.3,1.2-0.4,1.4c1.3,0.2,1.1,0.2,2.4,0.2c0-0.5,0-0.9,0-1.4c-2.5,0.1-4.9,0.4-7.4,0.9c-0.8,0.2-0.6,1.4,0.2,1.4
				c3.3-0.1,6.5-0.1,9.7,0.6c0.1-0.5,0.1-0.9,0.2-1.4c-4.3-0.4-8.5-0.5-12.8-0.2c0.1,0.5,0.1,0.9,0.2,1.4c3.2-1.2,6.4-1.7,9.8-1.4
				c-0.1-0.5-0.1-0.9-0.2-1.4c-2.7,1-5.3,1.3-8.2,0.6c-0.1,0.5-0.1,0.9-0.2,1.4c2.9-0.4,5.7-0.6,8.6-0.6c0-0.5,0-0.9,0-1.4
				c-3.8,0.4-7.5,0.3-11.2-0.4c0,0.5,0,0.9,0,1.4c3.9-0.7,7.8-0.8,11.7-0.5c-0.2-0.4-0.3-0.8-0.5-1.2c-2.2,1.9-8.5,3.3-10.5,0.2
				C8.4,39,8.2,39.4,8,39.7c2.2,0,4.3,0,6.5,0.2c2.1,0.2,7.1,0.5,8.3,2.6c0.1-0.3,0.3-0.7,0.4-1c-1.5,0.2-2.9,0.5-4.4,0.7
				c-1.1,0.2-2.3,0.4-3.5,0.4c-0.7-0.1-1.3-0.2-2-0.3c-2.4-3.1-2.6-4.4-0.6-4c1.5-0.2,3.7,0.7,5.2,1.1c1.9,0.4,3.8,0.8,5.7,1.3
				c0-0.5,0-0.9,0-1.4c-3.9,1-7.8,1.6-11.8,1.8c-0.7,0-2,0.3-2.7,0c-1.3,0-1.1-0.5,0.5-1.7c0.3-1.2,0.9-1.7,1.8-1.6
				c1.8-0.4,4.4,0.4,6.2,0.8c1.2,0.2,6.1,1.1,4,2.9c-0.8,0.6-4.1,0.3-5.1,0.4c-1.7,0.1-4.2,0.9-5.8,0.4c-0.9-0.3-2-1.1-1.5-1.8
				c-0.2,0.2,2-0.9,1.4-0.6C11.3,39.7,10.6,38.5,9.8,38.9L9.8,38.9z"/>
		</g>
	</g>
	<g class="st2">
		<g>
			<path class="st30" d="M11.1,40C5.8,24,28.7,25.8,37.2,19.7c5.9-4.3,9-12.5,4.4-18.9c-0.5-0.7-1.8,0-1.2,0.7
				c4.5,6.3,0.8,14.1-5.2,17.8c-5.1,3.2-10.9,3.4-16.6,5.1C11.5,26.5,7.3,33,9.7,40.3C10,41.2,11.4,40.8,11.1,40L11.1,40z"/>
		</g>
	</g>
	<g class="st2">
		<g>
			<path class="st30" d="M12.4,39.3C6.7,23.4,45.5,26.1,47.5,11.8c0.8-5.7-1.5-12.7-7-15.3c-2.9-1.3-5.7-1-8.5,0.3
				c-5.1,2.6-8.2,5.6-14.4,3.4c-3-1.1-4.3,3.8-1.3,4.8c3,1.1,6.2,1.5,9.4,0.7c3.6-0.9,6.2-4,9.6-4.9c5-1.3,8.2,5.3,7.4,9.5
				c-0.9,5.1-8.2,6.7-12.4,8.3c-9,3.5-27.7,8-22.7,21.9C8.6,43.6,13.5,42.3,12.4,39.3L12.4,39.3z"/>
		</g>
	</g>
	<g class="st2">
		<g>
			<path class="st30" d="M25.5,26.1c6.1-4.3,16-2.2,16.8,6.3c0.6,6.1-0.5,11.8,2.5,17.5c5.6,10.9,17.9,10.4,26.9,4.2
				c2.6-1.8,0.1-6.1-2.5-4.3C62.4,54.4,53.3,56,49,47.4c-3.2-6.4-0.1-13.7-3-20.1c-3.9-8.8-15.7-10.8-23.1-5.5
				C20.3,23.6,22.8,27.9,25.5,26.1L25.5,26.1z"/>
		</g>
	</g>
	<g class="st2">
		<g>
			<path class="st30" d="M38.8,23.1c7.4-5.3,15.2,1.1,21.9,4.5c5.6,2.9,11.7,4.5,18,4.4c5.7,0,12.4-1,17-4.6
				c4.9-3.8,4.4-9.2,2.5-14.5c-1.1-3-5.9-1.7-4.8,1.3c1.5,4.1,1.9,8.1-2.6,10.4c-2.8,1.4-6.4,2.1-9.5,2.3c-6.6,0.5-12.9-1-18.7-4.1
				c-8-4.3-17.4-10.4-26.1-4.1C33.7,20.7,36.2,25,38.8,23.1L38.8,23.1z"/>
		</g>
	</g>
	<g class="st2">
		<g>
			<path class="st30" d="M52.6,22.3c8,2.4,14.9-2.2,19.7-8.3C78.8,5.9,83.1-3,94.9-3.3c3.2-0.1,3.2-5.1,0-5
				C87-8.1,80.3-4.7,75.4,1.4C70,8,64.5,20.7,53.9,17.5C50.9,16.6,49.5,21.4,52.6,22.3L52.6,22.3z"/>
		</g>
	</g>
	<g class="st2">
		<g>
			<path class="st30" d="M33.9,17.2c-4.2,2.2-8.5,4.6-11.3,8.5c-1.2,1.7-2.2,3.5-2.7,5.6c-0.6,2.7,0,5.4-0.8,8.1
				c0.8-0.6,1.6-1.2,2.4-1.8c-0.1,0-4-0.7-3.5,0.5c-0.1-0.3,2.8-2.8,3-3c-1.4-0.8-2.8-1.6-4.2-2.4c-0.5,2.2-0.9,4.3-1.4,6.5
				c-0.5,2.2,2.5,4.5,4.2,2.4c0.7-0.9,1.4-1.7,2-2.6c2-2.5-1.5-6.1-3.5-3.5c-0.7,0.9-1.4,1.7-2,2.6c1.4,0.8,2.8,1.6,4.2,2.4
				c0.5-2.2,0.9-4.3,1.4-6.5c0.5-2.4-2.3-4.2-4.2-2.4c-2,1.9-6.1,4.8-4.7,8c1.3,3.1,6,2.8,8.8,3c1.1,0.1,2.1-0.8,2.4-1.8
				c1.2-3.9-0.1-7.8,2.2-11.4c2.4-3.7,6.5-5.8,10.3-7.7C39.3,20,36.7,15.7,33.9,17.2L33.9,17.2z"/>
		</g>
	</g>
	<g class="st2">
		<g>
			<path class="st30" d="M14.6,34.2c-0.2,0.5,0.4,0.1,0.8,0c0.5-0.1,1,0,1.5,0c1.2,0.1,2.3,0.3,3,1.3c2,2.5,5.5-1.1,3.5-3.5
				c-3.1-3.9-11.6-4.1-13.7,0.9c-0.5,1.3,0.6,2.7,1.7,3.1C13,36.3,14.1,35.4,14.6,34.2L14.6,34.2z"/>
		</g>
	</g>
	<g class="st2">
		<g>
			<path class="st30" d="M18.1,34.5c0.8-1.2,2.7-5.1,4.5-5c-0.6-0.2-1.2-0.5-1.8-0.7c0.1,0.1,0.2,0.3,0.4,0.4
				c0.2-1.3,0.3-2.6,0.5-3.9c-3.2,1.9-6.3,4.1-9,6.7c-2.1,1.9-4.2,4.3-3.2,7.3c0.7,2,3.4,2.5,4.6,0.6c1.5-2.4,2.9-4.7,4.2-7.1
				c1-1.8-0.7-4.5-2.8-3.7c-4.7,1.7-8.1,5.2-9.6,10.1c1.4-0.4,2.8-0.7,4.2-1.1c0,0-0.1,0-0.1-0.1c-0.4-1.5-2.3-2.4-3.7-1.5
				c-1,0.7-1.5,1.1-2,2.2c1.5,0.6,3,1.3,4.6,1.9c0.5-1.3,1.5-4.2,2.9-4.9c-0.6,0.1-1.3,0.2-1.9,0.3c0.5,0.1,4.2,0.9,4.3,1.1
				c1.4,2.9,5.8,0.3,4.3-2.5c-0.7-1.4-1.8-2.2-3.4-2.5c-1.4-0.3-3.5-1.1-4.9-0.9c-3.3,0.5-5.1,5.6-6.1,8.2c-1,2.6,3.4,4.5,4.6,1.9
				c0.1-0.1,0.1-0.3,0.2-0.4c-1.2-0.5-2.4-1-3.7-1.5c0.3,1,0.6,1.6,1.4,2.3c1.4,1.2,3.6,0.8,4.2-1.1c0.9-3.1,3.1-5.5,6.1-6.6
				c-0.9-1.2-1.9-2.4-2.8-3.7c-1.4,2.4-2.8,4.8-4.2,7.1c1.5,0.2,3,0.4,4.6,0.6c-0.4-1.2,3.1-3.5,4-4.3c1.9-1.5,3.9-2.8,5.9-4.1
				c1.4-0.9,1.6-2.7,0.5-3.9c-4-4.3-9.2,3.5-11,6.4C12.1,34.7,16.4,37.3,18.1,34.5L18.1,34.5z"/>
		</g>
	</g>
	<g class="st2">
		<g>
			<path class="st30" d="M23.4,41.1c0.2-0.1,0.4-0.3,0.6-0.4c0.5-0.3-0.2,0,0.3-0.1c-0.3,0.1,0.3,0.1-0.2,0
				c-0.2-0.1-0.3-0.1-0.1-0.1c0.2,0.1,0.1,0.1-0.1-0.1c-0.1-0.2-0.2-0.4-0.4-0.6c-0.1-0.3-0.1-0.6,0.1-0.8c0,0,0.1-0.1,0.1-0.1
				c-0.2,0.2-0.2,0.2-0.1,0.1c-0.1,0-0.2,0.1-0.2,0.1c0.2-0.1,0.1-0.1,0,0c-0.3,0.1-0.6,0.2-0.9,0.2c-1.3,0.3-2.1,1.8-1.7,3.1
				c0.4,1.4,1.7,2,3.1,1.7c0.9-0.2,1.8-0.5,2.6-1c2.4-1.5,0.9-5.3-1.9-4.6c-0.4,0.1-0.7,0.2-1.1,0.3c-1.3,0.3-2.2,1.8-1.7,3.1
				c0.4,1.3,1.7,2.1,3.1,1.7c0.4-0.1,0.7-0.2,1.1-0.3c-0.6-1.5-1.3-3-1.9-4.6c-0.2,0.1-0.3,0.2-0.5,0.3c0.1,0,0.1,0,0,0
				c-0.3,0.1-0.6,0.2-0.9,0.2c0.4,1.6,0.9,3.2,1.3,4.8c1.3-0.3,2.6-0.7,3.5-1.7c1.1-1.2,1.5-3.1,0.7-4.6c-0.7-1.3-2-2-3.5-2.1
				c-1.3-0.1-2.7,0.5-3.8,1.2c-1.1,0.7-1.7,2.2-0.9,3.4C20.7,41.3,22.2,41.9,23.4,41.1L23.4,41.1z"/>
		</g>
	</g>
	<g class="st2">
		<g>
			<path class="st30" d="M78.4,32.2c14,6.2,10.3,26.8,8.4,38.6c-0.5,3.1,4.3,4.5,4.8,1.3c2.2-14,5.7-37-10.7-44.2
				C78,26.6,75.5,30.9,78.4,32.2L78.4,32.2z"/>
		</g>
	</g>
	<g class="st2">
		<g>
			<path class="st30" d="M89.6,50.7c2.1,8.6,7,16.2,14,21.6c3.4,2.7,7.2,4,11,6c6.3,3.4,7.8,11.5,8.6,18.1c0.4,3.2,5.4,3.2,5,0
				c-0.6-5.2-1.7-10.4-4-15.2c-2.1-4.4-5.5-6.5-9.9-8.5c-10.1-4.5-17.3-12.6-20-23.4C93.6,46.3,88.8,47.6,89.6,50.7L89.6,50.7z"/>
		</g>
	</g>
	<g class="st2">
		<g>
			<path class="st30" d="M115.8,75.3c5.2-1.8,6.4-7.6,7.2-12.5c1.1-6.7,0.5-13.4-1.4-19.9c-0.9-3.1-5.7-1.8-4.8,1.3
				c1.3,4.4,2,8.9,1.8,13.5c-0.2,3.2-0.5,11.6-4.1,12.8C111.4,71.5,112.7,76.3,115.8,75.3L115.8,75.3z"/>
		</g>
	</g>
	<g class="st2">
		<g>
			<path class="st30" d="M109.4,76.8c-4.9,9.5-11.9,17.5-20.7,23.6c-2.6,1.8-0.1,6.1,2.5,4.3c9.6-6.5,17.2-15.1,22.5-25.4
				C115.2,76.5,110.9,73.9,109.4,76.8L109.4,76.8z"/>
		</g>
	</g>
	<g class="st2">
		<g>
			<path class="st30" d="M64.3,73.3c1.1-1.9,2.2-3.7,3.5-5.5c0.5-0.7-0.7-1.4-1.2-0.7c-1.3,1.8-2.4,3.6-3.5,5.5
				C62.6,73.4,63.8,74.1,64.3,73.3L64.3,73.3z"/>
		</g>
	</g>
	<g class="st2">
		<g>
			<path class="st30" d="M70.1,64.5c1.2-1.1,2.2-2.3,3.1-3.6c0.5-0.8-0.7-1.5-1.2-0.7c-0.8,1.3-1.8,2.4-2.9,3.4
				C68.5,64.1,69.5,65.1,70.1,64.5L70.1,64.5z"/>
		</g>
	</g>
	<g class="st2">
		<g>
			<path class="st30" d="M75.7,57c0.4-0.5,0.8-1,1.3-1.5c0.6-0.7-0.4-1.7-1-1c-0.4,0.5-0.8,1-1.3,1.5C74.1,56.7,75.1,57.7,75.7,57
				L75.7,57z"/>
		</g>
	</g>
	<g class="st2">
		<g>
			<path class="st30" d="M78.2,56.2c0.4,1.7,0.9,3.3,1.3,5c0.2,0.9,1.6,0.5,1.4-0.4c-0.4-1.7-0.9-3.3-1.3-5
				C79.3,54.9,78,55.3,78.2,56.2L78.2,56.2z"/>
		</g>
	</g>
	<g class="st2">
		<g>
			<path class="st30" d="M80.5,67.2c0.3,1.6,0.7,3.2,1,4.8c0.2,0.9,1.6,0.5,1.4-0.4c-0.3-1.6-0.7-3.2-1-4.8
				C81.6,65.9,80.3,66.3,80.5,67.2L80.5,67.2z"/>
		</g>
	</g>
	<g class="st2">
		<g>
			<path class="st30" d="M64.1,77.1c0.8,1.3,2.3,2.1,3.8,2.2c0.9,0,0.9-1.4,0-1.4c-1.1,0-2-0.5-2.6-1.5
				C64.8,75.6,63.6,76.3,64.1,77.1L64.1,77.1z"/>
		</g>
	</g>
	<g class="st2">
		<g>
			<path class="st30" d="M73.1,79.2c1.6,0.1,3.2-0.2,4.6-0.9c0.8-0.4,0.1-1.6-0.7-1.2c-1.2,0.6-2.5,0.8-3.9,0.7
				C72.2,77.8,72.2,79.2,73.1,79.2L73.1,79.2z"/>
		</g>
	</g>
	<g class="st2">
		<g>
			<path class="st30" d="M80.7,75.6c0.7-0.4,1.2-1.2,1.1-2.1c-0.1-0.9-1.5-0.9-1.4,0c0,0.4-0.1,0.7-0.4,0.9
				C79.3,74.8,80,76.1,80.7,75.6L80.7,75.6z"/>
		</g>
	</g>
	<g class="st2">
		<g>
			<path class="st30" d="M76.2,71.2c-1.3-0.2-2.7,0-3.9,0.4c-0.9,0.3-0.5,1.7,0.4,1.4c1.2-0.4,2.3-0.5,3.5-0.4
				C77.1,72.8,77,71.3,76.2,71.2L76.2,71.2z"/>
		</g>
	</g>
	<g class="st2">
		<g>
			<path class="st30" d="M66.4,74.3c0.7-0.6,1.6-1,2.5-1.1c0.9-0.1,0.9-1.5,0-1.4c-1.3,0.1-2.5,0.6-3.5,1.5
				C64.7,73.9,65.7,74.9,66.4,74.3L66.4,74.3z"/>
		</g>
	</g>
	<g class="st2">
		<g>
			<path class="st30" d="M115.3,13.6c-2.7,6.5-5.6,13-8.7,19.3c-0.4,0.8,0.8,1.5,1.2,0.7c3.2-6.4,6.1-13,8.9-19.6
				C117.1,13.1,115.7,12.7,115.3,13.6L115.3,13.6z"/>
		</g>
	</g>
	<g class="st2">
		<g>
			<path class="st30" d="M114.4,16.8c-0.6,1.8-1.2,3.5-1.8,5.3c-0.3,0.9,1.1,1.2,1.4,0.4c0.6-1.8,1.2-3.5,1.8-5.3
				C116,16.4,114.7,16,114.4,16.8L114.4,16.8z"/>
		</g>
	</g>
	<g class="st2">
		<g>
			<path class="st30" d="M114.9,17c0,1.8,0,3.5,0,5.3c0,0.9,1.4,0.9,1.4,0c0-1.8,0-3.5,0-5.3C116.3,16.1,114.9,16.1,114.9,17
				L114.9,17z"/>
		</g>
	</g>
	<g class="st2">
		<g>
			<path class="st30" d="M111.6,24c0.1,1.2,0.2,2.3,0.3,3.5c0.1,0.9,1.5,0.9,1.4,0c-0.1-1.2-0.2-2.3-0.3-3.5
				C113,23.1,111.6,23.1,111.6,24L111.6,24z"/>
		</g>
	</g>
	<g class="st2">
		<g>
			<path class="st30" d="M112.6,23.3c-0.2,1.2-0.2,2.4,0,3.6c0.1,0.9,1.5,0.5,1.4-0.4c-0.1-0.9-0.1-1.9,0-2.9
				C114.1,22.8,112.8,22.4,112.6,23.3L112.6,23.3z"/>
		</g>
	</g>
	<g class="st2">
		<g>
			<path class="st30" d="M109.9,28.3c0.1,1,0.2,2,0.3,3c0.1,0.9,1.5,0.9,1.4,0c-0.1-1-0.2-2-0.3-3C111.2,27.4,109.8,27.4,109.9,28.3
				L109.9,28.3z"/>
		</g>
	</g>
	<g class="st2">
		<g>
			<path class="st30" d="M109.1,32c0.9,0,0.9-1.4,0-1.4C108.2,30.6,108.2,32,109.1,32L109.1,32z"/>
		</g>
	</g>
	<g class="st2">
		<g>
			<path class="st30" d="M107.8,34.6c4.4,0.3,8.7,0.2,13.1-0.3c1.5-0.2,6.9,0.1,6.9-2.5c0-2-2.4-1.8-3.7-1.7
				c-5.3,0.5-10.6,1.1-15.9,1.7c-0.9,0.1-0.9,1.5,0,1.4c3-0.3,6.1-0.7,9.1-1c1.3-0.1,8.3-1.7,8.8-0.4c0,0-8.9,1.3-9.8,1.3
				c-2.9,0.2-5.7,0.1-8.6-0.1C106.9,33.1,106.9,34.5,107.8,34.6L107.8,34.6z"/>
		</g>
	</g>
	<g class="st2">
		<g>
			<path class="st30" d="M112.9,30.5c0.2,0.7,0.3,1.3,0.5,2c0.2,0.9,1.6,0.5,1.4-0.4c-0.2-0.7-0.3-1.3-0.5-2
				C114,29.2,112.7,29.6,112.9,30.5L112.9,30.5z"/>
		</g>
	</g>
	<g class="st2">
		<g>
			<path class="st30" d="M114.8,29.2c0.2,0.6,0.3,1.2,0.5,1.8c0.2,0.9,1.6,0.5,1.4-0.4c-0.2-0.6-0.3-1.2-0.5-1.8
				C116,28,114.6,28.4,114.8,29.2L114.8,29.2z"/>
		</g>
	</g>
	<g class="st2">
		<g>
			<path class="st30" d="M116.6,27.7c0.2,1,0.3,2,0.5,3c0.1,0.9,1.5,0.5,1.4-0.4c-0.2-1-0.3-2-0.5-3
				C117.9,26.4,116.5,26.8,116.6,27.7L116.6,27.7z"/>
		</g>
	</g>
	<g class="st2">
		<g>
			<path class="st30" d="M116.5,15.8c1.6,2.4,3.2,4.8,4.7,7.2c1.5,2.3,3.4,4.5,4.2,7.2c0.4-0.2,0.9-0.4,1.3-0.5
				c-3-5.6-6.3-11.1-9.9-16.3c-0.5-0.7-1.7,0-1.2,0.7c3.6,5.2,6.9,10.7,9.9,16.3c0.4,0.7,1.5,0.2,1.3-0.5c-0.7-2.4-2.3-4.4-3.7-6.5
				c-1.8-2.7-3.6-5.5-5.4-8.2C117.2,14.3,116,15,116.5,15.8L116.5,15.8z"/>
		</g>
	</g>
	<g class="st2">
		<g>
			<path class="st30" d="M117.7,19.5c0.2,1.2,0.4,2.3,0.5,3.5c0.1,0.9,1.5,0.5,1.4-0.4c-0.2-1.2-0.4-2.3-0.5-3.5
				C118.9,18.2,117.5,18.6,117.7,19.5L117.7,19.5z"/>
		</g>
	</g>
	<g class="st2">
		<g>
			<path class="st30" d="M120.4,23.8c0,1.3,0,2.5,0,3.8c0,0.9,1.4,0.9,1.4,0c0-1.3,0-2.5,0-3.8C121.8,22.9,120.4,22.9,120.4,23.8
				L120.4,23.8z"/>
		</g>
	</g>
	<g class="st2">
		<g>
			<path class="st30" d="M122.9,27.6c-0.2,0.8-0.5,1.7-0.7,2.5c-0.3,0.9,1.1,1.3,1.4,0.4c0.2-0.8,0.5-1.7,0.7-2.5
				C124.5,27.1,123.2,26.7,122.9,27.6L122.9,27.6z"/>
		</g>
	</g>
	<g class="st2">
		<g>
			<path class="st30" d="M122.8,32.5c0.9,0,0.9-1.4,0-1.4C121.9,31.1,121.9,32.5,122.8,32.5L122.8,32.5z"/>
		</g>
	</g>
	<g class="st2">
		<g>
			<path class="st30" d="M121.3,31c2-0.2,7.5-0.4,6.1-3.7c-0.9-2.1-3.8-4.2-5.4-5.7c-2.1-2.1-4.2-4.2-6.4-6.3c-0.7-0.6-1.7,0.4-1,1
				c2.4,2.4,4.8,4.7,7.2,7.1c1,1,2.3,2,3.1,3.2c0.7,1,1.3,1.5,0,2.4c-0.7,0.5-3.1,0.6-3.6,0.6C120.4,29.6,120.4,31.1,121.3,31
				L121.3,31z"/>
		</g>
	</g>
	<g class="st2">
		<g>
			<path class="st30" d="M66.6,109.7c-0.3,0.2-0.6,0.5-0.9,0.7c-0.3,0.2-0.3,0.8,0,1c2.3,2.1,5.2,3.1,8.3,2.6
				c2.3-0.4,5.1-1.8,5.5-4.4c1-6.6-10.4-6.1-13.1-2.3c-1.4,2,0.3,3.6,2.2,4.3c2.8,1.1,6.2,0.8,8.8-0.7c2.2-1.3,3.8-3.4,2.4-5.9
				c-0.9-1.6-2.7-2.6-3.6-4.3c-1.1-1.9-1.1-4.2-2.4-6c-0.3-0.4-0.7-0.5-1.1-0.1c-2.8,2.5-4.2,6.6-5.6,10c-0.6,1.5-2.4,3.9-0.9,5.3
				c0.3,0.2,0.8,0.3,1,0c2.2-2.8,3.2-5.9,4.5-9.2c0.2-0.5,0.8-2.9,1.4-3.2c1.8-0.6,2.5,2.3,2.9,3.2c0.9,2.1,1.4,4.3,1.8,6.6
				c0.1,0.9,1.5,0.5,1.4-0.4c-0.3-1.9-2.3-12.5-5.7-11.9c-1.4,0.3-2.1,2.8-2.6,3.8c-1.5,3.4-2.4,7-4.7,10c0.3,0,0.7,0,1,0
				c-0.8-0.7,2.3-6.1,2.7-7.1c1-2.2,2-4.5,3.8-6.2c-0.4,0-0.7-0.1-1.1-0.1c1.6,2.1,1.5,5,3.2,7.2c0.6,0.8,1.5,1.4,2,2.2
				c0.5,0.9-0.3,4.2-1.1,4.9c-0.9,0.7-2.7,1.1-3.8,1.2c-0.9,0.1-1.9,0-2.7-0.2c-0.6-0.2-1.1-0.4-1.7-0.6c0.1-0.9,0.1-1.7,0.2-2.6
				c0.8-1,4.4-1.5,5.6-1.5c0.7,0.2,1.5,0.4,2.2,0.6c-0.1,1.8-0.3,3.5-0.4,5.3c-0.7,0.7-2.6,0.9-3.6,0.9c-2.2,0-4.1-0.8-5.7-2.3
				c0,0.3,0,0.7,0,1c0.3-0.2,0.6-0.5,0.9-0.7C68.3,110.1,67.3,109.1,66.6,109.7L66.6,109.7z"/>
		</g>
	</g>
	<g class="st2">
		<g>
			<path class="st30" d="M110.3,102.9c2-3.4,3.9-6.8,5.9-10.2c-0.4-0.2-0.8-0.5-1.2-0.7c-1.4,3.3-2.9,6.5-4.5,9.7
				c0.4,0.2,0.8,0.5,1.2,0.7c1.5-3.1,3.1-6.1,4.9-9c-0.4-0.2-0.9-0.4-1.3-0.5c-0.8,2.1-1.6,4.3-2.5,6.4c0.5,0.1,0.9,0.3,1.4,0.4
				c1-3.1,2.4-6,4-8.7c-0.4-0.2-0.9-0.4-1.3-0.5c-0.6,3.2-1.4,6.5-2.3,9.6c0.5,0.1,0.9,0.3,1.4,0.4c0.6-2.8,1.3-5.7,1.9-8.5
				c0.2-0.7-0.9-1.3-1.3-0.5c-1,2.3-2.2,4.6-3.4,6.8c0.4,0.2,0.9,0.4,1.3,0.5c0.7-2.6,1.4-5.2,2.2-7.8c-0.5-0.1-0.9-0.3-1.4-0.4
				c-1,3.7-2.3,7.2-3.9,10.6c-0.4,0.8,0.8,1.5,1.2,0.7c1.4-2.5,2.6-5,3.6-7.6c0.3-0.9-1-1.2-1.4-0.4c-1.5,3.7-2.5,7.5-3,11.4
				c-0.1,0.7,1,1,1.3,0.4c1.9-4.4,3.4-9.1,4.8-13.7c-0.5-0.1-0.9-0.3-1.4-0.4c-0.9,3.2-1.8,6.5-2.7,9.7c-0.2,0.9,1.1,1.2,1.4,0.4
				c1-3.4,1.9-6.8,2.5-10.3c-0.5-0.1-0.9-0.3-1.4-0.4c-0.5,2.8-0.9,5.7-1.1,8.5c-0.1,0.8,1.2,1,1.4,0.2c0.8-3.2,1.7-6.4,2.5-9.6
				c-0.5-0.1-0.9-0.1-1.4-0.2c-0.2,3-0.4,6.1-0.5,9.1c-0.1,0.9,1.4,0.9,1.4,0c0.2-2.7,0.4-5.3,0.6-8c-0.5,0-0.9,0-1.4,0
				c0.3,3.1,0.3,6.2,0.3,9.3c0.5,0,0.9,0,1.4,0c-0.1-3-0.2-6-0.5-9c-0.1-0.9-1.4-0.9-1.4,0c0,1.9,0,3.8,0,5.6
				c0.5-0.1,0.9-0.1,1.4-0.2c-0.9-2.5-1.7-4.9-0.9-7.6c-0.5,0-0.9,0-1.4,0c0.8,4.4,1.6,8.9,2.4,13.3c0.5-0.1,0.9-0.3,1.4-0.4
				c-0.6-3.2-1.3-6.4-1.9-9.6c-0.2-0.8-1.4-0.6-1.4,0.2c0,3.4-0.2,6.8-0.6,10.1c0.4-0.1,0.9-0.2,1.3-0.4c-0.7-0.9-1-2-1-3.2
				c-0.1-0.9-1.3-0.9-1.4,0c0,0.2-0.5,4-0.5,4c0,0.5,0,0.9,0,1.4c1.5-0.6,3-0.4,4.4,0.6c0.2-0.4,0.4-0.9,0.5-1.3
				c-1.5-0.6-3-1.1-4.5-1.7c0.1,0.4,0.1,0.9,0.2,1.3c1.2-0.7,2.4-0.9,3.7-0.6c-0.1-0.5-0.1-0.9-0.2-1.4c-1.7,0.5-3.3,0.6-5,0.5
				c0,0.5,0,0.9,0,1.4c2.9-0.4,5.3,0.1,7.8,1.6c0.2-0.4,0.4-0.9,0.5-1.3c-1.6-0.4-2.4-4.4-2.7-5.9c-0.5-2.3-0.6-4.6-0.5-6.9
				c-0.5,0.1-0.9,0.1-1.4,0.2c0.6,4.1,1.2,8.1,1.9,12.2c0.1,0.8,1.4,0.6,1.4-0.2c-0.1-2.9-1.7-5.5-1.5-8.4c-0.4,0.1-0.9,0.2-1.3,0.4
				c1.3,2.6,2.3,5.2,3,8c0.4-0.2,0.9-0.4,1.3-0.5c-2.4-3.2-2.5-7.1-2.5-11c0-0.9-1.3-0.9-1.4,0c-0.3,3.8,0.1,7.4,1.2,11
				c0.4-0.2,0.9-0.4,1.3-0.5c-2-3.6-2.7-7.4-2.1-11.5c0.2-1.1,0.9-2.5-0.1-3.4c-2.7-2.6-4.5,4.6-4.7,5.9c-0.2,0.9,1.2,1.3,1.4,0.4
				c0.2-1.1,0.3-2.3,0.9-3.2c0.6-1,1-1.6,1.3-0.6c0.3,0.8-0.5,3.8-0.4,4.7c0.1,3,1,5.8,2.5,8.4c0.4,0.7,1.5,0.2,1.3-0.5
				c-1.1-3.5-1.5-7-1.2-10.6c-0.5,0-0.9,0-1.4,0c0,4.2,0.1,8.2,2.7,11.7c0.5,0.6,1.5,0.3,1.3-0.5c-0.7-2.9-1.8-5.7-3.1-8.3
				c-0.3-0.7-1.3-0.3-1.3,0.4c-0.1,2.9,1.5,5.4,1.5,8.4c0.5-0.1,0.9-0.1,1.4-0.2c-0.7-4-1.4-8.1-1.9-12.2c-0.1-0.8-1.4-0.6-1.4,0.2
				c-0.1,3.2,0.2,6.4,1.2,9.5c0.6,1.7,1.1,4.2,3.1,4.7c0.8,0.2,1.3-0.9,0.5-1.3c-2.7-1.6-5.4-2.2-8.5-1.8c-0.9,0.1-0.9,1.3,0,1.4
				c1.9,0.2,3.5,0,5.4-0.5c0.8-0.2,0.6-1.3-0.2-1.4c-1.7-0.1-2.9,0.1-4.4,0.8c-0.6,0.3-0.3,1.1,0.2,1.3c1.5,0.6,3,1.1,4.5,1.7
				c0.8,0.3,1.2-0.9,0.5-1.3c-1.8-1.1-3.5-1.3-5.5-0.7c-0.7,0.2-0.6,1.1,0,1.4c2.5,0.9,2.2-4.2,2.3-5.3c-0.5,0-0.9,0-1.4,0
				c0.1,1.5,0.4,2.6,1.2,3.9c0.4,0.6,1.2,0.3,1.3-0.4c0.4-3.4,0.6-6.8,0.6-10.1c-0.5,0.1-0.9,0.1-1.4,0.2c0.6,3.2,1.3,6.4,1.9,9.6
				c0.2,0.9,1.5,0.5,1.4-0.4c-0.8-4.4-1.6-8.9-2.4-13.3c-0.1-0.7-1.2-0.6-1.4,0c-0.9,2.9-0.2,5.5,0.9,8.3c0.3,0.7,1.4,0.7,1.4-0.2
				c0-1.9,0-3.8,0-5.6c-0.5,0-0.9,0-1.4,0c0.3,3,0.4,6,0.5,9c0,0.9,1.4,0.9,1.4,0c0.1-3.1,0-6.2-0.3-9.3c-0.1-0.9-1.4-0.9-1.4,0
				c-0.2,2.7-0.4,5.3-0.6,8c0.5,0,0.9,0,1.4,0c0.2-3,0.4-6.1,0.5-9.1c0-0.8-1.2-1-1.4-0.2c-0.8,3.2-1.7,6.4-2.5,9.6
				c0.5,0.1,0.9,0.1,1.4,0.2c0.2-2.7,0.6-5.5,1.1-8.2c0.2-0.9-1.2-1.3-1.4-0.4c-0.6,3.5-1.5,6.9-2.5,10.3c0.5,0.1,0.9,0.3,1.4,0.4
				c0.9-3.2,1.8-6.5,2.7-9.7c0.2-0.9-1.1-1.2-1.4-0.4c-1.4,4.5-2.7,9-4.6,13.4c0.4,0.1,0.9,0.2,1.3,0.4c0.5-3.9,1.4-7.5,2.9-11.1
				c-0.5-0.1-0.9-0.3-1.4-0.4c-1,2.5-2.1,4.9-3.4,7.3c0.4,0.2,0.8,0.5,1.2,0.7c1.7-3.5,3-7.2,4-11c0.2-0.9-1.1-1.3-1.4-0.4
				c-0.7,2.6-1.4,5.2-2.2,7.8c-0.2,0.8,0.9,1.3,1.3,0.5c1.2-2.2,2.3-4.5,3.4-6.8c-0.4-0.2-0.9-0.4-1.3-0.5c-0.6,2.8-1.3,5.7-1.9,8.5
				c-0.2,0.9,1.1,1.3,1.4,0.4c0.9-3.2,1.7-6.4,2.3-9.6c0.2-0.8-0.9-1.3-1.3-0.5c-1.7,2.9-3.1,5.9-4.2,9.1c-0.3,0.9,1,1.2,1.4,0.4
				c0.8-2.1,1.6-4.3,2.5-6.4c0.3-0.8-0.9-1.2-1.3-0.5c-1.8,2.9-3.5,5.9-4.9,9c-0.4,0.8,0.8,1.5,1.2,0.7c1.6-3.2,3.1-6.4,4.5-9.7
				c0.3-0.8-0.8-1.5-1.2-0.7c-2,3.4-3.9,6.8-5.9,10.2C108.6,102.9,109.8,103.7,110.3,102.9L110.3,102.9z"/>
		</g>
	</g>
	<g class="st2">
		<g>
			<path class="st30" d="M114.6,94.7c-1.6,2.9-3.3,5.8-4.9,8.7c-0.4,0.6,0.3,1.3,1,1c1.7-0.9,3.6-1.2,5.5-1c0.9,0.1,1.3-1.2,0.4-1.4
				c-2.3-0.3-4.5,0-6.6,1.1c0.3,0.3,0.6,0.6,1,1c1.6-2.9,3.3-5.8,4.9-8.7C116.3,94.6,115.1,93.9,114.6,94.7L114.6,94.7z"/>
		</g>
	</g>
	<g class="st2">
		<g>
			<path class="st30" d="M118.4,90.1c1.3,5.3,3,10.5,5.3,15.5c0.4,0.8,1.6,0.1,1.2-0.7c-2.2-4.9-3.9-9.9-5.2-15.2
				C119.6,88.9,118.2,89.2,118.4,90.1L118.4,90.1z"/>
		</g>
	</g>
	<g class="st2">
		<g>
			<path class="st30" d="M90.4,4.5c-0.2,1.8-0.6,3.5-1.2,5.3c0.5,0.1,0.9,0.3,1.4,0.4c0.4-2,0.8-4,1.1-5.9c-0.3,0.1-0.7,0.3-1,0.4
				c1.1,0.8,2,1.7,2.9,2.7c0-0.3,0-0.7,0-1c-1.1,0.9-2.2,1.7-3.3,2.5c-0.7,0.5,0,1.7,0.7,1.2c1.3-0.9,2.5-1.8,3.6-2.7
				c0.3-0.3,0.2-0.7,0-1c-0.9-1.1-2-2.1-3.2-2.9c-0.4-0.3-1,0-1,0.4c-0.4,2-0.8,4-1.1,5.9c-0.2,0.9,1.1,1.3,1.4,0.4
				c0.5-1.7,0.9-3.5,1.2-5.3C91.9,4,90.5,3.6,90.4,4.5L90.4,4.5z"/>
		</g>
	</g>
	<g class="st2">
		<g>
			<path class="st30" d="M93.6,10.2c0.9,0,0.9-1.4,0-1.4C92.7,8.8,92.7,10.2,93.6,10.2L93.6,10.2z"/>
		</g>
	</g>
	<g class="st2">
		<g>
			<path class="st30" d="M124.1-6.8c-6,0.6-11.9,1.3-17.8,2.4c-1.9,0.3-6.7,0.2-6.5,3.1c0,0.2,0.1,0.5,0.4,0.6
				c4.1,2,11.4,0,15.8-0.5c4.6-0.5,10.1-0.6,13.8-3.6c0.4-0.3,0.2-1.1-0.3-1.2c-4.1-0.8-8.1-0.9-12.2-0.2c-0.9,0.1-0.5,1.5,0.4,1.4
				c3.9-0.6,7.6-0.6,11.5,0.2c-0.1-0.4-0.2-0.8-0.3-1.2C125.3-3,119.1-3,115-2.5c-3.5,0.4-8,1.5-11.4,1c-2.9-0.4-0.3-0.9,1.2-1.2
				c1.8-0.4,3.7-0.7,5.5-1c4.6-0.7,9.2-1.3,13.8-1.7C125-5.4,125.1-6.8,124.1-6.8L124.1-6.8z"/>
		</g>
	</g>
	<g class="st2">
		<g>
			<path class="st30" d="M78.1,52.9c0.9,0,0.9-1.4,0-1.4C77.2,51.5,77.2,52.9,78.1,52.9L78.1,52.9z"/>
		</g>
	</g>
	<g class="st2">
		<g>
			<path class="st30" d="M73.8,59.8c1.3,2.9,5.2,2.9,6.6,0.2c0.4-0.8-0.8-1.5-1.2-0.7c-1,1.8-3.4,1.6-4.2-0.2
				C74.7,58.3,73.5,59,73.8,59.8L73.8,59.8z"/>
		</g>
	</g>
	<g class="st2">
		<g>
			<path class="st30" d="M71.1,64.4c2.4,3.3,7,3.2,9.3-0.2c0.5-0.8-0.7-1.5-1.2-0.7c-1.7,2.5-5.1,2.6-6.8,0.2
				C71.8,63,70.6,63.7,71.1,64.4L71.1,64.4z"/>
		</g>
	</g>
	<g class="st2">
		<g>
			<path class="st30" d="M67.1,69.3c2.3,5.3,10.7,2.2,14.2,0c0.8-0.5,0.1-1.7-0.7-1.2c-2.7,1.7-10.3,4.9-12.2,0.5
				C68,67.8,66.7,68.5,67.1,69.3L67.1,69.3z"/>
		</g>
	</g>
	<g class="st2">
		<g>
			<path class="st30" d="M64.3,72.6c2.7,5.5,12.5,5.4,16.1,0.9c0.6-0.7-0.4-1.7-1-1c-3,3.7-11.6,4-13.9-0.6
				C65.1,71.1,63.9,71.8,64.3,72.6L64.3,72.6z"/>
		</g>
	</g>
</g>
<g id="Layer_7">
	<g>
		<g>
			<g>
				<g>
					<path class="st30" d="M44,77.6c2.9,1.9,5.8,3.1,9.1,4c0.2-1.6,0.4-3.3,0.7-4.9c-5.7,0.2-11-2.6-13.7-7.7
						c-3.9-7.3,2.4-12.3,8.3-15.7c10.5-5.9,23.1-8,34.6-11c3.2-0.8,1.8-5.3-1.3-4.8c-18.8,3-35.9,12.4-48.6,26.6
						c1.2,1.2,2.4,2.4,3.5,3.5c11.5-14.3,29.8-18,47-21.2c-0.4-1.6-0.9-3.2-1.3-4.8c-7.8,2.1-15.7,4.3-23.5,6.4
						c-2.6,0.7-2.2,5.2,0.7,4.9c6.7-0.7,13.3-1.5,20-2.2c3.2-0.4,3.2-5.4,0-5c-6.7,0.7-13.3,1.5-20,2.2c0.2,1.6,0.4,3.3,0.7,4.9
						c7.8-2.1,15.7-4.3,23.5-6.4c3.1-0.9,1.8-5.4-1.3-4.8c-18,3.4-37.1,7.6-49.2,22.5c-2,2.5,1.4,6,3.5,3.5
						C48.7,54,64.9,45.1,82.9,42.3c-0.4-1.6-0.9-3.2-1.3-4.8c-9.1,2.3-18.4,4.3-27.1,7.6c-6.6,2.4-14.1,5.9-18.3,11.8
						C27.7,68.6,42,82.1,53.8,81.6c2.7-0.1,3.5-4.2,0.7-4.9c-2.9-0.7-5.4-1.9-7.9-3.5C43.8,71.5,41.3,75.8,44,77.6L44,77.6z"/>
				</g>
			</g>
			<g>
				<g>
					<path class="st30" d="M76.8,42c-8.3,0.7-16.4,2.5-24.1,5.6c-6.3,2.6-13.4,5.7-18,11c-3.3,3.9-4.9,9.5-2.7,14.3
						c3.2,6.8,10.3,5,16,7.8c0.2-1.5,0.4-3,0.6-4.6c-3.7,0.7-6.9,0-10.1-2c-2.2-1.4-4.6,1.3-3.4,3.4c3.6,6.4,10.6,6.9,17.1,5.1
						c2.3-0.7,2.4-4.2,0-4.8c-6.4-1.7-19.7-5.9-15.5-15.3c1.3-2.9-3-5.5-4.3-2.5c-5.8,13,8.2,20,18.5,22.7c0-1.6,0-3.2,0-4.8
						c-4.2,1.2-9,1.6-11.4-2.8c-1.1,1.1-2.3,2.3-3.4,3.4c4.3,2.8,8.9,3.5,13.9,2.5c2-0.4,2.5-3.6,0.6-4.6c-3.8-1.8-9.7-1.2-12.7-4
						c-5.5-5.2,1.6-12,6.1-14.8C53.8,51.4,65.3,48,76.8,47C80,46.7,80,41.7,76.8,42L76.8,42z"/>
				</g>
			</g>
			<g>
				<g>
					<path class="st30" d="M71.3,83.5c8.7-1.9,17.1-4.6,25.2-8.3c5.3-2.4,11.1-5.6,12.2-11.8c1.1-6-2.7-11.7-7.8-14.5
						C93.8,45,85.3,46.2,77.5,46c-3.2-0.1-3.2,4.9,0,5c6.4,0.3,13.2,0.6,18.4,4.8c1.1,0.9,3,2.5,3.5,3.8c1,2.9-0.1,5.2-2.2,6.9
						c-2.6,2-5.2,3.9-7.9,5.9c-1.5,1.1-1.8,4.2,0.6,4.6c4.7,0.6,8.6-3,11.7-6.2c3.2-3.4,5.7-8,4.6-12.8c-2.3-10.6-17.3-13.5-26.1-15
						c0,1.6,0,3.2,0,4.8c5.6-1.9,18.5-2.1,19.7,6c1.4-0.8,2.8-1.6,4.2-2.4c-5.9-6.5-12.1-12.5-21.2-13.5c-2.5-0.3-3.4,3.6-1.3,4.7
						c4.1,2.1,8.3,3,12.9,2.4c2.6-0.3,3.6-4.1,0.7-4.9c-4.9-1.4-9.7-1.9-14.8-1.4c-3.2,0.3-3.2,5.3,0,5c4.7-0.4,8.9-0.1,13.4,1.2
						c0.2-1.6,0.4-3.3,0.7-4.9c-3.8,0.4-7,0-10.4-1.7c-0.4,1.6-0.8,3.1-1.3,4.7c7.5,0.8,12.9,6.7,17.6,12c1.9,2,4.5-0.2,4.2-2.4
						C103,41.5,87,40.2,78.8,43c-2.1,0.7-2.6,4.4,0,4.8c6.3,1.1,13.7,2.5,18.9,6.4c3.6,2.6,4.7,6.6,2.3,10.6
						c-1.2,1.9-6.3,7.8-8.8,7.5c0.2,1.5,0.4,3,0.6,4.6c6.7-5,17.8-10.6,11.5-20.3C97.5,47.7,87.1,46.4,77.5,46c0,1.7,0,3.3,0,5
						c5.6,0.1,11.5-0.6,17,0.8c6.3,1.7,13.1,8.7,7,14.7c-3.7,3.6-9.9,5.6-14.6,7.3c-5.5,2-11.1,3.6-16.9,4.9
						C66.8,79.4,68.1,84.2,71.3,83.5L71.3,83.5z"/>
				</g>
			</g>
			<g>
				<g>
					<path class="st30" d="M70.4,45c1.1-7.2,1.6-14.3,1.6-21.6c-1.7,0-3.3,0-5,0c0.9,6.9,1.2,13.9,1,20.9c1.7,0,3.3,0,5,0
						c-0.8-7.5-1-14.9-0.8-22.4c0.1-3.3-4.7-3.2-5,0c-0.6,7.3-1.5,17-9.3,20.3c-4.4,1.9-8.9,1.2-12,5.5c-1.2,1.6,0.4,3.7,2.2,3.8
						c4.6,0.1,8.6-1.3,12.7-3.2c4.4-2,10.3-3.9,14.1-6.9c2.1-1.7,1.9-3.5,1.2-5.8c-0.9-3-1.9-5.2-2-8.4c-0.1-1.2-0.6-6.9,0.5-7.8
						c-1.4-0.4-2.8-0.7-4.2-1.1c1.2,7.1,1.5,14.3,1.1,21.5c-0.2,2.8,4.4,3.5,4.9,0.7c2-11.1-3.4-21.2-3.5-32.2
						c0-2.7-4.5-3.6-4.9-0.7c-0.9,6.7-1.9,13.5-1.5,20.2c0.2,3.6,0.2,11.7,4,13.8c3.2,1.8,5.3-1.2,5.6-4c0.4-3.6-0.4-7.3-0.2-10.9
						c0.1-1,0.2-1.9,0.4-2.9c0.2-1.7,1-2.3,2.3-1.8c0.8-0.3,2.1-0.1,3.1-0.4c2.5-0.8,2.3-5.2-0.7-4.9c-2,0.2-4,0.4-6.1,0.6
						c-3.1,0.3-3.3,5.2,0,5c2.9-0.2,5.8-0.2,8.6-0.2c-0.8-1.1-1.6-2.1-2.4-3.2c-2.8,7.4-4.5,15.1-5.1,23c1.7,0,3.3,0,5,0
						c-0.2-6.8,0.1-13.5,1-20.3c0.3-2.8-4.2-3.4-4.9-0.7c-1.1,4.5-2.2,9-3.3,13.5c1.6,0,3.2,0,4.8,0c-0.7-4-0.2-7.7,1.7-11.3
						c-1.6-0.4-3.1-0.8-4.7-1.3c0.2,3.1,0.2,6.2-0.3,9.3c1.6,0.2,3.3,0.4,4.9,0.7c0.2-1.8,0.9-3.3,2.3-4.4c-1.4-0.4-2.8-0.7-4.2-1.1
						c0.9,4.8,1.2,9.5,1.1,14.3c-0.1,2.7,4.4,3.5,4.9,0.7c1-6,1.9-11.9,2.6-17.9c-1.7,0-3.3,0-5,0c-0.3,5.6-0.6,11.1-0.9,16.7
						c-0.2,3.2,4.7,3.2,5,0c0.5-5.5,1.6-10.8,3.2-16.1c-1.6-0.2-3.3-0.4-4.9-0.7c0.5,5.1,0.9,10.1,1.4,15.2c0.2,2.5,3.2,3.3,4.7,1.3
						c1.2-1.6,1.6-3,1.6-5c0.1-2.8-4.4-3.5-4.9-0.7c-0.3,1.7-0.7,3.5-1,5.2c-0.6,3.1,4.2,4.5,4.8,1.3c2.2-10.4-0.3-21.2,2.5-31.4
						c-1.6-0.2-3.3-0.4-4.9-0.7c0.3,11.4,0.1,22.9-0.7,34.3c1.7,0,3.3,0,5,0c-0.7-12.2-0.3-24.3,1.4-36.4c-1.6-0.2-3.3-0.4-4.9-0.7
						c0.1,12.6,0.3,25.2,0.4,37.8c0,3.2,5,3.2,5,0C94.7,31,94.6,18.4,94.4,5.8c0-2.7-4.5-3.5-4.9-0.7c-1.8,12.5-2.3,25.1-1.6,37.7
						c0.2,3.2,4.8,3.2,5,0c0.7-11.4,0.9-22.8,0.7-34.3c-0.1-2.8-4.2-3.4-4.9-0.7c-2.8,10.3-0.3,21-2.5,31.4c1.6,0.4,3.2,0.9,4.8,1.3
						c0.3-1.7,0.7-3.5,1-5.2c-1.6-0.2-3.3-0.4-4.9-0.7c-0.3,0.8-0.6,1.7-1,2.5c1.6,0.4,3.1,0.8,4.7,1.3c-0.5-5.1-0.9-10.1-1.4-15.2
						c-0.3-2.7-4-3.5-4.9-0.7c-1.8,5.7-2.9,11.4-3.4,17.4c1.7,0,3.3,0,5,0c0.3-5.6,0.6-11.1,0.9-16.7c0.2-3.3-4.6-3.1-5,0
						c-0.7,5.6-1.5,11.1-2.5,16.6c1.6,0.2,3.3,0.4,4.9,0.7c0.1-5.3-0.3-10.5-1.3-15.6c-0.4-1.9-2.9-2.3-4.2-1.1
						c-2.3,2.3-3.4,4.7-3.8,7.9c-0.3,2.8,4.5,3.5,4.9,0.7c0.5-3.6,0.7-7,0.5-10.7c-0.1-2.3-3.5-3.6-4.7-1.3
						c-2.5,4.9-3.2,9.8-2.2,15.2c0.4,2.5,4.3,2.3,4.8,0c1.1-4.5,2.2-9,3.3-13.5c-1.6-0.2-3.3-0.4-4.9-0.7c-0.8,6.8-1.1,13.5-1,20.3
						c0.1,3.2,4.8,3.2,5,0c0.5-7.5,2.2-14.6,4.9-21.6c0.6-1.6-0.9-3.1-2.4-3.2c-2.9-0.1-5.8,0-8.6,0.2c0,1.7,0,3.3,0,5
						c2-0.2,4-0.4,6.1-0.6c-0.2-1.6-0.4-3.3-0.7-4.9c-3.7,1.2-6.6-0.7-8.4,3.9c-0.8,2.1-1,4.6-1.1,6.8c-0.1,1.8,1.2,9,0,10.3
						c0.8-0.2,1.6-0.4,2.4-0.6c-2-0.4-1.8-11.9-1.8-14c0.1-4.8,0.7-9.5,1.4-14.3c-1.6-0.2-3.3-0.4-4.9-0.7
						c0.2,10.4,5.6,20.5,3.7,30.8c1.6,0.2,3.3,0.4,4.9,0.7c0.5-7.7,0-15.3-1.2-22.8c-0.3-2-2.9-2.2-4.2-1.1c-2.2,1.9-1.9,5.4-2,8.1
						c-0.1,3.9,0.1,7.9,1.5,11.5c1.1,2.9,1.2,0.9-0.7,2.8c-1.5,1.4-4.8,2.3-6.7,3.2c-4.8,2.3-9.5,5-15,4.9c0.7,1.3,1.4,2.5,2.2,3.8
						c1.9-2.5,6.7-2.2,9.3-3.2c2.7-1.1,4.9-2.9,6.7-5.1c4.6-5.6,5.3-13,5.9-20c-1.7,0-3.3,0-5,0c-0.2,7.5,0,14.9,0.8,22.4
						c0.3,3.1,4.9,3.3,5,0c0.2-7-0.2-13.9-1-20.9c-0.4-3.1-5-3.3-5,0c0,6.8-0.4,13.5-1.4,20.2C65.1,46.8,69.9,48.2,70.4,45L70.4,45z
						"/>
				</g>
			</g>
			<g>
				<g>
					<path class="st31" d="M71.5,29.3c1.8-1.4,4.8-4.3,7.1-4.7c2.6-0.5,6.2,3.8,8,5.3c0.7,0.6,1.7-0.4,1-1c-1.8-1.5-3.6-2.9-5.4-4.4
						c-0.6-0.5-1.7-1.8-2.6-1.9c-1.1-0.1-2.7,1.3-3.6,1.8c-1.8,1.1-3.6,2.3-5.3,3.6C70.1,28.6,70.8,29.9,71.5,29.3L71.5,29.3z"/>
				</g>
			</g>
			<g>
				<g>
					<path class="st31" d="M77,28c0.1,0.2,0.2,0.3,0.3,0.5c0.5,0.8,1.7,0,1.2-0.7c-0.1-0.2-0.2-0.3-0.3-0.5
						C77.7,26.5,76.5,27.2,77,28L77,28z"/>
				</g>
			</g>
			<g>
				<g>
					<path class="st31" d="M72.2,29.2c1.4,2.5,4.1,3.6,6.9,3.2c2.7-0.4,5.7-2.1,5.9-5.1c0.1-0.9-1.4-0.9-1.4,0
						c-0.1,2.4-3.1,3.7-5.1,3.8c-2.1,0.1-3.9-0.7-5-2.6C73,27.7,71.8,28.4,72.2,29.2L72.2,29.2z"/>
				</g>
			</g>
			<g>
				<g>
					<path class="st31" d="M78.1,28c0.9,0,0.9-1.4,0-1.4C77.2,26.6,77.2,28,78.1,28L78.1,28z"/>
				</g>
			</g>
			<g>
				<g>
					<path class="st31" d="M68,23.5c-0.4,5.1-0.7,10.1-1.1,15.2c0,0.6,0.8,1,1.2,0.5c0.9-1,2-3,3.1-3.7c0.6-0.4,0.2,0,0.2,0.8
						c0.1,0.8,0.5,1.7,0.7,2.4c0.2,0.6,1,0.7,1.3,0.2c1-1.6,2-3.1,3-4.7c0.5-0.8-0.7-1.5-1.2-0.7c-1,1.6-2,3.1-3,4.7
						c0.4,0.1,0.9,0.1,1.3,0.2c-0.4-1.4-0.6-3.2-1.4-4.4c-0.2-0.3-0.5-0.4-0.8-0.3c-1.5,0.2-3.3,3.4-4.2,4.5
						c0.4,0.2,0.8,0.3,1.2,0.5c0.4-5.1,0.7-10.1,1.1-15.2C69.4,22.6,68,22.6,68,23.5L68,23.5z"/>
				</g>
			</g>
			<g>
				<g>
					<path class="st31" d="M76.5,34.9c0.8,0.6,1.6,1.1,2.4,1.7c0.1,0.5,0.8,0.7,1.2,0.3c0.6-0.6,1.2-1.1,1.8-1.7
						c1.7,0.1,2.4,0.7,2,1.9c0,0.6,0.8,0.9,1.2,0.5c0.8-0.9,1.3-1.7,1.8-2.8c-0.4,0-0.8,0-1.2,0c1.2,1.7,2,3.3,2.2,5.4
						c0.1,0.4,0.4,0.9,0.9,0.7c2-0.8,2.6-2.3,2.8-4.5c0.4-4,0.5-8.1,0.7-12.1c0.1-0.9-1.4-0.9-1.4,0c-0.1,2.3-0.3,4.7-0.4,7
						c-0.1,2.1,0.4,7.2-2,8.2c0.3,0.2,0.6,0.5,0.9,0.7c-0.3-2.3-1-4.2-2.4-6.1c-0.3-0.4-1-0.5-1.2,0c-0.3,1-0.9,1.8-1.6,2.5
						c0.4,0.2,0.8,0.3,1.2,0.5c0.1-1.6-0.2-3.4-1.9-3.9c-1.9-0.6-3.2,1.6-4.4,2.7c0.4,0.1,0.8,0.2,1.2,0.3c-0.5-2.1-2.1-3.1-4.2-2.7
						C75.2,33.7,75.6,35,76.5,34.9L76.5,34.9z"/>
				</g>
			</g>
			<g>
				<g>
					<path class="st30" d="M40.3,69.5c1.1,4.7,5.3,6.5,9.7,7.1c0.7,0.1,1.3-0.9,0.5-1.3c-4.9-2.6-14-7.6-10.8-14.6
						c-0.4-0.1-0.9-0.2-1.3-0.4c0.6,4.8,1.1,9.5,5.2,12.5c1.7,1.3,3.6,2.2,5.6,2.8c2.5,0.7,5.2,0.5,7.6,1.4c0-0.5,0-0.9,0-1.4
						c-1.3,0-2.5,0.1-3.8,0.1c-0.1,0.5-0.1,0.9-0.2,1.4c1.2,0.1,2.4,0.2,3.6,0.3c0.9,0.1,0.9-1.3,0-1.4c-0.6-0.1-1.2-0.1-1.8-0.2
						c-0.8-0.1-1,1.2-0.2,1.4c1.4,0.3,1.1,0.3,2.5,0.3c0.8,0,1-1.2,0.2-1.4C55.9,76,56,76,54.7,75.9c-0.9-0.1-0.9,1.3,0,1.4
						c1.4,0.1,2.6,0.2,4,0.2c0.8,0,1-1.3,0.2-1.4c-0.5-0.1-1-0.1-1.5-0.2c-0.9-0.1-1.3,1.2-0.4,1.4c0.5,0.1,1,0.1,1.5,0.2
						c0.1-0.5,0.1-0.9,0.2-1.4c-1.4,0-2.6-0.1-4-0.2c0,0.5,0,0.9,0,1.4c0.7,0.1,1.4,0.2,2.1,0.4c0.1-0.5,0.1-0.9,0.2-1.4
						c-0.7-0.1-1.4-0.2-2.1-0.2c-0.1,0.5-0.1,0.9-0.2,1.4c0.6,0.1,1.2,0.1,1.8,0.2c0-0.5,0-0.9,0-1.4c-1.2-0.1-2.4-0.2-3.6-0.3
						c-0.8-0.1-1,1.3-0.2,1.4c1.6,0.3,2.9,0.2,4.5-0.1c0.7-0.2,0.6-1.1,0-1.4c-3.5-1.3-7.3-0.8-10.7-2.7c-5.1-2.8-6-7.3-6.6-12.7
						c-0.1-0.6-1-1.1-1.3-0.4c-3.7,7.9,5.5,13.4,11.3,16.5c0.2-0.4,0.4-0.9,0.5-1.3c-3.8-0.6-7.7-1.9-8.7-6.1
						C41.4,68.2,40,68.6,40.3,69.5L40.3,69.5z"/>
				</g>
			</g>
			<g>
				<g>
					<path class="st30" d="M73.3,77.2c-2.1-0.1-4.2-0.2-6.3-0.2c0,0.5,0,0.9,0,1.4c13.5-0.6,26.6-4.7,35.8-15c0.6-0.7-0.3-1.6-1-1
						c-10.7,9.4-24.3,14.2-38.5,13.7c-0.8,0-1,1.3-0.2,1.4c1.5,0.2,1.3,0.2,2.8,0.2c0.9,0,0.9-1.3,0-1.4c-1.2-0.1-2.4-0.2-3.6-0.3
						c0,0.5,0,0.9,0,1.4c2.3-0.1,4.5,0,6.8,0.2c-0.1-0.5-0.1-0.9-0.2-1.4c-2,0.4-3.6,0.4-5.6,0.3c-0.8-0.1-1,1.2-0.2,1.4
						c1.9,0.4,3.8,0.8,5.7,1.1c0.1-0.5,0.1-0.9,0.2-1.4c-1.7,0.2-3.4,0-5-0.6c-0.1,0.5-0.1,0.9-0.2,1.4c1.6,0.1,3.2,0.2,4.8,0.3
						c0.8,0.1,0.9-1.2,0.2-1.4c-1.9-0.6-3.8-1.1-5.7-1.5c-0.8-0.2-1.2,0.8-0.5,1.3c2,1.3,4.1,2.3,6.3,3.1c0.9,0.3,1.2-1.1,0.4-1.4
						c-2.3-0.8-4-1.6-6-2.9c-0.2,0.4-0.4,0.9-0.5,1.3c1.9,0.4,3.8,0.9,5.7,1.5c0.1-0.5,0.1-0.9,0.2-1.4c-1.6-0.1-3.2-0.2-4.8-0.3
						c-0.8-0.1-0.9,1.2-0.2,1.4c1.9,0.5,3.4,0.7,5.4,0.7c0.8,0,1-1.2,0.2-1.4c-1.9-0.4-3.8-0.8-5.7-1.1c-0.1,0.5-0.1,0.9-0.2,1.4
						c2.1,0.2,4,0,6-0.3c0.8-0.2,0.5-1.3-0.2-1.4c-2.3-0.2-4.5-0.3-6.8-0.2c-0.9,0-0.9,1.3,0,1.4c1.2,0.1,2.4,0.2,3.6,0.3
						c0-0.5,0-0.9,0-1.4c-0.8,0-1.6-0.1-2.4-0.1c-0.1,0.5-0.1,0.9-0.2,1.4C77.9,78,91.8,73,102.8,63.4c-0.3-0.3-0.7-0.7-1-1
						C92.9,72.5,80.1,76.4,67,77c-0.9,0-0.9,1.4,0,1.4c2.1,0.1,4.2,0.2,6.3,0.2C74.2,78.7,74.2,77.3,73.3,77.2L73.3,77.2z"/>
				</g>
			</g>
			<g>
				<g>
					<path class="st30" d="M62.5,77.6c1.6,0.9,3.1,1.9,4.5,3.1c0.3-0.3,0.7-0.7,1-1c-1.4-1.2-2.9-2.3-4.4-3.3
						c-0.2,0.4-0.5,0.8-0.7,1.2c1.8,1.1,3.5,2.4,5.1,3.6c0.7,0.6,1.7-0.4,1-1c-1.8-1.4-3.5-2.7-5.4-3.9c-0.8-0.5-1.5,0.7-0.7,1.2
						c1.4,1,2.8,2,4.1,3.1c0.7,0.6,1.7-0.4,1-1c-1.5-1.3-3.1-2.4-4.8-3.3C62.4,76,61.7,77.2,62.5,77.6L62.5,77.6z"/>
				</g>
			</g>
			<g>
				<g>
					<path class="st30" d="M66.9,80.2c-1.6,0.2-3.1,0.6-4.6,1c0.1,0.5,0.3,0.9,0.4,1.4c2-0.6,4.1-1.1,6.1-1.7
						c-0.1-0.5-0.3-0.9-0.4-1.4c-2,0.6-3.9,1.1-5.9,1.7c0.1,0.5,0.3,0.9,0.4,1.4c1.6-0.6,3.2-1.1,4.9-1.2c-0.1-0.5-0.1-0.9-0.2-1.4
						c-1.8,0.3-3.7,0.6-5.5,0.9c0.1,0.5,0.3,0.9,0.4,1.4c1.6-0.6,3.1-0.8,4.8-0.8c-0.1-0.5-0.1-0.9-0.2-1.4
						c-1.9,0.5-3.8,1.1-5.8,1.6c0.1,0.5,0.3,0.9,0.4,1.4c1.8-0.6,3.7-1.2,5.6-1.6c-0.1-0.5-0.3-0.9-0.4-1.4
						c-2.1,0.8-4.3,1.3-6.5,1.7c0.1,0.5,0.3,0.9,0.4,1.4c2.1-0.5,4.1-1,6.2-1.5c-0.1-0.5-0.3-0.9-0.4-1.4c-0.5,0.1-1.1,0.3-1.6,0.4
						c-0.9,0.2-0.5,1.6,0.4,1.4c0.5-0.1,1.1-0.3,1.6-0.4c0.9-0.2,0.5-1.6-0.4-1.4c-2.1,0.5-4.2,1-6.2,1.5c-0.9,0.2-0.5,1.5,0.4,1.4
						c2.2-0.4,4.4-1,6.5-1.7c0.9-0.3,0.5-1.6-0.4-1.4c-1.9,0.5-3.7,1-5.6,1.6c-0.9,0.3-0.5,1.6,0.4,1.4c1.9-0.5,3.8-1.1,5.8-1.6
						c0.8-0.2,0.6-1.4-0.2-1.4c-1.8,0-3.5,0.3-5.2,0.9c-0.9,0.3-0.5,1.5,0.4,1.4c1.8-0.3,3.7-0.6,5.5-0.9c0.8-0.1,0.6-1.5-0.2-1.4
						c-1.8,0.2-3.6,0.6-5.3,1.3c-0.8,0.3-0.5,1.6,0.4,1.4c2-0.6,3.9-1.1,5.9-1.7c0.9-0.2,0.5-1.6-0.4-1.4c-2,0.6-4.1,1.1-6.1,1.7
						c-0.9,0.2-0.5,1.6,0.4,1.4c1.5-0.4,3-0.7,4.6-1C68.2,81.4,67.8,80,66.9,80.2L66.9,80.2z"/>
				</g>
			</g>
			<g>
				<g>
					<path class="st30" d="M58.1,77.7c0.9,0,0.9-1.4,0-1.4C57.2,76.3,57.2,77.7,58.1,77.7L58.1,77.7z"/>
				</g>
			</g>
			<g>
				<g>
					<path class="st30" d="M55.6,78c1.8,0.2,3.5,0.6,5.2,1.4c0.2-0.4,0.4-0.9,0.5-1.3c-1.7-0.4-3.4-0.7-5.2-1.1
						c-0.9-0.2-1.3,1.2-0.4,1.4c2,0.4,3.9,0.8,5.9,1.3c0.1-0.5,0.1-0.9,0.2-1.4c-1.8-0.1-3.5-0.4-5.2-0.9c-0.1,0.5-0.1,0.9-0.2,1.4
						c0.4,0,4.6,0.4,4.6,0.4c0.2-0.3,0.3-0.6,0.5-0.9c-2.4,0.5-4.9,0.9-7.3,1.3c0.1,0.5,0.3,0.9,0.4,1.4c2.2-0.4,4.3-0.8,6.5-1
						c0-0.5,0-0.9,0-1.4c-2.2,0.3-4.4,0.5-6.6,0.8c0.1,0.4,0.2,0.9,0.4,1.3c1.3-0.7,2.6-1.2,4.1-1.5c-0.1-0.5-0.3-0.9-0.4-1.4
						c-0.9,0.4-1.8,0.6-2.8,0.6c-0.9,0.1-0.9,1.5,0,1.4c1.1-0.1,2.2-0.3,3.2-0.7c0.9-0.3,0.5-1.5-0.4-1.4c-1.6,0.3-3,0.8-4.4,1.6
						c-0.6,0.3-0.4,1.4,0.4,1.3c2.2-0.3,4.4-0.5,6.6-0.8c0.9-0.1,0.9-1.5,0-1.4c-2.3,0.2-4.6,0.6-6.9,1c-0.9,0.2-0.5,1.5,0.4,1.4
						c2.4-0.4,4.9-0.8,7.3-1.3c0.4-0.1,0.5-0.5,0.5-0.9c-0.1-0.7-0.8-0.8-1.4-0.9c-1.5-0.2-3-0.3-4.5-0.5c-0.8-0.1-0.9,1.2-0.2,1.4
						c1.8,0.6,3.6,0.9,5.5,0.9c0.8,0,1-1.2,0.2-1.4c-2-0.4-3.9-0.8-5.9-1.3c-0.1,0.5-0.3,0.9-0.4,1.4c1.7,0.4,3.4,0.7,5.2,1.1
						c0.7,0.2,1.3-0.9,0.5-1.3c-1.9-0.9-3.8-1.4-5.9-1.6C54.7,76.5,54.7,77.9,55.6,78L55.6,78z"/>
				</g>
			</g>
			<g>
				<g>
					<path class="st30" d="M64.3,81.8c3.3-1.1,6.7-2,10.2-2.8c0.9-0.2,0.5-1.5-0.4-1.4c-2.4,0.4-4.9,0.7-7.3,1.1
						c0.1,0.5,0.3,0.9,0.4,1.4c1.8-0.7,3.5-1.3,5.4-1.5c-0.1-0.4-0.2-0.9-0.4-1.3c-3.9,2.1-7.9,3.5-12.2,4.2
						c-0.8,0.1-0.6,1.4,0.2,1.4c4.1-0.1,8.1-0.3,12.2-1.2c0.8-0.2,0.6-1.4-0.2-1.4c-4,0.1-7.9,0.6-11.8,1.4c0.2,0.4,0.4,0.9,0.5,1.3
						c1.7-0.7,5,0.5,6.8,0.9c0.9,0.2,1.2-1.1,0.4-1.4c-2.2-0.7-4.4-1.1-6.8-1.1c-0.8,0-0.9,1.1-0.2,1.4c2.4,0.9,4.9,1.4,7.4,1.6
						c0.9,0.1,0.9-1.3,0-1.4c-2-0.2-4-0.5-6.1-0.7c0,0.5,0,0.9,0,1.4c2.6-0.2,5.2-0.3,7.8-0.5c0.7,0,1-1.3,0.2-1.4
						c-1.7-0.2-3.4-0.5-5-0.7c-0.9-0.1-1.3,1.2-0.4,1.4c1.8,0.4,3.5,0.6,5.4,0.6c0.8,0,1-1.2,0.2-1.4c-1.2-0.2-2.4-0.4-3.6-0.4
						c-0.8,0-0.9,1.2-0.2,1.4c1.2,0.3,2.3,0.5,3.5,0.5c0.9,0,0.9-1.4,0-1.4c-1.1,0-2.1-0.2-3.1-0.5c-0.1,0.5-0.1,0.9-0.2,1.4
						c1.1,0,2.2,0.2,3.2,0.4c0.1-0.5,0.1-0.9,0.2-1.4c-1.7,0-3.3-0.2-5-0.5c-0.1,0.5-0.3,0.9-0.4,1.4c1.7,0.2,3.4,0.5,5,0.7
						c0.1-0.5,0.1-0.9,0.2-1.4c-2.6,0.2-5.2,0.3-7.8,0.5c-0.9,0.1-0.9,1.3,0,1.4c2,0.2,4,0.5,6.1,0.7c0-0.5,0-0.9,0-1.4
						c-2.5-0.2-4.7-0.7-7-1.6c-0.1,0.5-0.1,0.9-0.2,1.4c2.2,0,4.3,0.3,6.4,1c0.1-0.5,0.3-0.9,0.4-1.4c-2.4-0.5-5.5-1.8-7.8-0.8
						c-0.8,0.3-0.2,1.5,0.5,1.3c3.8-0.8,7.6-1.2,11.4-1.3c-0.1-0.5-0.1-0.9-0.2-1.4c-3.9,0.8-7.8,1-11.8,1.1
						c0.1,0.5,0.1,0.9,0.2,1.4c4.4-0.8,8.6-2.3,12.5-4.4c0.6-0.3,0.4-1.4-0.4-1.3c-2,0.2-3.8,0.8-5.7,1.6c-0.9,0.3-0.5,1.5,0.4,1.4
						c2.4-0.4,4.9-0.7,7.3-1.1c-0.1-0.5-0.3-0.9-0.4-1.4c-3.4,0.8-6.8,1.7-10.2,2.8C63,80.7,63.4,82.1,64.3,81.8L64.3,81.8z"/>
				</g>
			</g>
			<g>
				<g>
					<path class="st30" d="M69.1,83.1c-2.2,1.1-4.1,1.8-6.4,2.4c0.2,0.4,0.4,0.9,0.5,1.3c2.7-1.2,5.3-2.1,8.1-3
						c-0.1-0.5-0.3-0.9-0.4-1.4c-2.9,1.2-5.7,2.4-8.6,3.5c-0.7,0.3-0.7,1.4,0.2,1.4c5,0.1,9.7-0.6,14.4-2.1c0.9-0.3,0.5-1.6-0.4-1.4
						c-3.8,0.8-7.7,1.2-11.6,1.3c0.1,0.5,0.1,0.9,0.2,1.4c3.8-1.2,7.7-2.3,11.5-3.5c-0.2-0.4-0.4-0.9-0.5-1.3
						c-2.7,1.5-5.3,2.3-8.2,2.8c-0.8,0.1-0.6,1.4,0.2,1.4c8.8,0.2,16.6-3.6,24.2-7.7c-0.2-0.4-0.5-0.8-0.7-1.2
						c-5.6,3.2-11.4,4.9-17.8,5.3c0,0.5,0,0.9,0,1.4c6.9-0.5,12.9-3.4,18.9-6.6c-0.2-0.4-0.5-0.8-0.7-1.2
						c-6.5,3.6-13.4,6.2-20.4,8.7c-0.9,0.3-0.5,1.5,0.4,1.4c11-2.2,21-6.8,29.9-13.7c0.7-0.6-0.3-1.6-1-1
						C92.2,78,82.3,82.4,71.6,84.5c0.1,0.5,0.3,0.9,0.4,1.4c7.1-2.6,14.1-5.2,20.8-8.9c0.8-0.4,0.1-1.7-0.7-1.2
						c-5.8,3.1-11.5,6-18.2,6.4c-0.9,0.1-0.9,1.5,0,1.4c6.7-0.4,12.8-2.2,18.6-5.5c0.8-0.5,0.1-1.7-0.7-1.2
						c-7.4,4-14.9,7.6-23.5,7.5c0.1,0.5,0.1,0.9,0.2,1.4c3.1-0.5,5.8-1.4,8.6-2.9c0.7-0.4,0.2-1.5-0.5-1.3
						c-3.8,1.2-7.7,2.3-11.5,3.5c-0.8,0.2-0.6,1.4,0.2,1.4c4.1,0,8-0.5,12-1.3c-0.1-0.5-0.3-0.9-0.4-1.4c-4.6,1.5-9.2,2.2-14.1,2.1
						c0.1,0.5,0.1,0.9,0.2,1.4c2.9-1.2,5.7-2.4,8.6-3.5c0.8-0.3,0.5-1.6-0.4-1.4c-2.9,0.9-5.7,1.9-8.4,3.1c-0.8,0.3-0.2,1.5,0.5,1.3
						c2.4-0.6,4.5-1.4,6.7-2.5C70.6,83.9,69.9,82.7,69.1,83.1L69.1,83.1z"/>
				</g>
			</g>
			<g>
				<g>
					<path class="st30" d="M75.8,85.2c8.8-1.5,17.2-4.8,24.6-9.9c5.3-3.7,11.2-8.7,8.9-15.8c-0.2-0.6-1.2-0.7-1.4,0
						c-1.3,7.3-5.9,13.2-12.8,16.1c-0.8,0.3-0.5,1.6,0.4,1.4c5.6-1.4,12.3-5.8,13.6-11.8c1.5-7-4.9-13.2-10.3-16.4
						c-0.2,0.4-0.4,0.9-0.5,1.3c7,2.1,10.1,8.6,8.2,15.6c-0.2,0.6,0.5,1.1,1,0.8c4.8-2.6,2.5-8.9,0.1-12.5c-2.2-3.1-4.9-5.9-7.3-8.8
						c-1.8-2.1-3.2-4.2-5.9-4.9c-0.9-0.2-1.3,1.1-0.4,1.4c3.4,0.9,5.9,5.3,8.1,7.9c2.5,3,11.4,12.1,4.7,15.7c0.3,0.3,0.7,0.5,1,0.8
						c2.1-7.6-1.5-15-9.2-17.3c-0.8-0.2-1.2,0.9-0.5,1.3c5.2,3.1,11.3,8.9,9.2,15.5c-1.7,5.3-6.9,8.8-12.1,10.1
						c0.1,0.5,0.3,0.9,0.4,1.4c7.3-3,12.4-9.2,13.8-17.1c-0.5,0-0.9,0-1.4,0c2.7,8.4-7.7,14.3-13.9,17.6c-5.8,3.1-12.1,5.1-18.6,6.3
						C74.6,84,74.9,85.4,75.8,85.2L75.8,85.2z"/>
				</g>
			</g>
			<g>
				<g>
					<path class="st30" d="M93.3,44.4c3-2.9,8.4,5.7,9.6,7.3c1.3,1.6,3.3,3.4,4.1,5.3c1.8,4.1,0.8,6.7-1.8,10c-0.6,0.7,0.4,1.7,1,1
						c5.1-6.1,3.5-10.1-1.1-15.8c-2.4-3-8-13.3-12.8-8.7C91.6,44.1,92.6,45.1,93.3,44.4L93.3,44.4z"/>
				</g>
			</g>
			<g>
				<g>
					<path class="st30" d="M53.1,80.7c1.5,2.3,3.4,3.7,6.1,4.3c0.8,0.2,1.3-0.9,0.5-1.3c-2-1-4.3-1.5-5.8-3.3c-0.3,0.3-0.7,0.7-1,1
						c1.2,1.1,2.4,2.1,3.7,3c0.2-0.4,0.5-0.8,0.7-1.2c-0.9-0.5-1.9-1.1-2.8-1.6c-0.7-0.4-1.5,0.6-0.9,1.1c0.9,0.7,0.8,0.7,1.8,1.2
						c0.2-0.4,0.4-0.9,0.5-1.3c-1.9-0.6-3.8-1-5.7-1.3c-0.8-0.1-1.3,0.8-0.5,1.3c1.4,0.9,2.7,1.4,4.4,1.6c0.8,0.1,1-1.3,0.2-1.4
						c-1.9-0.3-3.8-0.4-5.7-0.3c-0.8,0.1-0.9,1.1-0.2,1.4c1.2,0.5,2.4,0.8,3.6,1c0.1-0.5,0.3-0.9,0.4-1.4c-1.6-0.3-3.1-0.4-4.8-0.2
						c-0.7,0.1-0.6,1.2,0,1.4c2.7,0.8,5.3,1.4,8.1,1.7c0.8,0.1,0.9-1.2,0.2-1.4c-4.3-1.3-8.6-2.4-12.9-3.5c-0.7-0.2-1.3,1-0.5,1.3
						c3.4,1.5,6.7,2.8,10.5,2.5c0.7-0.1,1-1.2,0.2-1.4c-3-0.5-6.1-1.1-9.1-1.6c-0.1,0.5-0.3,0.9-0.4,1.4c3.7,0.5,8,1.8,11.7,1
						c0.9-0.2,0.5-1.5-0.4-1.4c-3.5,0.7-7.5-0.6-11-1c-0.9-0.1-1.3,1.2-0.4,1.4c3,0.5,6.1,1.1,9.1,1.6c0.1-0.5,0.1-0.9,0.2-1.4
						c-3.6,0.3-6.6-0.9-9.8-2.3c-0.2,0.4-0.4,0.9-0.5,1.3c4.3,1.1,8.7,2.2,12.9,3.5c0.1-0.5,0.1-0.9,0.2-1.4
						c-2.7-0.3-5.2-0.9-7.7-1.7c0,0.5,0,0.9,0,1.4c1.4-0.2,2.7-0.2,4,0.2c0.9,0.1,1.3-1.2,0.4-1.4c-1.3-0.2-2.4-0.5-3.6-1
						c-0.1,0.5-0.1,0.9-0.2,1.4c1.8-0.1,3.5-0.1,5.3,0.2c0.1-0.5,0.1-0.9,0.2-1.4c-1.4-0.1-2.6-0.6-3.7-1.4
						c-0.2,0.4-0.4,0.9-0.5,1.3c1.9,0.3,3.8,0.7,5.7,1.3c0.8,0.2,1.3-0.9,0.5-1.3c-0.5-0.3-1-0.7-1.5-1c-0.3,0.4-0.6,0.7-0.9,1.1
						c0.9,0.5,1.9,1.1,2.8,1.6c0.8,0.5,1.5-0.7,0.7-1.2c-1.2-0.9-2.3-1.7-3.4-2.8c-0.7-0.6-1.6,0.3-1,1c1.6,2,3.9,2.4,6.1,3.5
						c0.2-0.4,0.4-0.9,0.5-1.3c-2.3-0.5-4-1.7-5.2-3.7C53.9,79.2,52.6,79.9,53.1,80.7L53.1,80.7z"/>
				</g>
			</g>
			<g>
				<g>
					<path class="st30" d="M63.7,66.6c-0.8-2.1-0.9-5.3-0.1-7.4c0.4-1.1,1.4-2.6,2.7-2.5c1,0,1,0.6,1.2,1.5c0.2,0.8,0.3,1.6,0.4,2.4
						c0.1,0.9,1.5,0.9,1.4,0c-0.1-1.5-0.3-4.1-1.4-5.2c-1.1-1.1-2.5-0.3-3.6,0.5c-3.2,2.4-3.3,7.6-2,11.1
						C62.7,67.9,64,67.5,63.7,66.6L63.7,66.6z"/>
				</g>
			</g>
			<g>
				<g>
					<path class="st30" d="M67,64.1c0.8-0.9,2.6-1.8,3.8-1.5c1.4,0.4,2.2,2.6,2.1,3.8c-0.1,0.9,1.3,0.9,1.4,0c0.2-1.8-1-4.3-2.8-5.1
						c-1.8-0.7-4.4,0.3-5.6,1.7C65.4,63.7,66.4,64.8,67,64.1L67,64.1z"/>
				</g>
			</g>
			<g>
				<g>
					<path class="st30" d="M69.5,61c1.2-0.3,2.5-0.4,3.5,0.4c0.9,0.7,1.2,2,0.6,3c-0.5,0.8,0.7,1.5,1.2,0.7c0.9-1.4,0.6-3.3-0.6-4.5
						c-1.3-1.4-3.4-1.5-5.1-1C68.2,59.9,68.6,61.3,69.5,61L69.5,61z"/>
				</g>
			</g>
			<g>
				<g>
					<path class="st30" d="M73,66.3c-1.5,0.3-2-2.7-3.9-1.7c-0.7,0.3-1,1.1-1.8,1.4c-1.2,0.5-3.1,0.8-4.4,0.8c-0.9,0-0.9,1.5,0,1.4
						c2.1-0.1,4.3-0.6,6.1-1.5c0.4-0.2,0.9-0.6,1.5-0.3c0.3,0.1,0.5,0.7,0.8,0.9c0.7,0.5,1.2,0.6,1.9,0.4
						C74.3,67.5,73.9,66.1,73,66.3L73,66.3z"/>
				</g>
			</g>
			<g>
				<g>
					<path class="st30" d="M65.4,60.5c0.9,0,0.9-1.4,0-1.4C64.4,59.1,64.4,60.5,65.4,60.5L65.4,60.5z"/>
				</g>
			</g>
			<g>
				<g>
					<path class="st30" d="M66.1,58.6c0.9,0,0.9-1.4,0-1.4C65.2,57.2,65.2,58.6,66.1,58.6L66.1,58.6z"/>
				</g>
			</g>
		</g>
		<g>
			<g>
				<path class="st30" d="M99,55.8c8.6,10.1,26.3,14.7,33.9,0.6c1.5-2.8-2.7-5.3-4.3-2.5c-4.6,8.1-12.8,5.2-19.3,1.6
					c-0.6,1.5-1.3,3-1.9,4.6c5.8,1.8,12.1,3.5,18,1.1c5-2,8.4-6.7,7.7-12.2c-1.6,0.4-3.1,0.8-4.7,1.3c3.2,5.3-5,7.9-8.7,8.1
					c-3.8,0.2-7.6-0.9-10.8-2.7c-6.5-3.7-10-10.7-11.2-17.8c-0.6-3.2-5.4-1.8-4.8,1.3c2.2,11.9,10.6,22.4,23.1,24
					c8.3,1.1,23.3-4.7,16.9-15.4c-1.2-1.9-5-1.3-4.7,1.3c1.4,11.1-13.1,8.2-19.3,6.3c-2.7-0.8-4.4,3.2-1.9,4.6
					c9.1,5.1,20.1,7.3,26.2-3.4c-1.4-0.8-2.9-1.7-4.3-2.5c-6.1,11.3-19.6,6-26-1.7C100.4,49.8,96.9,53.3,99,55.8L99,55.8z"/>
			</g>
		</g>
		<g>
			<g>
				<path class="st30" d="M97.8,44.3c7.4-1.1,14.6-0.5,21.7,1.7c3.1,1,4.3-3.7,1.3-4.8c-6.3-2.5-28.2-10.9-29.5,1.4
					c-0.2,1.9,2.3,3.1,3.8,2.2c7.3-4.4,19.5-1.6,26.1,3c2.6,1.9,5.1-2.5,2.5-4.3c-8.1-5.7-22.2-8.4-31.1-3c1.3,0.7,2.5,1.4,3.8,2.2
					c0.5-4.6,20.6,2.4,23.2,3.5c0.4-1.6,0.9-3.2,1.3-4.8c-8-2.5-16.1-3-24.4-1.7C93.3,40,94.6,44.8,97.8,44.3L97.8,44.3z"/>
			</g>
		</g>
		<g>
			<g>
				<path class="st30" d="M126.1,50.6c0.4,0.4,0.9,0.8,1.3,1.2c0.3-0.4,0.6-0.7,0.9-1.1c-0.9-0.5-1.9-1-2.8-1.5
					c-0.2,0.4-0.4,0.9-0.5,1.3c1,0.4,2,0.8,3,1.2c0.7,0.3,1.1-0.7,0.7-1.2c-0.6-0.7-1.5-1.1-2.4-1.1c-0.9,0-0.9,1.3,0,1.4
					c1.1,0.1,2.2,0.3,3.3,0.2c0.7,0,1.3-0.4,1.4-1.1c0.1-1.6-1.9-3-3.1-3.5c-0.1,0.5-0.3,0.9-0.4,1.4c0.7,0.2,1.4,0.5,2,1
					c0.7,0.5,1.4-0.5,0.9-1.1c-0.7-0.8-1.6-1.5-2.5-2.2c-0.7-0.5-1.3,0.5-0.9,1.1c0.5,0.6,1.1,1.1,1.8,1.5c0.8,0.5,1.5-0.8,0.7-1.2
					c-0.6-0.3-1.1-0.8-1.5-1.3c-0.3,0.4-0.6,0.7-0.9,1.1c0.8,0.6,1.5,1.2,2.2,1.9c0.3-0.4,0.6-0.7,0.9-1.1c-0.7-0.5-1.5-0.9-2.3-1.1
					c-0.9-0.3-1.2,1-0.4,1.4c0.5,0.2,1,0.5,1.3,0.9c0.2,0.2,0.3,0.4,0.5,0.6c0.1,0.1,0.1,0.2,0.2,0.3c0.1,0.2,0.1,0.2,0.1,0.1
					c-0.3,0.1-1.1-0.1-1.4-0.1c-0.6,0-1.3-0.1-1.9-0.1c0,0.5,0,0.9,0,1.4c0.6,0,1,0.2,1.4,0.6c0.2-0.4,0.5-0.8,0.7-1.2
					c-1-0.4-2-0.8-3-1.2c-0.7-0.3-1.2,0.9-0.5,1.3c0.9,0.5,1.9,1,2.8,1.5c0.7,0.4,1.5-0.6,0.9-1.1c-0.4-0.4-0.9-0.8-1.3-1.2
					C126.5,49,125.5,50,126.1,50.6L126.1,50.6z"/>
			</g>
		</g>
		<g>
			<g>
				<path class="st30" d="M122.7,47.8c0.8,0.2,1.6,0.4,2.5,0.6c0.8,0.2,1.3-0.9,0.5-1.3c-1.2-0.7-1-0.6-2.3-1
					c-0.1,0.5-0.1,0.9-0.2,1.4c0.8,0.1,1.6,0.3,2.5,0.4c0.8,0.2,1.2-0.8,0.5-1.3c-0.9-1-1.8-2-2.7-3c-0.3,0.3-0.6,0.6-1,1
					c-0.2,0.6-0.3,1.1-0.5,1.7c-0.6-0.1-1.1,0.5-0.8,1c0.1,0.2,0.1,0.3,0.2,0.5c0.1,0.2,0.4,0.4,0.6,0.4c0.2,0,0.3,0,0.5,0
					c0.5,0,0.8-0.4,0.7-0.9c-1.3-8.6-15.5-8.7-21.8-7.1c-0.9,0.2-0.5,1.6,0.4,1.4c3.9-1,7.7-0.7,11.7,0c1,0.2,2,0.3,3,0.6
					c1.8,0.3,3.1,1.2,3.9,2.7c0.4,1.1,1.1,1.7,2.1,1.8c-0.3,0.3-0.5,0.7-0.8,1c3.1,0.6,4.5-2.8,1.6-4.3c-0.6-0.3-1.3,0.3-1,1
					c0.9,1.6,1.8,2.5,3.2,3.5c0.2-0.4,0.4-0.9,0.5-1.3c-1.6-0.4-1.2-0.4-2.8-0.4c-0.8,0-0.9,1.2-0.2,1.4c0.7,0.3,1.3,0.5,2,0.8
					c0.2-0.4,0.4-0.9,0.5-1.3c-0.8-0.2-1.6-0.4-2.5-0.6C122.2,46.2,121.8,47.5,122.7,47.8L122.7,47.8z"/>
			</g>
		</g>
		<g>
			<g>
				<path class="st30" d="M121.9,44.5c0.9,0,0.9-1.4,0-1.4C121,43.1,121,44.5,121.9,44.5L121.9,44.5z"/>
			</g>
		</g>
		<g>
			<g>
				<path class="st30" d="M127.7,47c3.2,0.5,4.9,3.7,3.3,6.6c0.4,0.2,0.9,0.4,1.3,0.5c0.5-2.4,0-4.7-1.3-6.8
					c-0.4-0.7-1.5-0.3-1.3,0.5c0.5,2.1,0.5,4.2,0,6.3c-0.2,0.9,1.2,1.3,1.4,0.4c0.6-2.4,0.6-4.7,0-7.1c-0.4,0.2-0.9,0.4-1.3,0.5
					c1.2,1.7,1.6,3.7,1.2,5.7c-0.1,0.8,0.9,1.3,1.3,0.5c2-3.6,0-8.1-4.1-8.7C127.2,45.5,126.8,46.8,127.7,47L127.7,47z"/>
			</g>
		</g>
		<g>
			<g>
				<path class="st30" d="M112.2,49.7c-0.1-1.9,2.6-2.2,2.6-0.1c0,0.5,0.6,0.9,1.1,0.6c2.1-1.4,3.1,1.5,3.3,3c0.1,0.9,1.5,0.9,1.4,0
					c-0.3-2.6-2.3-6.3-5.4-4.2c0.4,0.2,0.7,0.4,1.1,0.6c-0.1-3.8-5.6-3.7-5.5,0.1C110.9,50.6,112.3,50.6,112.2,49.7L112.2,49.7z"/>
			</g>
		</g>
		<g>
			<g>
				<path class="st30" d="M110.6,48.4c-2.2-1.7-4.9-0.1-3.5,2.6c2.2,4.2,8,1.9,11.6,3.4c0.8,0.4,1.6-0.9,0.7-1.2
					c-1.5-0.6-2.9-0.8-4.4-0.8c-1.3,0-2.7,0.1-4-0.2c-0.5-0.1-1-0.3-1.5-0.6c-1.4-0.7-1.3-1.4,0.1-2.1C110.3,50,111.3,49,110.6,48.4
					L110.6,48.4z"/>
			</g>
		</g>
		<g>
			<g>
				<path class="st30" d="M113.1,50.4c0.9,0,0.9-1.4,0-1.4C112.1,49,112.1,50.4,113.1,50.4L113.1,50.4z"/>
			</g>
		</g>
		<g>
			<g>
				<path class="st30" d="M56.8,41.1c-4.1,1.5-8.3,2.4-12.7,2.4c-3.9,0-7.7-0.9-11.5-1c-5.5-0.1-13.9,0.5-17.8,5
					c-1.9,2.2,0.5,5,3,3.9c6.1-2.6,12.6-3.3,19.2-3.7c6.4-0.4,12.8-0.8,19.1,0.8c3.1,0.8,4.5-4.1,1.3-4.8
					c-7.3-1.8-14.7-1.4-22.2-0.8c-6.9,0.5-13.6,1.5-20,4.2c1,1.3,2,2.6,3,3.9c2.3-2.6,7.2-3,10.4-3.3c3.5-0.4,6.8,0.1,10.3,0.5
					c6.6,0.7,12.9-0.1,19.1-2.3C61.1,44.8,59.8,40,56.8,41.1L56.8,41.1z"/>
			</g>
		</g>
		<g>
			<g>
				<path class="st30" d="M46.6,35.7c-3.3,0.6-8.9,3.8-4.4,7.2c2.4,1.9,6.3,2.3,9.2,2.7c3.6,0.6,7.2,0.9,10.9,0.9c3.2,0,3.2-5,0-5
					c-3.7,0-7.4-0.2-11-0.9c-1.1-0.2-3.2-1.1-4.3-1c-1.2-0.7-1.7-0.2-1.4,1.6c0.8-0.3,1.5-0.5,2.3-0.6C51,39.9,49.7,35.1,46.6,35.7
					L46.6,35.7z"/>
			</g>
		</g>
		<g>
			<g>
				<path class="st30" d="M53.1,38.2c2.5-0.1,4.9,0.1,7.3,0.6c1.1,0.2,2,0.4,1.1,1.5c-0.9,1-2.6,1.5-3.8,1.6
					c0.1,0.5,0.1,0.9,0.2,1.4c1.4-0.4,4.3-2.1,3.8-4c-0.2-0.8-1.6-1.6-2.3-2c-1.5-0.8-3.3-0.4-4.8-0.9c-0.1,0.5-0.1,0.9-0.2,1.4
					c1.1,0,2.2,0.1,3.3,0.5c1.2,0.2,1.8,0.9,1.9,2.2c-0.4,0.3-0.9,0.6-1.4,0.8c0.2,0.4,0.4,0.9,0.5,1.3c1.1-0.8,3.4-2.7,2-4.1
					c-1.7-1.8-5.3-2.2-7.6-1.9c-0.7,0.1-1,1.2-0.2,1.4c2.3,0.6,5.5,0.2,6.9,2.5c0.3-0.3,0.6-0.6,1-1c-2.5-1.1-5.1-1.8-7.8-1.9
					c0.1,0.4,0.2,0.9,0.4,1.3c1.2-0.6,2.4-0.5,3.7-0.2c0.2,0.1,3.5,1.2,2.5,2.1c-0.7,0.6,0.3,1.6,1,1c1.4-1.4,0.2-2.9-1.2-3.6
					c-2.1-1.1-4.5-1.6-6.7-0.5C52,38,52.3,38.9,53,39c2.5,0.1,4.8,0.7,7.1,1.7c0.6,0.3,1.4-0.3,1-1c-1.7-2.8-4.9-2.4-7.7-3.1
					c-0.1,0.5-0.1,0.9-0.2,1.4c1.4-0.2,2.7-0.1,4.1,0.3c0.4,0.1,1.7,0.4,2,0.8c0.6,0.9-0.6,1.9-1.2,2.3c-0.6,0.4-0.3,1.6,0.5,1.3
					c1.5-0.6,3.3-1.8,2.5-3.6c-1-2.2-4.7-2.6-6.7-2.7c-0.8,0-0.9,1.1-0.2,1.4c1.5,0.5,3.1,0.2,4.6,0.8c0.9,0.4,1.6,0.7,1.2,1.6
					c-0.4,0.9-1.5,1.4-2.4,1.7c-0.7,0.2-0.6,1.5,0.2,1.4c1.6-0.2,7.2-2,6-4.5c-0.6-1.2-2.5-1.3-3.6-1.5c-2.3-0.4-4.6-0.6-7-0.5
					C52.1,36.8,52.1,38.2,53.1,38.2L53.1,38.2z"/>
			</g>
		</g>
		<g>
			<g>
				<path class="st30" d="M47.1,38.8c1.3-0.5,2.6-0.8,4-1c0.9-0.2,0.5-1.5-0.4-1.4c-1.7,0.2-3.2,0.8-4.7,1.7
					c-0.7,0.4-0.2,1.4,0.5,1.3c2-0.4,4-0.6,6-0.7c0-0.5,0-0.9,0-1.4c-1.8,0.2-3.6,0.6-5.4,1c-0.7,0.2-0.6,1.5,0.2,1.4
					c2.3-0.2,4.6-0.5,7-0.9c0.7-0.1,0.6-1.2,0-1.4c-3.2-0.9-6.2-0.3-9.4,0.5c0.2,0.4,0.4,0.9,0.5,1.3c3.3-1.6,6.8-1.9,10.3-0.8
					c0.1-0.5,0.1-0.9,0.2-1.4c-4-0.5-7.9-0.2-11.8,0.9c0.3,0.2,0.6,0.5,0.9,0.7c-0.2-4.5,13.9,1,15.2,1.6c0.8,0.4,1.5-0.9,0.7-1.2
					c-2.6-1.2-17.7-7.2-17.3-0.3c0,0.4,0.4,0.8,0.9,0.7c3.8-1.1,7.5-1.4,11.4-0.9c0.8,0.1,0.9-1.2,0.2-1.4c-3.9-1.2-7.7-0.8-11.4,1
					c-0.7,0.4-0.2,1.5,0.5,1.3c2.9-0.7,5.7-1.3,8.6-0.5c0-0.5,0-0.9,0-1.4c-2.2,0.3-4.4,0.6-6.6,0.9c0.1,0.5,0.1,0.9,0.2,1.4
					c1.6-0.4,3.3-0.8,5-1c0.9-0.1,0.9-1.4,0-1.4c-2.2,0.1-4.3,0.3-6.4,0.7c0.2,0.4,0.4,0.9,0.5,1.3c1.4-0.8,2.7-1.3,4.3-1.5
					c-0.1-0.5-0.3-0.9-0.4-1.4c-1.4,0.2-2.7,0.6-4,1C45.8,37.8,46.2,39.1,47.1,38.8L47.1,38.8z"/>
			</g>
		</g>
		<g>
			<g>
				<path class="st30" d="M39.2,54.9c-7.3,4.3-16.7,6.6-23.4-0.1c-1.5-1.5-4.3-0.4-4.3,1.8c0.3,9.1,14.6,12.6,21.3,8.5
					c-1.1-1.1-2.3-2.3-3.4-3.4c-1.2,2.1-11-2.1-12.3-2.7c-2.4-1.2-5.4,2-3,3.9c5.8,4.7,13,5.6,19.7,2.3c-0.8-1.4-1.7-2.9-2.5-4.3
					c-4.7,2.9-11.4,0.2-15.7-2.2c-2.8-1.6-5.2,2.5-2.5,4.3c5.2,3.6,11.1,5,17.4,4.2c3.1-0.4,3.2-5.4,0-5c-5.5,0.7-10.3-0.4-14.9-3.5
					c-0.8,1.4-1.7,2.9-2.5,4.3c5.9,3.3,14.5,6.1,20.8,2.2c2.8-1.7,0.4-5.7-2.5-4.3c-4.6,2.2-9.7,1.6-13.7-1.6c-1,1.3-2,2.6-3,3.9
					c4.6,2.3,15.7,7,19.1,0.9c1.2-2.1-1.3-4.8-3.4-3.4c-2.5,1.5-4.7,1.5-7.4,0.6c-1.7-0.6-6.2-2.6-6.3-4.8c-1.4,0.6-2.8,1.2-4.3,1.8
					c8.3,8.3,20.1,6.4,29.4,0.9C44.5,57.6,41.9,53.2,39.2,54.9L39.2,54.9z"/>
			</g>
		</g>
		<g>
			<g>
				<path class="st30" d="M12.3,62.2c2.5,1.4,5.1,1.6,7.8,2.3c2.8,0.8,5.2,2.3,8.1,1.2c3-1.1,1.7-5.9-1.3-4.8
					c-2,0.7-4.3-0.9-6.3-1.4c-2-0.4-4-0.5-5.8-1.6C12,56.2,9.5,60.6,12.3,62.2L12.3,62.2z"/>
			</g>
		</g>
		<g>
			<g>
				<path class="st30" d="M16.9,46.6c-2.1,0.7-3.6,2.1-4.4,4.1c0.4-0.1,0.8-0.2,1.2-0.3c-0.4-0.4,3.1-2.7,3.4-2.8
					c-0.2-0.4-0.5-0.8-0.7-1.2c-1.7,1.2-3.1,2.8-4,4.7c-0.4,0.8,0.8,1.5,1.2,0.7c0.8-1.5,2.1-2.3,3.7-2.6c-0.2-0.4-0.4-0.9-0.5-1.3
					c-1.2,0.9-2.4,1.8-3.6,2.6c-0.6,0.5-0.3,1.5,0.5,1.3c1.2-0.3,2.3-0.4,3.5-0.4c-0.1-0.4-0.2-0.9-0.4-1.3c-1.1,0.7-2,1.6-2.9,2.6
					c-0.5,0.6,0.1,1.6,0.9,1.1c1-0.6,2.1-1.3,3.1-1.9c-0.3-0.4-0.6-0.7-0.9-1.1c-0.2,0.1-0.3,0.2-0.5,0.4c-0.8,0.4-0.1,1.7,0.7,1.2
					c0.4-0.2,0.5-0.3,0.8-0.6c0.6-0.6-0.2-1.5-0.9-1.1c-1,0.6-2.1,1.3-3.1,1.9c0.3,0.4,0.6,0.7,0.9,1.1c0.7-0.9,1.6-1.7,2.6-2.4
					c0.6-0.4,0.4-1.3-0.4-1.3c-1.3,0-2.6,0.2-3.8,0.5c0.2,0.4,0.4,0.9,0.5,1.3c1.2-0.9,2.4-1.8,3.6-2.6c0.7-0.5,0.3-1.4-0.5-1.3
					c-2,0.3-3.6,1.5-4.5,3.3c0.4,0.2,0.8,0.5,1.2,0.7c0.8-1.7,2-3.1,3.5-4.2c0.7-0.5,0.1-1.7-0.7-1.2c-1.2,0.7-5.5,3.3-3.7,5.1
					c0.4,0.4,1,0.2,1.2-0.3c0.6-1.5,1.8-2.6,3.4-3.1C18.1,47.7,17.7,46.3,16.9,46.6L16.9,46.6z"/>
			</g>
		</g>
		<g>
			<g>
				<path class="st30" d="M12.2,59.3c-0.5-1.7-0.3-3.4,0.7-4.9c0.5-0.7-0.5-1.3-1.1-0.9c-1.5,1.3-1.4,3.2-1.1,5
					c0.5-0.1,0.9-0.3,1.4-0.4c-0.4-1.1-0.4-2.2,0.3-3.3c-0.4-0.2-0.9-0.4-1.3-0.5c-0.2,0.8-0.2,1.5,0,2.3c0.3,0.9,1.6,0.5,1.4-0.4
					c-0.2-0.6-0.2-1,0-1.6c0.2-0.8-0.9-1.2-1.3-0.5c-0.8,1.3-1,2.9-0.4,4.4c0.3,0.9,1.5,0.5,1.4-0.4c-0.2-1.3-0.3-2.7,0.8-3.6
					c-0.4-0.3-0.7-0.6-1.1-0.9c-1.2,1.8-1.5,3.9-0.9,6C11.1,60.6,12.5,60.2,12.2,59.3L12.2,59.3z"/>
			</g>
		</g>
		<g>
			<g>
				<path class="st30" d="M24,57.3c1.1,0.9,2.5,1.2,3.7,0.4c0.7-0.4,1.2-1,1.5-1.8c0.1-0.3,0.2-0.7,0.3-1.1c0-0.5-0.3-1.3,0.3-1.1
					c0.7,0.2,0.1,1.5,0.6,2.1c0.3,0.4,0.7,0.5,1.2,0.5c1.6-0.2,1.6-1.9,1.3-3c-0.2-0.9-1.6-0.5-1.4,0.4c0,0.1,0.1,1.1,0,1.1
					c0,0,0-1,0-1.1c0-0.4-0.1-0.8-0.3-1.1c-0.4-0.6-1.2-1.1-1.9-0.8c-0.7,0.2-1.1,0.9-1.1,1.6c-0.1,0.6,0.1,1.2-0.1,1.8
					c-0.3,1.3-1.9,2.1-3,1.1C24.3,55.7,23.3,56.7,24,57.3L24,57.3z"/>
			</g>
		</g>
		<g>
			<g>
				<path class="st30" d="M25.2,56.7c-0.2-1.8,0.4-3.6,1.7-5c0.8-0.8,1.7-1.4,2.9-1.2c0.9,0.1,1,0.3,1.4,1.1
					c0.4,0.7,0.8,1.4,0.5,2.3c-0.2,0.9,1.1,1.3,1.4,0.4c0.4-1.6-0.3-3.1-1.3-4.3c-1-1.2-2.3-1.3-3.7-0.7c-2.9,1.2-4.6,4.4-4.3,7.5
					C23.9,57.6,25.3,57.6,25.2,56.7L25.2,56.7z"/>
			</g>
		</g>
		<g>
			<g>
				<path class="st30" d="M26.2,54.2c0.9,0,0.9-1.4,0-1.4C25.3,52.8,25.3,54.2,26.2,54.2L26.2,54.2z"/>
			</g>
		</g>
		<g>
			<g>
				<path class="st30" d="M27.4,53c0.9,0,0.9-1.4,0-1.4C26.5,51.6,26.5,53,27.4,53L27.4,53z"/>
			</g>
		</g>
		<g>
			<g>
				<path class="st30" d="M117.9,80c0.4-0.9,1.5-5.8,3.1-3.5c-0.1-0.2-0.2,1.6-0.2,1.6c0.1,0.5,0.8,1,1.2,0.5
					c0.7-1.3,1.7-1.3,3.1,0.1c-0.1,0.5,0.5,0.7,0.9,0.7c0,0,0.7-0.3,0.8-0.3c0.4-0.7,0.9-0.5,1.3,0.5c-0.1,0.6-0.1,1.3-0.2,1.9
					c-0.3,3.1-0.4,6.2-1.8,9c0.4,0,0.7-0.1,1.1-0.1c-0.3-0.4-0.7-0.7-1-1.1c-0.6-0.7-1.6,0.3-1,1c0.3,0.4,0.7,0.7,1,1.1
					c0.3,0.3,0.9,0.2,1.1-0.1c0.9-1.8,1.3-3.6,1.6-5.5c0.3-1.9,1.1-5.2,0.7-7.1c-0.2-0.9-0.4-1.6-1.3-1.8c-1.4-0.4-1.4,1-2.6,1.2
					c0.3,0.2,0.6,0.5,0.9,0.7c0.2-1.4-0.3-2.5-1.6-3.1c-1.8-0.7-2.9,0.7-3.9,2c0.4,0.2,0.8,0.3,1.2,0.5c-0.2-1.6,1.9-4.2-1-4.6
					c-2.9-0.5-3.9,4.4-4.7,6.2C116.2,80.5,117.6,80.9,117.9,80L117.9,80z"/>
			</g>
		</g>
		<g>
			<g>
				<path class="st30" d="M125.8,89.1c-0.1-1.2-0.2-2.4-0.3-3.6c-0.1-0.7-0.9-1-1.3-0.4c-1.1,1.8-2.7-0.3-3.7,1
					c-0.5,0.6-0.3,1.6-0.6,2.3c-0.8,1.3-2.5,0-3.5-0.5c0.1,0.3,0.2,0.5,0.3,0.8c0.4-2.6,0.9-5.2,1.3-7.8c0.2-0.9-1.2-1.3-1.4-0.4
					c-0.4,2.6-0.9,5.2-1.3,7.8c0,0.3,0,0.7,0.3,0.8c1.1,0.5,2.8,1.8,4.1,1.7c1-0.1,1.4-1.2,1.6-2c0.1-0.4,0.2-1.5,0.4-1.7
					c0.2-0.1,1.2,0.3,1.5,0.2c1-0.1,1.8-0.7,2.3-1.6c-0.4-0.1-0.9-0.2-1.3-0.4c0.1,1.2,0.2,2.4,0.3,3.6
					C124.5,90,125.9,90,125.8,89.1L125.8,89.1z"/>
			</g>
		</g>
		<g>
			<g>
				<path class="st30" d="M120.9,80.5c0.9,0,0.9-1.4,0-1.4C120,79.1,120,80.5,120.9,80.5L120.9,80.5z"/>
			</g>
		</g>
		<g>
			<g>
				<path class="st30" d="M123.9,81c0.9,0,0.9-1.4,0-1.4C123,79.6,123,81,123.9,81L123.9,81z"/>
			</g>
		</g>
		<g>
			<g>
				<path class="st30" d="M119.9,82.5c1.8,2.6,5.5,2.5,7-0.3c0.4-0.8-0.8-1.5-1.2-0.7c-1,1.8-3.4,2.1-4.6,0.3
					C120.7,81,119.4,81.7,119.9,82.5L119.9,82.5z"/>
			</g>
		</g>
		<g>
			<g>
				<path class="st30" d="M117.8,78.6c-0.4-0.9-0.8-1.9-1.8-2.2c-0.9-0.3-1.9,0-2.3,1c-0.7,1.9,0.5,3.8,2.3,4.6
					c0.8,0.3,1.2-1,0.4-1.4c-0.8-0.3-1.3-1.1-1.4-1.9c0-0.4,0-1.1,0.6-1c0.5,0.1,0.7,0.8,0.9,1.2C116.7,79.8,118.1,79.5,117.8,78.6
					L117.8,78.6z"/>
			</g>
		</g>
		<g>
			<g>
				<path class="st30" d="M130,79.6c1-1.1,2.4,0.2,2.2,1.4c-0.3,1.5-2,2-3.3,1.7c-0.9-0.1-1.3,1.2-0.4,1.4c2.4,0.4,5.3-0.8,5.2-3.6
					c-0.1-2.3-3-3.7-4.6-1.9C128.4,79.3,129.4,80.3,130,79.6L130,79.6z"/>
			</g>
		</g>
		<g>
			<g>
				<path class="st30" d="M13.5,89.1c0.1-1.7,0.2-3.3,0.2-5c0-0.7,0.1-1.4,0.1-2.1c-0.3-1.8,0.6-3,2.6-3.7c0,0.5,0.5,0.8,0.9,0.7
					c1.3-0.2,1.9-2,3-2.7c1.3-0.9,3.5-2.5,4.9-0.7c0.6,0.8,0.2,4.6,0.2,5.7c0,0.6,0.8,1,1.2,0.5c0.6,0.1,1.3,0.2,1.9,0.2
					c0,0.5,0,1,0,1.5c0.2,0.9,0,2.1,0,3.1c0,1,0.4,3,0,3.8c0.2,1.1-0.3,1.2-1.5,0.3c-1.2,0.2-1.7-0.1-1.5-0.9
					c-0.9-1.6,0.3-1.9-2.4-2.2c-1.5-0.2-3.4,0-4.5,1.2c-0.6,0.6-0.5,1.3-0.8,1.9c-0.6,1.1,0.3,0.9-1.1,1.1c-1.5,0.3-3.4-1.6-3-2.9
					c0.3-0.9-1.1-1.2-1.4-0.4c-0.5,1.5-0.8,3.2,0.7,4.2c1,0.7,4.3,0.9,5.3,0.4c0.5-0.2,0.4-0.8,0.8-1.1c0.1-0.1,0-0.3,0.1-0.4
					c1.6-0.8,3.2-1.6,4.8-2.4c0,0.3,0,0.6,0,0.9c0.6,1.5,0.3,3,2.2,3.7c4.7,1.8,3.7-6,3.7-8.1c0-1.5,0.8-5.1-0.8-6.2
					c-1.3-0.9-2.6,0.3-3.5,1.2c0.4,0.2,0.8,0.3,1.2,0.5c-0.1-1.8,1-8.4-2.3-8.7c-1.3-0.1-3.5,1.6-4.5,2.2c-0.6,0.4-1.5,0.7-2,1.2
					c0,0-1.2,1.7-1.2,1.7c0.3,0.2,0.6,0.5,0.9,0.7c0.1-2.4-2.2-3.4-4-1.8c-0.8,0.7-1.1,1.7-1.3,2.7c-0.6,3.2-0.4,6.7-0.5,9.9
					C12.1,90,13.5,90,13.5,89.1L13.5,89.1z"/>
			</g>
		</g>
		<g>
			<g>
				<path class="st30" d="M20.4,79c0.9,0,0.9-1.4,0-1.4C19.5,77.6,19.5,79,20.4,79L20.4,79z"/>
			</g>
		</g>
		<g>
			<g>
				<path class="st30" d="M22.9,77.3c0.9,0,0.9-1.4,0-1.4C22,75.9,22,77.3,22.9,77.3L22.9,77.3z"/>
			</g>
		</g>
		<g>
			<g>
				<path class="st30" d="M19.9,81.8c0.5,0.5,1.3,0.7,2.1,0.4c0.8-0.3,1.3-1,1.7-1.7c0.5-0.8-0.7-1.5-1.2-0.7c-0.2,0.4-1,1.6-1.6,1
					C20.2,80.2,19.2,81.2,19.9,81.8L19.9,81.8z"/>
			</g>
		</g>
		<g>
			<g>
				<path class="st30" d="M30.5,84.5c0.5-0.3,1-0.2,1.5,0c0.4,0.2,1,0.7,1.2,1.1c0,0.1,0.1,0.1,0.1,0.1c-0.1,0.1-0.3,0.2-0.4,0.2
					C32.6,86,32.4,86,32.1,86c-0.6,0-1.2-0.1-1.7-0.2c-0.9-0.2-1.3,1.2-0.4,1.4c1.1,0.2,2.3,0.5,3.4,0.1c0.8-0.3,1.6-1,1.3-2
					c-0.3-0.8-1.2-1.6-1.9-2c-0.9-0.5-2-0.6-2.9,0C29.1,83.8,29.8,85,30.5,84.5L30.5,84.5z"/>
			</g>
		</g>
		<g>
			<g>
				<path class="st30" d="M11.6,81.6c-0.6,0.1-1.2,0.2-1.8,0.6c-0.3,0.2-0.5,0.4-0.6,0.7c0,0.3,0,0.6,0.1,0.9
					c0.4,1.1,1.5,1.9,2.7,1.7c0.4,0,0.7-0.3,0.7-0.7c0-0.3-0.3-0.8-0.7-0.7c-0.7,0.1-1.4-0.4-1.4-1.1c-0.1,0.2-0.1,0.3-0.2,0.5
					c0.3-0.3,0.7-0.5,1.1-0.5C12.5,83,12.6,81.5,11.6,81.6L11.6,81.6z"/>
			</g>
		</g>
	</g>
</g>
<g id="Layer_9">
</g>
<g id="Layer_8">
</g>
<g id="TXT">
</g>
</svg>
