<?xml version="1.0" encoding="utf-8"?>
<!-- Generator: Adobe Illustrator 19.1.0, SVG Export Plug-In . SVG Version: 6.00 Build 0)  -->
<svg version="1.1" xmlns="http://www.w3.org/2000/svg" xmlns:xlink="http://www.w3.org/1999/xlink" x="0px" y="0px"
	 viewBox="0 0 141.7 99.2" style="enable-background:new 0 0 141.7 99.2;" xml:space="preserve">
<style type="text/css">
	.st0{display:none;}
	.st1{display:inline;fill:#E7E2D8;stroke:#000000;stroke-width:1.1426;stroke-miterlimit:10;}
	.st2{display:inline;}
	.st3{fill:#80491E;}
	.st4{display:inline;fill:#A76F54;stroke:#443F35;stroke-width:8.242828e-002;stroke-miterlimit:10;}
	.st5{display:inline;fill:#696A6D;}
	.st6{display:inline;fill:#80491E;}
	.st7{display:inline;fill:#CD7F62;}
	.st8{fill:#3C3C3C;}
	.st9{fill:#956667;}
	.st10{fill:#B76C31;}
	.st11{fill:#8A8C8E;}
	.st12{display:inline;fill:#353539;}
	.st13{fill:#353539;}
	.st14{display:inline;fill:#8A8C8E;}
	.st15{display:inline;fill:#D8CCD7;}
	.st16{fill:#FBC0A2;}
	.st17{fill:#D8CCD7;}
	.st18{display:inline;fill:#53697A;}
	.st19{display:inline;fill:#689676;}
	.st20{display:inline;fill:#7C9A7B;}
	.st21{display:inline;fill:none;stroke:#53697A;stroke-miterlimit:10;}
	.st22{display:inline;fill:#C26558;}
	.st23{display:inline;fill:#D9BC7B;}
	.st24{display:inline;fill:none;stroke:#A06262;stroke-width:0.9433;stroke-miterlimit:10;}
	.st25{display:inline;fill:#F0EAD6;}
	.st26{display:inline;fill:#A06262;}
	.st27{fill:#7CB0A9;}
	.st28{display:inline;fill:#D8D13E;}
	.st29{display:inline;fill:#777C77;}
	.st30{fill:#443F35;}
	.st31{fill:#E7E2D8;}
	.st32{display:inline;opacity:0.2;}
</style>
<g id="Layer_1" class="st0">
	<rect x="-939.7" y="-736.3" class="st1" width="1673.8" height="1571.8"/>
</g>
<g id="Layer_3" class="st0">
</g>
<g id="Layer_5" class="st0">
</g>
<g id="Layer_2" class="st0">
	<g class="st2">
		<g>
			<g>
				<path class="st30" d="M36.7,66.5c2.9,1.9,5.8,3.1,9.1,4c0.2-1.6,0.4-3.3,0.7-4.9c-5.7,0.2-11-2.6-13.7-7.7
					c-3.9-7.3,2.4-12.3,8.3-15.7c10.5-5.9,23.1-8,34.6-11c3.2-0.8,1.8-5.3-1.3-4.8c-18.8,3-35.9,12.4-48.6,26.6
					c1.2,1.2,2.4,2.4,3.5,3.5c11.5-14.3,29.8-18,47-21.2c-0.4-1.6-0.9-3.2-1.3-4.8c-7.8,2.1-15.7,4.3-23.5,6.4
					c-2.6,0.7-2.2,5.2,0.7,4.9c6.7-0.7,13.3-1.5,20-2.2c3.2-0.4,3.2-5.4,0-5c-6.7,0.7-13.3,1.5-20,2.2c0.2,1.6,0.4,3.3,0.7,4.9
					c7.8-2.1,15.7-4.3,23.5-6.4c3.1-0.9,1.8-5.4-1.3-4.8C57,33.8,37.8,38,25.8,53c-2,2.5,1.4,6,3.5,3.5C41.4,42.9,57.6,34,75.7,31.2
					c-0.4-1.6-0.9-3.2-1.3-4.8c-9.1,2.3-18.4,4.3-27.1,7.6c-6.6,2.4-14.1,5.9-18.3,11.8C20.4,57.5,34.7,71,46.5,70.5
					c2.7-0.1,3.5-4.2,0.7-4.9c-2.9-0.7-5.4-1.9-7.9-3.5C36.6,60.4,34,64.7,36.7,66.5L36.7,66.5z"/>
			</g>
		</g>
		<g>
			<g>
				<path class="st30" d="M69.5,30.9c-8.3,0.7-16.4,2.5-24.1,5.6c-6.3,2.6-13.4,5.7-18,11c-3.3,3.9-4.9,9.5-2.7,14.3
					c3.2,6.8,10.3,5,16,7.8c0.2-1.5,0.4-3,0.6-4.6c-3.7,0.7-6.9,0-10.1-2c-2.2-1.4-4.6,1.3-3.4,3.4c3.6,6.4,10.6,6.9,17.1,5.1
					c2.3-0.7,2.4-4.2,0-4.8c-6.4-1.7-19.7-5.9-15.5-15.3c1.3-2.9-3-5.5-4.3-2.5c-5.8,13,8.2,20,18.5,22.7c0-1.6,0-3.2,0-4.8
					c-4.2,1.2-9,1.6-11.4-2.8c-1.1,1.1-2.3,2.3-3.4,3.4c4.3,2.8,8.9,3.5,13.9,2.5c2-0.4,2.5-3.6,0.6-4.6c-3.8-1.8-9.7-1.2-12.7-4
					c-5.5-5.2,1.6-12,6.1-14.8c9.8-6.1,21.4-9.5,32.9-10.5C72.7,35.6,72.7,30.6,69.5,30.9L69.5,30.9z"/>
			</g>
		</g>
		<g>
			<g>
				<path class="st30" d="M64,72.4c8.7-1.9,17.1-4.6,25.2-8.3c5.3-2.4,11.1-5.6,12.2-11.8c1.1-6-2.7-11.7-7.8-14.5
					c-7.1-3.9-15.6-2.8-23.4-2.9c-3.2-0.1-3.2,4.9,0,5c6.4,0.3,13.2,0.6,18.4,4.8c1.1,0.9,3,2.5,3.5,3.8c1,2.9-0.1,5.2-2.2,6.9
					c-2.6,2-5.2,3.9-7.9,5.9c-1.5,1.1-1.8,4.2,0.6,4.6c4.7,0.6,8.6-3,11.7-6.2c3.2-3.4,5.7-8,4.6-12.8c-2.3-10.6-17.3-13.5-26.1-15
					c0,1.6,0,3.2,0,4.8c5.6-1.9,18.5-2.1,19.7,6c1.4-0.8,2.8-1.6,4.2-2.4c-5.9-6.5-12.1-12.5-21.2-13.5c-2.5-0.3-3.4,3.6-1.3,4.7
					c4.1,2.1,8.3,3,12.9,2.4c2.6-0.3,3.6-4.1,0.7-4.9c-4.9-1.4-9.7-1.9-14.8-1.4c-3.2,0.3-3.2,5.3,0,5c4.7-0.4,8.9-0.1,13.4,1.2
					c0.2-1.6,0.4-3.3,0.7-4.9c-3.8,0.4-7,0-10.4-1.7c-0.4,1.6-0.8,3.1-1.3,4.7c7.5,0.8,12.9,6.7,17.6,12c1.9,2,4.5-0.2,4.2-2.4
					c-1.6-10.9-17.6-12.2-25.8-9.5c-2.1,0.7-2.6,4.4,0,4.8c6.3,1.1,13.7,2.5,18.9,6.4c3.6,2.6,4.7,6.6,2.3,10.6
					c-1.2,1.9-6.3,7.8-8.8,7.5c0.2,1.5,0.4,3,0.6,4.6c6.7-5,17.8-10.6,11.5-20.3c-5.8-8.7-16.2-10.1-25.8-10.5c0,1.7,0,3.3,0,5
					c5.6,0.1,11.5-0.6,17,0.8c6.3,1.7,13.1,8.7,7,14.7c-3.7,3.6-9.9,5.6-14.6,7.3c-5.5,2-11.1,3.6-16.9,4.9
					C59.5,68.3,60.8,73.1,64,72.4L64,72.4z"/>
			</g>
		</g>
		<g>
			<g>
				<path class="st30" d="M63.1,33.9c1.1-7.2,1.6-14.3,1.6-21.6c-1.7,0-3.3,0-5,0c0.9,6.9,1.2,13.9,1,20.9c1.7,0,3.3,0,5,0
					c-0.8-7.5-1-14.9-0.8-22.4c0.1-3.3-4.7-3.2-5,0c-0.6,7.3-1.5,17-9.3,20.3c-4.4,1.9-8.9,1.2-12,5.5c-1.2,1.6,0.4,3.7,2.2,3.8
					c4.6,0.1,8.6-1.3,12.7-3.2c4.4-2,10.3-3.9,14.1-6.9c2.1-1.7,1.9-3.5,1.2-5.8c-0.9-3-1.9-5.2-2-8.4c-0.1-1.2-0.6-6.9,0.5-7.8
					c-1.4-0.4-2.8-0.7-4.2-1.1c1.2,7.1,1.5,14.3,1.1,21.5c-0.2,2.8,4.4,3.5,4.9,0.7c2-11.1-3.4-21.2-3.5-32.2c0-2.7-4.5-3.6-4.9-0.7
					c-0.9,6.7-1.9,13.5-1.5,20.2c0.2,3.6,0.2,11.7,4,13.8c3.2,1.8,5.3-1.2,5.6-4c0.4-3.6-0.4-7.3-0.2-10.9c0.1-1,0.2-1.9,0.4-2.9
					c0.2-1.7,1-2.3,2.3-1.8c0.8-0.3,2.1-0.1,3.1-0.4c2.5-0.8,2.3-5.2-0.7-4.9c-2,0.2-4,0.4-6.1,0.6c-3.1,0.3-3.3,5.2,0,5
					c2.9-0.2,5.8-0.2,8.6-0.2C75.4,10.1,74.6,9,73.8,8c-2.8,7.4-4.5,15.1-5.1,23c1.7,0,3.3,0,5,0c-0.2-6.8,0.1-13.5,1-20.3
					c0.3-2.8-4.2-3.4-4.9-0.7c-1.1,4.5-2.2,9-3.3,13.5c1.6,0,3.2,0,4.8,0c-0.7-4-0.2-7.7,1.7-11.3c-1.6-0.4-3.1-0.8-4.7-1.3
					c0.2,3.1,0.2,6.2-0.3,9.3c1.6,0.2,3.3,0.4,4.9,0.7c0.2-1.8,0.9-3.3,2.3-4.4c-1.4-0.4-2.8-0.7-4.2-1.1c0.9,4.8,1.2,9.5,1.1,14.3
					c-0.1,2.7,4.4,3.5,4.9,0.7c1-6,1.9-11.9,2.6-17.9c-1.7,0-3.3,0-5,0c-0.3,5.6-0.6,11.1-0.9,16.7c-0.2,3.2,4.7,3.2,5,0
					c0.5-5.5,1.6-10.8,3.2-16.1c-1.6-0.2-3.3-0.4-4.9-0.7c0.5,5.1,0.9,10.1,1.4,15.2c0.2,2.5,3.2,3.3,4.7,1.3c1.2-1.6,1.6-3,1.6-5
					c0.1-2.8-4.4-3.5-4.9-0.7c-0.3,1.7-0.7,3.5-1,5.2c-0.6,3.1,4.2,4.5,4.8,1.3c2.2-10.4-0.3-21.2,2.5-31.4
					c-1.6-0.2-3.3-0.4-4.9-0.7c0.3,11.4,0.1,22.9-0.7,34.3c1.7,0,3.3,0,5,0C84.9,19.6,85.4,7.4,87-4.6c-1.6-0.2-3.3-0.4-4.9-0.7
					c0.1,12.6,0.3,25.2,0.4,37.8c0,3.2,5,3.2,5,0c-0.1-12.6-0.3-25.2-0.4-37.8c0-2.7-4.5-3.5-4.9-0.7c-1.8,12.5-2.3,25.1-1.6,37.7
					c0.2,3.2,4.8,3.2,5,0c0.7-11.4,0.9-22.8,0.7-34.3c-0.1-2.8-4.2-3.4-4.9-0.7c-2.8,10.3-0.3,21-2.5,31.4c1.6,0.4,3.2,0.9,4.8,1.3
					c0.3-1.7,0.7-3.5,1-5.2c-1.6-0.2-3.3-0.4-4.9-0.7c-0.3,0.8-0.6,1.7-1,2.5c1.6,0.4,3.1,0.8,4.7,1.3c-0.5-5.1-0.9-10.1-1.4-15.2
					c-0.3-2.7-4-3.5-4.9-0.7c-1.8,5.7-2.9,11.4-3.4,17.4c1.7,0,3.3,0,5,0c0.3-5.6,0.6-11.1,0.9-16.7c0.2-3.3-4.6-3.1-5,0
					C74,17.9,73.2,23.5,72.2,29c1.6,0.2,3.3,0.4,4.9,0.7c0.1-5.3-0.3-10.5-1.3-15.6c-0.4-1.9-2.9-2.3-4.2-1.1
					c-2.3,2.3-3.4,4.7-3.8,7.9c-0.3,2.8,4.5,3.5,4.9,0.7c0.5-3.6,0.7-7,0.5-10.7c-0.1-2.3-3.5-3.6-4.7-1.3
					c-2.5,4.9-3.2,9.8-2.2,15.2c0.4,2.5,4.3,2.3,4.8,0c1.1-4.5,2.2-9,3.3-13.5c-1.6-0.2-3.3-0.4-4.9-0.7c-0.8,6.8-1.1,13.5-1,20.3
					c0.1,3.2,4.8,3.2,5,0c0.5-7.5,2.2-14.6,4.9-21.6c0.6-1.6-0.9-3.1-2.4-3.2c-2.9-0.1-5.8,0-8.6,0.2c0,1.7,0,3.3,0,5
					c2-0.2,4-0.4,6.1-0.6c-0.2-1.6-0.4-3.3-0.7-4.9c-3.7,1.2-6.6-0.7-8.4,3.9c-0.8,2.1-1,4.6-1.1,6.8c-0.1,1.8,1.2,9,0,10.3
					c0.8-0.2,1.6-0.4,2.4-0.6c-2-0.4-1.8-11.9-1.8-14c0.1-4.8,0.7-9.5,1.4-14.3c-1.6-0.2-3.3-0.4-4.9-0.7
					c0.2,10.4,5.6,20.5,3.7,30.8c1.6,0.2,3.3,0.4,4.9,0.7c0.5-7.7,0-15.3-1.2-22.8c-0.3-2-2.9-2.2-4.2-1.1c-2.2,1.9-1.9,5.4-2,8.1
					c-0.1,3.9,0.1,7.9,1.5,11.5c1.1,2.9,1.2,0.9-0.7,2.8c-1.5,1.4-4.8,2.3-6.7,3.2c-4.8,2.3-9.5,5-15,4.9c0.7,1.3,1.4,2.5,2.2,3.8
					c1.9-2.5,6.7-2.2,9.3-3.2c2.7-1.1,4.9-2.9,6.7-5.1c4.6-5.6,5.3-13,5.9-20c-1.7,0-3.3,0-5,0c-0.2,7.5,0,14.9,0.8,22.4
					c0.3,3.1,4.9,3.3,5,0c0.2-7-0.2-13.9-1-20.9c-0.4-3.1-5-3.3-5,0c0,6.8-0.4,13.5-1.4,20.2C57.8,35.7,62.6,37.1,63.1,33.9
					L63.1,33.9z"/>
			</g>
		</g>
		<g>
			<g>
				<path class="st31" d="M64.2,18.2c1.8-1.4,4.8-4.3,7.1-4.7c2.6-0.5,6.2,3.8,8,5.3c0.7,0.6,1.7-0.4,1-1c-1.8-1.5-3.6-2.9-5.4-4.4
					c-0.6-0.5-1.7-1.8-2.6-1.9c-1.1-0.1-2.7,1.3-3.6,1.8c-1.8,1.1-3.6,2.3-5.3,3.6C62.8,17.5,63.5,18.7,64.2,18.2L64.2,18.2z"/>
			</g>
		</g>
		<g>
			<g>
				<path class="st31" d="M69.7,16.9c0.1,0.2,0.2,0.3,0.3,0.5c0.5,0.8,1.7,0,1.2-0.7c-0.1-0.2-0.2-0.3-0.3-0.5
					C70.4,15.4,69.2,16.1,69.7,16.9L69.7,16.9z"/>
			</g>
		</g>
		<g>
			<g>
				<path class="st31" d="M64.9,18.1c1.4,2.5,4.1,3.6,6.9,3.2c2.7-0.4,5.7-2.1,5.9-5.1c0.1-0.9-1.4-0.9-1.4,0
					c-0.1,2.4-3.1,3.7-5.1,3.8c-2.1,0.1-3.9-0.7-5-2.6C65.7,16.6,64.5,17.3,64.9,18.1L64.9,18.1z"/>
			</g>
		</g>
		<g>
			<g>
				<path class="st31" d="M70.8,16.9c0.9,0,0.9-1.4,0-1.4C69.9,15.5,69.9,16.9,70.8,16.9L70.8,16.9z"/>
			</g>
		</g>
		<g>
			<g>
				<path class="st31" d="M60.7,12.4c-0.4,5.1-0.7,10.1-1.1,15.2c0,0.6,0.8,1,1.2,0.5c0.9-1,2-3,3.1-3.7c0.6-0.4,0.2,0,0.2,0.8
					c0.1,0.8,0.5,1.7,0.7,2.4c0.2,0.6,1,0.7,1.3,0.2c1-1.6,2-3.1,3-4.7c0.5-0.8-0.7-1.5-1.2-0.7c-1,1.6-2,3.1-3,4.7
					c0.4,0.1,0.9,0.1,1.3,0.2c-0.4-1.4-0.6-3.2-1.4-4.4c-0.2-0.3-0.5-0.4-0.8-0.3c-1.5,0.2-3.3,3.4-4.2,4.5c0.4,0.2,0.8,0.3,1.2,0.5
					c0.4-5.1,0.7-10.1,1.1-15.2C62.2,11.5,60.7,11.5,60.7,12.4L60.7,12.4z"/>
			</g>
		</g>
		<g>
			<g>
				<path class="st31" d="M69.2,23.8c0.8,0.6,1.6,1.1,2.4,1.7c0.1,0.5,0.8,0.7,1.2,0.3c0.6-0.6,1.2-1.1,1.8-1.7
					c1.7,0.1,2.4,0.7,2,1.9c0,0.6,0.8,0.9,1.2,0.5c0.8-0.9,1.3-1.7,1.8-2.8c-0.4,0-0.8,0-1.2,0c1.2,1.7,2,3.3,2.2,5.4
					c0.1,0.4,0.4,0.9,0.9,0.7c2-0.8,2.6-2.3,2.8-4.5c0.4-4,0.5-8.1,0.7-12.1c0.1-0.9-1.4-0.9-1.4,0c-0.1,2.3-0.3,4.7-0.4,7
					c-0.1,2.1,0.4,7.2-2,8.2c0.3,0.2,0.6,0.5,0.9,0.7c-0.3-2.3-1-4.2-2.4-6.1c-0.3-0.4-1-0.5-1.2,0c-0.3,1-0.9,1.8-1.6,2.5
					c0.4,0.2,0.8,0.3,1.2,0.5c0.1-1.6-0.2-3.4-1.9-3.9c-1.9-0.6-3.2,1.6-4.4,2.7c0.4,0.1,0.8,0.2,1.2,0.3c-0.5-2.1-2.1-3.1-4.2-2.7
					C67.9,22.6,68.3,23.9,69.2,23.8L69.2,23.8z"/>
			</g>
		</g>
		<g>
			<g>
				<path class="st30" d="M33,58.4c1.1,4.7,5.3,6.5,9.7,7.1c0.7,0.1,1.3-0.9,0.5-1.3c-4.9-2.6-14-7.6-10.8-14.6
					c-0.4-0.1-0.9-0.2-1.3-0.4c0.6,4.8,1.1,9.5,5.2,12.5c1.7,1.3,3.6,2.2,5.6,2.8c2.5,0.7,5.2,0.5,7.6,1.4c0-0.5,0-0.9,0-1.4
					c-1.3,0-2.5,0.1-3.8,0.1c-0.1,0.5-0.1,0.9-0.2,1.4c1.2,0.1,2.4,0.2,3.6,0.3c0.9,0.1,0.9-1.3,0-1.4C48.6,65,48,65,47.4,64.9
					c-0.8-0.1-1,1.2-0.2,1.4c1.4,0.3,1.1,0.3,2.5,0.3c0.8,0,1-1.2,0.2-1.4c-1.3-0.3-1.2-0.3-2.4-0.4c-0.9-0.1-0.9,1.3,0,1.4
					c1.4,0.1,2.6,0.2,4,0.2c0.8,0,1-1.3,0.2-1.4c-0.5-0.1-1-0.1-1.5-0.2c-0.9-0.1-1.3,1.2-0.4,1.4c0.5,0.1,1,0.1,1.5,0.2
					c0.1-0.5,0.1-0.9,0.2-1.4c-1.4,0-2.6-0.1-4-0.2c0,0.5,0,0.9,0,1.4c0.7,0.1,1.4,0.2,2.1,0.4c0.1-0.5,0.1-0.9,0.2-1.4
					C49,65.1,48.3,65,47.6,65c-0.1,0.5-0.1,0.9-0.2,1.4c0.6,0.1,1.2,0.1,1.8,0.2c0-0.5,0-0.9,0-1.4c-1.2-0.1-2.4-0.2-3.6-0.3
					c-0.8-0.1-1,1.3-0.2,1.4c1.6,0.3,2.9,0.2,4.5-0.1c0.7-0.2,0.6-1.1,0-1.4c-3.5-1.3-7.3-0.8-10.7-2.7c-5.1-2.8-6-7.3-6.6-12.7
					c-0.1-0.6-1-1.1-1.3-0.4c-3.7,7.9,5.5,13.4,11.3,16.5c0.2-0.4,0.4-0.9,0.5-1.3c-3.8-0.6-7.7-1.9-8.7-6.1
					C34.1,57.1,32.8,57.5,33,58.4L33,58.4z"/>
			</g>
		</g>
		<g>
			<g>
				<path class="st30" d="M66,66.1c-2.1-0.1-4.2-0.2-6.3-0.2c0,0.5,0,0.9,0,1.4c13.5-0.6,26.6-4.7,35.8-15c0.6-0.7-0.3-1.6-1-1
					C83.8,60.7,70.2,65.5,56,65c-0.8,0-1,1.3-0.2,1.4c1.5,0.2,1.3,0.2,2.8,0.2c0.9,0,0.9-1.3,0-1.4c-1.2-0.1-2.4-0.2-3.6-0.3
					c0,0.5,0,0.9,0,1.4c2.3-0.1,4.5,0,6.8,0.2c-0.1-0.5-0.1-0.9-0.2-1.4c-2,0.4-3.6,0.4-5.6,0.3c-0.8-0.1-1,1.2-0.2,1.4
					c1.9,0.4,3.8,0.8,5.7,1.1c0.1-0.5,0.1-0.9,0.2-1.4c-1.7,0.2-3.4,0-5-0.6c-0.1,0.5-0.1,0.9-0.2,1.4c1.6,0.1,3.2,0.2,4.8,0.3
					c0.8,0.1,0.9-1.2,0.2-1.4c-1.9-0.6-3.8-1.1-5.7-1.5c-0.8-0.2-1.2,0.8-0.5,1.3c2,1.3,4.1,2.3,6.3,3.1c0.9,0.3,1.2-1.1,0.4-1.4
					c-2.3-0.8-4-1.6-6-2.9c-0.2,0.4-0.4,0.9-0.5,1.3c1.9,0.4,3.8,0.9,5.7,1.5c0.1-0.5,0.1-0.9,0.2-1.4c-1.6-0.1-3.2-0.2-4.8-0.3
					c-0.8-0.1-0.9,1.2-0.2,1.4c1.9,0.5,3.4,0.7,5.4,0.7c0.8,0,1-1.2,0.2-1.4c-1.9-0.4-3.8-0.8-5.7-1.1c-0.1,0.5-0.1,0.9-0.2,1.4
					c2.1,0.2,4,0,6-0.3c0.8-0.2,0.5-1.3-0.2-1.4c-2.3-0.2-4.5-0.3-6.8-0.2c-0.9,0-0.9,1.3,0,1.4c1.2,0.1,2.4,0.2,3.6,0.3
					c0-0.5,0-0.9,0-1.4c-0.8,0-1.6-0.1-2.4-0.1c-0.1,0.5-0.1,0.9-0.2,1.4c14.6,0.5,28.5-4.5,39.5-14.1c-0.3-0.3-0.7-0.7-1-1
					c-8.9,10.1-21.6,14-34.8,14.6c-0.9,0-0.9,1.4,0,1.4c2.1,0.1,4.2,0.2,6.3,0.2C66.9,67.6,66.9,66.2,66,66.1L66,66.1z"/>
			</g>
		</g>
		<g>
			<g>
				<path class="st30" d="M55.2,66.5c1.6,0.9,3.1,1.9,4.5,3.1c0.3-0.3,0.7-0.7,1-1c-1.4-1.2-2.9-2.3-4.4-3.3
					c-0.2,0.4-0.5,0.8-0.7,1.2c1.8,1.1,3.5,2.4,5.1,3.6c0.7,0.6,1.7-0.4,1-1c-1.8-1.4-3.5-2.7-5.4-3.9c-0.8-0.5-1.5,0.7-0.7,1.2
					c1.4,1,2.8,2,4.1,3.1c0.7,0.6,1.7-0.4,1-1c-1.5-1.3-3.1-2.4-4.8-3.3C55.1,64.8,54.4,66.1,55.2,66.5L55.2,66.5z"/>
			</g>
		</g>
		<g>
			<g>
				<path class="st30" d="M59.6,69.1c-1.6,0.2-3.1,0.6-4.6,1c0.1,0.5,0.3,0.9,0.4,1.4c2-0.6,4.1-1.1,6.1-1.7
					c-0.1-0.5-0.3-0.9-0.4-1.4c-2,0.6-3.9,1.1-5.9,1.7c0.1,0.5,0.3,0.9,0.4,1.4c1.6-0.6,3.2-1.1,4.9-1.2c-0.1-0.5-0.1-0.9-0.2-1.4
					c-1.8,0.3-3.7,0.6-5.5,0.9c0.1,0.5,0.3,0.9,0.4,1.4c1.6-0.6,3.1-0.8,4.8-0.8c-0.1-0.5-0.1-0.9-0.2-1.4c-1.9,0.5-3.8,1.1-5.8,1.6
					c0.1,0.5,0.3,0.9,0.4,1.4c1.8-0.6,3.7-1.2,5.6-1.6c-0.1-0.5-0.3-0.9-0.4-1.4c-2.1,0.8-4.3,1.3-6.5,1.7c0.1,0.5,0.3,0.9,0.4,1.4
					c2.1-0.5,4.1-1,6.2-1.5c-0.1-0.5-0.3-0.9-0.4-1.4c-0.5,0.1-1.1,0.3-1.6,0.4c-0.9,0.2-0.5,1.6,0.4,1.4c0.5-0.1,1.1-0.3,1.6-0.4
					c0.9-0.2,0.5-1.6-0.4-1.4c-2.1,0.5-4.2,1-6.2,1.5c-0.9,0.2-0.5,1.5,0.4,1.4c2.2-0.4,4.4-1,6.5-1.7c0.9-0.3,0.5-1.6-0.4-1.4
					c-1.9,0.5-3.7,1-5.6,1.6c-0.9,0.3-0.5,1.6,0.4,1.4c1.9-0.5,3.8-1.1,5.8-1.6c0.8-0.2,0.6-1.4-0.2-1.4c-1.8,0-3.5,0.3-5.2,0.9
					c-0.9,0.3-0.5,1.5,0.4,1.4c1.8-0.3,3.7-0.6,5.5-0.9c0.8-0.1,0.6-1.5-0.2-1.4c-1.8,0.2-3.6,0.6-5.3,1.3c-0.8,0.3-0.5,1.6,0.4,1.4
					c2-0.6,3.9-1.1,5.9-1.7c0.9-0.2,0.5-1.6-0.4-1.4c-2,0.6-4.1,1.1-6.1,1.7c-0.9,0.2-0.5,1.6,0.4,1.4c1.5-0.4,3-0.7,4.6-1
					C60.9,70.3,60.5,68.9,59.6,69.1L59.6,69.1z"/>
			</g>
		</g>
		<g>
			<g>
				<path class="st30" d="M50.8,66.6c0.9,0,0.9-1.4,0-1.4C49.9,65.2,49.9,66.6,50.8,66.6L50.8,66.6z"/>
			</g>
		</g>
		<g>
			<g>
				<path class="st30" d="M48.3,66.9c1.8,0.2,3.5,0.6,5.2,1.4c0.2-0.4,0.4-0.9,0.5-1.3c-1.7-0.4-3.4-0.7-5.2-1.1
					c-0.9-0.2-1.3,1.2-0.4,1.4c2,0.4,3.9,0.8,5.9,1.3c0.1-0.5,0.1-0.9,0.2-1.4c-1.8-0.1-3.5-0.4-5.2-0.9c-0.1,0.5-0.1,0.9-0.2,1.4
					c0.4,0,4.6,0.4,4.6,0.4c0.2-0.3,0.3-0.6,0.5-0.9c-2.4,0.5-4.9,0.9-7.3,1.3c0.1,0.5,0.3,0.9,0.4,1.4c2.2-0.4,4.3-0.8,6.5-1
					c0-0.5,0-0.9,0-1.4c-2.2,0.3-4.4,0.5-6.6,0.8c0.1,0.4,0.2,0.9,0.4,1.3c1.3-0.7,2.6-1.2,4.1-1.5c-0.1-0.5-0.3-0.9-0.4-1.4
					c-0.9,0.4-1.8,0.6-2.8,0.6c-0.9,0.1-0.9,1.5,0,1.4c1.1-0.1,2.2-0.3,3.2-0.7c0.9-0.3,0.5-1.5-0.4-1.4c-1.6,0.3-3,0.8-4.4,1.6
					c-0.6,0.3-0.4,1.4,0.4,1.3c2.2-0.3,4.4-0.5,6.6-0.8c0.9-0.1,0.9-1.5,0-1.4c-2.3,0.2-4.6,0.6-6.9,1c-0.9,0.2-0.5,1.5,0.4,1.4
					c2.4-0.4,4.9-0.8,7.3-1.3c0.4-0.1,0.5-0.5,0.5-0.9c-0.1-0.7-0.8-0.8-1.4-0.9c-1.5-0.2-3-0.3-4.5-0.5c-0.8-0.1-0.9,1.2-0.2,1.4
					c1.8,0.6,3.6,0.9,5.5,0.9c0.8,0,1-1.2,0.2-1.4c-2-0.4-3.9-0.8-5.9-1.3c-0.1,0.5-0.3,0.9-0.4,1.4c1.7,0.4,3.4,0.7,5.2,1.1
					c0.7,0.2,1.3-0.9,0.5-1.3c-1.9-0.9-3.8-1.4-5.9-1.6C47.4,65.4,47.4,66.8,48.3,66.9L48.3,66.9z"/>
			</g>
		</g>
		<g>
			<g>
				<path class="st30" d="M57,70.7c3.3-1.1,6.7-2,10.2-2.8c0.9-0.2,0.5-1.5-0.4-1.4c-2.4,0.4-4.9,0.7-7.3,1.1
					c0.1,0.5,0.3,0.9,0.4,1.4c1.8-0.7,3.5-1.3,5.4-1.5c-0.1-0.4-0.2-0.9-0.4-1.3c-3.9,2.1-7.9,3.5-12.2,4.2
					c-0.8,0.1-0.6,1.4,0.2,1.4c4.1-0.1,8.1-0.3,12.2-1.2c0.8-0.2,0.6-1.4-0.2-1.4c-4,0.1-7.9,0.6-11.8,1.4c0.2,0.4,0.4,0.9,0.5,1.3
					c1.7-0.7,5,0.5,6.8,0.9c0.9,0.2,1.2-1.1,0.4-1.4c-2.2-0.7-4.4-1.1-6.8-1.1c-0.8,0-0.9,1.1-0.2,1.4c2.4,0.9,4.9,1.4,7.4,1.6
					c0.9,0.1,0.9-1.3,0-1.4c-2-0.2-4-0.5-6.1-0.7c0,0.5,0,0.9,0,1.4c2.6-0.2,5.2-0.3,7.8-0.5c0.7,0,1-1.3,0.2-1.4
					c-1.7-0.2-3.4-0.5-5-0.7c-0.9-0.1-1.3,1.2-0.4,1.4c1.8,0.4,3.5,0.6,5.4,0.6c0.8,0,1-1.2,0.2-1.4c-1.2-0.2-2.4-0.4-3.6-0.4
					c-0.8,0-0.9,1.2-0.2,1.4c1.2,0.3,2.3,0.5,3.5,0.5c0.9,0,0.9-1.4,0-1.4c-1.1,0-2.1-0.2-3.1-0.5c-0.1,0.5-0.1,0.9-0.2,1.4
					c1.1,0,2.2,0.2,3.2,0.4c0.1-0.5,0.1-0.9,0.2-1.4c-1.7,0-3.3-0.2-5-0.5c-0.1,0.5-0.3,0.9-0.4,1.4c1.7,0.2,3.4,0.5,5,0.7
					c0.1-0.5,0.1-0.9,0.2-1.4c-2.6,0.2-5.2,0.3-7.8,0.5c-0.9,0.1-0.9,1.3,0,1.4c2,0.2,4,0.5,6.1,0.7c0-0.5,0-0.9,0-1.4
					c-2.5-0.2-4.7-0.7-7-1.6c-0.1,0.5-0.1,0.9-0.2,1.4c2.2,0,4.3,0.3,6.4,1c0.1-0.5,0.3-0.9,0.4-1.4c-2.4-0.5-5.5-1.8-7.8-0.8
					C52,71,52.6,72.2,53.4,72c3.8-0.8,7.6-1.2,11.4-1.3c-0.1-0.5-0.1-0.9-0.2-1.4c-3.9,0.8-7.8,1-11.8,1.1c0.1,0.5,0.1,0.9,0.2,1.4
					c4.4-0.8,8.6-2.3,12.5-4.4c0.6-0.3,0.4-1.4-0.4-1.3c-2,0.2-3.8,0.8-5.7,1.6c-0.9,0.3-0.5,1.5,0.4,1.4c2.4-0.4,4.9-0.7,7.3-1.1
					c-0.1-0.5-0.3-0.9-0.4-1.4c-3.4,0.8-6.8,1.7-10.2,2.8C55.7,69.6,56.1,71,57,70.7L57,70.7z"/>
			</g>
		</g>
		<g>
			<g>
				<path class="st30" d="M61.8,72c-2.2,1.1-4.1,1.8-6.4,2.4c0.2,0.4,0.4,0.9,0.5,1.3c2.7-1.2,5.3-2.1,8.1-3
					c-0.1-0.5-0.3-0.9-0.4-1.4c-2.9,1.2-5.7,2.4-8.6,3.5c-0.7,0.3-0.7,1.4,0.2,1.4c5,0.1,9.7-0.6,14.4-2.1c0.9-0.3,0.5-1.6-0.4-1.4
					c-3.8,0.8-7.7,1.2-11.6,1.3c0.1,0.5,0.1,0.9,0.2,1.4c3.8-1.2,7.7-2.3,11.5-3.5c-0.2-0.4-0.4-0.9-0.5-1.3
					c-2.7,1.5-5.3,2.3-8.2,2.8c-0.8,0.1-0.6,1.4,0.2,1.4c8.8,0.2,16.6-3.6,24.2-7.7c-0.2-0.4-0.5-0.8-0.7-1.2
					c-5.6,3.2-11.4,4.9-17.8,5.3c0,0.5,0,0.9,0,1.4c6.9-0.5,12.9-3.4,18.9-6.6c-0.2-0.4-0.5-0.8-0.7-1.2c-6.5,3.6-13.4,6.2-20.4,8.7
					c-0.9,0.3-0.5,1.5,0.4,1.4c11-2.2,21-6.8,29.9-13.7c0.7-0.6-0.3-1.6-1-1C84.9,66.8,75,71.3,64.3,73.4c0.1,0.5,0.3,0.9,0.4,1.4
					c7.1-2.6,14.1-5.2,20.8-8.9c0.8-0.4,0.1-1.7-0.7-1.2c-5.8,3.1-11.5,6-18.2,6.4c-0.9,0.1-0.9,1.5,0,1.4
					c6.7-0.4,12.8-2.2,18.6-5.5c0.8-0.5,0.1-1.7-0.7-1.2c-7.4,4-14.9,7.6-23.5,7.5c0.1,0.5,0.1,0.9,0.2,1.4c3.1-0.5,5.8-1.4,8.6-2.9
					c0.7-0.4,0.2-1.5-0.5-1.3c-3.8,1.2-7.7,2.3-11.5,3.5c-0.8,0.2-0.6,1.4,0.2,1.4c4.1,0,8-0.5,12-1.3c-0.1-0.5-0.3-0.9-0.4-1.4
					c-4.6,1.5-9.2,2.2-14.1,2.1c0.1,0.5,0.1,0.9,0.2,1.4c2.9-1.2,5.7-2.4,8.6-3.5c0.8-0.3,0.5-1.6-0.4-1.4c-2.9,0.9-5.7,1.9-8.4,3.1
					c-0.8,0.3-0.2,1.5,0.5,1.3c2.4-0.6,4.5-1.4,6.7-2.5C63.3,72.8,62.6,71.5,61.8,72L61.8,72z"/>
			</g>
		</g>
		<g>
			<g>
				<path class="st30" d="M68.5,74.1c8.8-1.5,17.2-4.8,24.6-9.9c5.3-3.7,11.2-8.7,8.9-15.8c-0.2-0.6-1.2-0.7-1.4,0
					c-1.3,7.3-5.9,13.2-12.8,16.1c-0.8,0.3-0.5,1.6,0.4,1.4c5.6-1.4,12.3-5.8,13.6-11.8c1.5-7-4.9-13.2-10.3-16.4
					c-0.2,0.4-0.4,0.9-0.5,1.3c7,2.1,10.1,8.6,8.2,15.6c-0.2,0.6,0.5,1.1,1,0.8c4.8-2.6,2.5-8.9,0.1-12.5c-2.2-3.1-4.9-5.9-7.3-8.8
					c-1.8-2.1-3.2-4.2-5.9-4.9c-0.9-0.2-1.3,1.1-0.4,1.4c3.4,0.9,5.9,5.3,8.1,7.9c2.5,3,11.4,12.1,4.7,15.7c0.3,0.3,0.7,0.5,1,0.8
					c2.1-7.6-1.5-15-9.2-17.3c-0.8-0.2-1.2,0.9-0.5,1.3C96,42,102,47.7,100,54.4c-1.7,5.3-6.9,8.8-12.1,10.1
					c0.1,0.5,0.3,0.9,0.4,1.4c7.3-3,12.4-9.2,13.8-17.1c-0.5,0-0.9,0-1.4,0c2.7,8.4-7.7,14.3-13.9,17.6c-5.8,3.1-12.1,5.1-18.6,6.3
					C67.3,72.9,67.6,74.3,68.5,74.1L68.5,74.1z"/>
			</g>
		</g>
		<g>
			<g>
				<path class="st30" d="M86,33.3c3-2.9,8.4,5.7,9.6,7.3c1.3,1.6,3.3,3.4,4.1,5.3c1.8,4.1,0.8,6.7-1.8,10c-0.6,0.7,0.4,1.7,1,1
					c5.1-6.1,3.5-10.1-1.1-15.8c-2.4-3-8-13.3-12.8-8.7C84.3,33,85.3,34,86,33.3L86,33.3z"/>
			</g>
		</g>
		<g>
			<g>
				<path class="st30" d="M45.8,69.6c1.5,2.3,3.4,3.7,6.1,4.3c0.8,0.2,1.3-0.9,0.5-1.3c-2-1-4.3-1.5-5.8-3.3c-0.3,0.3-0.7,0.7-1,1
					c1.2,1.1,2.4,2.1,3.7,3c0.2-0.4,0.5-0.8,0.7-1.2c-0.9-0.5-1.9-1.1-2.8-1.6c-0.7-0.4-1.5,0.6-0.9,1.1c0.9,0.7,0.8,0.7,1.8,1.2
					c0.2-0.4,0.4-0.9,0.5-1.3c-1.9-0.6-3.8-1-5.7-1.3c-0.8-0.1-1.3,0.8-0.5,1.3c1.4,0.9,2.7,1.4,4.4,1.6c0.8,0.1,1-1.3,0.2-1.4
					c-1.9-0.3-3.8-0.4-5.7-0.3c-0.8,0.1-0.9,1.1-0.2,1.4c1.2,0.5,2.4,0.8,3.6,1c0.1-0.5,0.3-0.9,0.4-1.4c-1.6-0.3-3.1-0.4-4.8-0.2
					c-0.7,0.1-0.6,1.2,0,1.4c2.7,0.8,5.3,1.4,8.1,1.7c0.8,0.1,0.9-1.2,0.2-1.4c-4.3-1.3-8.6-2.4-12.9-3.5c-0.7-0.2-1.3,1-0.5,1.3
					c3.4,1.5,6.7,2.8,10.5,2.5c0.7-0.1,1-1.2,0.2-1.4c-3-0.5-6.1-1.1-9.1-1.6c-0.1,0.5-0.3,0.9-0.4,1.4c3.7,0.5,8,1.8,11.7,1
					c0.9-0.2,0.5-1.5-0.4-1.4c-3.5,0.7-7.5-0.6-11-1c-0.9-0.1-1.3,1.2-0.4,1.4c3,0.5,6.1,1.1,9.1,1.6c0.1-0.5,0.1-0.9,0.2-1.4
					c-3.6,0.3-6.6-0.9-9.8-2.3c-0.2,0.4-0.4,0.9-0.5,1.3c4.3,1.1,8.7,2.2,12.9,3.5c0.1-0.5,0.1-0.9,0.2-1.4
					c-2.7-0.3-5.2-0.9-7.7-1.7c0,0.5,0,0.9,0,1.4c1.4-0.2,2.7-0.2,4,0.2c0.9,0.1,1.3-1.2,0.4-1.4c-1.3-0.2-2.4-0.5-3.6-1
					c-0.1,0.5-0.1,0.9-0.2,1.4c1.8-0.1,3.5-0.1,5.3,0.2c0.1-0.5,0.1-0.9,0.2-1.4c-1.4-0.1-2.6-0.6-3.7-1.4c-0.2,0.4-0.4,0.9-0.5,1.3
					c1.9,0.3,3.8,0.7,5.7,1.3c0.8,0.2,1.3-0.9,0.5-1.3c-0.5-0.3-1-0.7-1.5-1c-0.3,0.4-0.6,0.7-0.9,1.1c0.9,0.5,1.9,1.1,2.8,1.6
					c0.8,0.5,1.5-0.7,0.7-1.2c-1.2-0.9-2.3-1.7-3.4-2.8c-0.7-0.6-1.6,0.3-1,1c1.6,2,3.9,2.4,6.1,3.5c0.2-0.4,0.4-0.9,0.5-1.3
					c-2.3-0.5-4-1.7-5.2-3.7C46.6,68.1,45.3,68.8,45.8,69.6L45.8,69.6z"/>
			</g>
		</g>
		<g>
			<g>
				<path class="st30" d="M56.4,55.5c-0.8-2.1-0.9-5.3-0.1-7.4c0.4-1.1,1.4-2.6,2.7-2.5c1,0,1,0.6,1.2,1.5c0.2,0.8,0.3,1.6,0.4,2.4
					c0.1,0.9,1.5,0.9,1.4,0c-0.1-1.5-0.3-4.1-1.4-5.2c-1.1-1.1-2.5-0.3-3.6,0.5c-3.2,2.4-3.3,7.6-2,11.1
					C55.4,56.8,56.8,56.4,56.4,55.5L56.4,55.5z"/>
			</g>
		</g>
		<g>
			<g>
				<path class="st30" d="M59.7,52.9c0.8-0.9,2.6-1.8,3.8-1.5c1.4,0.4,2.2,2.6,2.1,3.8c-0.1,0.9,1.3,0.9,1.4,0
					c0.2-1.8-1-4.3-2.8-5.1c-1.8-0.7-4.4,0.3-5.6,1.7C58.1,52.6,59.1,53.6,59.7,52.9L59.7,52.9z"/>
			</g>
		</g>
		<g>
			<g>
				<path class="st30" d="M62.2,49.9c1.2-0.3,2.5-0.4,3.5,0.4c0.9,0.7,1.2,2,0.6,3c-0.5,0.8,0.7,1.5,1.2,0.7
					c0.9-1.4,0.6-3.3-0.6-4.5c-1.3-1.4-3.4-1.5-5.1-1C60.9,48.8,61.3,50.2,62.2,49.9L62.2,49.9z"/>
			</g>
		</g>
		<g>
			<g>
				<path class="st30" d="M65.7,55.2c-1.5,0.3-2-2.7-3.9-1.7c-0.7,0.3-1,1.1-1.8,1.4c-1.2,0.5-3.1,0.8-4.4,0.8c-0.9,0-0.9,1.5,0,1.4
					c2.1-0.1,4.3-0.6,6.1-1.5c0.4-0.2,0.9-0.6,1.5-0.3c0.3,0.1,0.5,0.7,0.8,0.9c0.7,0.5,1.2,0.6,1.9,0.4C67,56.4,66.6,55,65.7,55.2
					L65.7,55.2z"/>
			</g>
		</g>
		<g>
			<g>
				<path class="st30" d="M58.1,49.4c0.9,0,0.9-1.4,0-1.4C57.1,48,57.1,49.4,58.1,49.4L58.1,49.4z"/>
			</g>
		</g>
		<g>
			<g>
				<path class="st30" d="M58.8,47.5c0.9,0,0.9-1.4,0-1.4C57.9,46.1,57.9,47.5,58.8,47.5L58.8,47.5z"/>
			</g>
		</g>
	</g>
	<g class="st2">
		<g>
			<path class="st30" d="M104.7,64.1c0.1-0.6,0.2-1.2,0.3-1.9c0.1-0.7,0.6-5.6,3.1-2.5c0.8,1,0.1,2.5,0.8,3.5c1.7,2.3,6-1.8,6.5,2.9
				c0.1,0.9,1.5,0.9,1.4,0c-0.3-2.4-0.5-3.2-3.1-3.7c-1-0.2-2.4,0.2-3.3-0.3c-0.8-0.5-0.6-1.9-1.1-2.8c-0.7-1.4-2.3-2.4-3.8-1.7
				c-2.3,1-1.9,4.1-2.3,6.1C103.1,64.6,104.5,65,104.7,64.1L104.7,64.1z"/>
		</g>
	</g>
	<g class="st2">
		<g>
			<path class="st30" d="M106,61.8c0.9,0,0.9-1.4,0-1.4C105.1,60.4,105.1,61.8,106,61.8L106,61.8z"/>
		</g>
	</g>
	<g class="st2">
		<g>
			<path class="st30" d="M107.3,62.4c0.9,0,0.9-1.4,0-1.4C106.4,61,106.4,62.4,107.3,62.4L107.3,62.4z"/>
		</g>
	</g>
	<g class="st2">
		<g>
			<path class="st30" d="M103.2,64.7c-1.8,2-1.6,3.7,1.2,4.5c0.2,0.1,0.5,0,0.7-0.2c1-1.2,2-1.9,3.6-2.3c1.6-0.3,3.3-0.3,4.9-0.7
				c-0.3-0.2-0.6-0.3-0.9-0.5c0.3,1.4,0.1,3.6,2.1,3c1.2-0.3,2.7-1.6,1.6-2.8c-0.6-0.7-1.6,0.3-1,1c-0.5-0.5-0.5,0.9-1,0.2
				c-0.2-0.3-0.3-1.5-0.3-1.8c-0.1-0.4-0.5-0.6-0.9-0.5c-1.8,0.5-3.5,0.5-5.4,0.7c-0.9,0.1-1.8,0.1-2.5,0.6
				c-0.5,0.3-0.8,0.7-1.1,1.2c-0.1,0.1-0.1,0.8-0.2,0.9c0-0.2-0.1-0.4-0.1-0.6c-0.6-0.6-0.6-1.2,0.2-1.7
				C104.8,65.1,103.8,64.1,103.2,64.7L103.2,64.7z"/>
		</g>
	</g>
	<g class="st2">
		<g>
			<path class="st30" d="M113.2,60.2c0-0.4,0.1-0.8,0.1-1.3c0.1-0.6-0.1-0.9,0.5-1c0.6-0.1,1.5-0.3,2.1-0.2c1,0.1,0.8,1.1,0.9,1.9
				c0.1,0.8,0.2,1.6,0.3,2.4c0.1,0.9,1.5,0.9,1.4,0c-0.2-1.4-0.2-2.8-0.5-4.2c-0.2-1-0.9-1.5-1.9-1.5c-0.7,0-1.4,0.1-2,0.2
				c-0.4,0.1-1,0-1.4,0.3c-1,0.6-0.8,2.4-0.9,3.4C111.7,61.2,113.2,61.1,113.2,60.2L113.2,60.2z"/>
		</g>
	</g>
	<g class="st2">
		<g>
			<path class="st30" d="M116.3,54.4c0.1-0.7,2.8-1,3.6-0.6c1,0.6,0.9,2.1,1,3.2c0.1,1.7,0,3.6,0.5,5.3c0.6,1.9,3.4,2.7,5.2,2.7
				c0.2,0,0.5-0.1,0.6-0.4c0.6-1.1,0.2-2.5-0.1-3.7c-0.7-2.3-1.5-4.3-1.5-6.8c-0.1-3.5,0.7-4.7-3-5.1c-2.3-0.2-4.5-0.3-6.8,0
				c-1,0.1-2.7,0.1-3.4,0.8c-0.7,0.8-0.6,2.5-0.7,3.4c-0.2,2.6-0.1,5.1,0.2,7.7c0.1,0.6,0.7,0.9,1.2,0.5c0.2-0.1,0.4-0.3,0.6-0.4
				c0.7-0.6-0.3-1.6-1-1c-0.2,0.1-0.4,0.3-0.6,0.4c0.4,0.2,0.8,0.3,1.2,0.5c-0.2-1.8-0.3-3.6-0.3-5.5c0-1,0-2.3,0.2-3.3
				c0.4-1.8,1.3-1.7,3.1-1.8c1.7-0.1,3.5-0.2,5.2,0c1.7,0.1,2.5-0.2,2.7,1.6c0.1,1-0.1,2.1,0,3.2c0.1,1.5,0.4,2.8,0.9,4.2
				c0.3,0.9,0.9,1.8,0.9,2.7c0.4,0.7,0.3,1-0.4,1.1c-0.3-0.1-0.7-0.2-1-0.3c-2.5-0.7-2-3.3-2.1-5.5c-0.1-1.6-0.3-3.1-0.7-4.7
				c-0.1-0.3-0.4-0.5-0.7-0.5c-1.9,0.2-5.5-1.3-5.9,1.7C114.8,54.9,116.1,55.3,116.3,54.4L116.3,54.4z"/>
		</g>
	</g>
	<g class="st2">
		<g>
			<path class="st30" d="M118.5,62c1-0.5,2.2-0.2,3,0.5c0.7,0.6,1.7-0.4,1-1c-1.3-1.2-3.1-1.5-4.7-0.8
				C116.9,61.2,117.6,62.4,118.5,62L118.5,62z"/>
		</g>
	</g>
	<g class="st2">
		<g>
			<path class="st30" d="M119.2,57.6c0.9,0,0.9-1.4,0-1.4C118.2,56.2,118.2,57.6,119.2,57.6L119.2,57.6z"/>
		</g>
	</g>
	<g class="st2">
		<g>
			<g>
				<path class="st30" d="M19.1,67.6c0.9,0,0.9-1.4,0-1.4C18.2,66.2,18.2,67.6,19.1,67.6L19.1,67.6z"/>
			</g>
		</g>
		<g>
			<g>
				<path class="st30" d="M19.5,67c-0.4-1.2-0.7-3.4-1.6-4.4c-0.8-0.8-1.6-0.4-2.4,0.1c-1,0.5-1.4,0.9-1.3,2
					c0.1,1.1,0.4,2.2,0.6,3.2c0.1,0.8,0.1,2.1,0.6,2.8c0.4,0.7,1,0.6,1.7,0.5c1.3-0.2,3.2-0.3,4.3-1.1c1.1-0.8,1-1.9,1.1-3.1
					c0.1-1.8,0.5-4,0.2-5.8c0-0.2-0.3-0.4-0.5-0.5c-1-0.3-2.6,0.8-3.3,1.4c-1,1-0.7,2.8-0.8,4c0,0.9,1.4,0.9,1.4,0
					c0.1-1-0.2-2.4,0.6-3.2c1-0.9,1.1-0.8,1.1,0.4c-0.1,1.1-0.1,2.1-0.2,3.2c0,0.9,0,1.3-0.6,2c-0.6,0.7-0.7,0.6-1.6,0.8
					c-0.4,0.1-0.8,0.1-1.2,0.2c-0.3,0-0.6,0.1-0.8,0.2c-0.2,0.2-0.3,0.1-0.3-0.2c-0.5-0.6-0.4-2.4-0.6-3.2c-0.1-0.7-0.4-1.3,0-2
					c0-0.5,0.2-0.7,0.7-0.6c0.4-0.2,0.6,0,0.6,0.6c0.5,0.8,0.7,2,1,2.9C18.4,68.2,19.8,67.8,19.5,67L19.5,67z"/>
			</g>
		</g>
		<g>
			<g>
				<path class="st30" d="M16.4,67c0.9,0,0.9-1.4,0-1.4C15.5,65.6,15.5,67,16.4,67L16.4,67z"/>
			</g>
		</g>
	</g>
	<g class="st2">
		<g>
			<g>
				<path class="st30" d="M106.6,44.3c-0.1-1.7,2.4-1.9,3.8-2c2.4-0.1,2.6,1.4,3.4,3.4c0.1,0.4,0.5,0.6,0.9,0.5c1.3-0.2,4.2,0,5-1.4
					c0.7-1.4-1.2-4.6-1.4-6.1c-0.1-1.1,0-1.7-1.2-2c-2.4-0.5-6.2,0.7-8.4,1.2c-0.6,0.1-0.6,0.8-0.3,1.2c0.4,0.5,0.8,0.9,1.2,1.4
					c0-0.4,0.1-0.7,0.1-1.1c-2.9,1.4-5.3-0.2-5.7,3.8c0,0.3,0.2,0.6,0.5,0.7c0.3,0.1,0.7,0.2,1,0.3c0.9,0.3,1.2-1.1,0.4-1.4
					c-1.3-0.4,2.2-1.4,2.5-1.5c0.7-0.1,1.4-0.4,2-0.7c0.5-0.2,0.4-0.8,0.1-1.1c-0.4-0.5-0.8-0.9-1.2-1.4c-0.1,0.4-0.2,0.8-0.3,1.2
					c1.9-0.4,3.9-0.8,5.9-1c0.3,0,2.1-0.2,2-0.3c-0.2-0.2-0.1,0.8-0.1,1c0.1,1.4,0.7,2.6,1.1,3.9c0.5,1.5,0.4,0.9-0.6,1.5
					c-0.8,0.4-2.2,0.4-3,0.5c0.3,0.2,0.6,0.3,0.9,0.5c-0.4-1.1-0.8-3.8-1.9-4.5c-0.8-0.5-1.9-0.1-2.7,0c-1.2,0.2-4.1,0.1-5.1,1
					c-0.7,0.6-0.4,1.6-0.3,2.5C105.2,45.3,106.6,45.3,106.6,44.3L106.6,44.3z"/>
			</g>
		</g>
		<g>
			<g>
				<path class="st30" d="M116.3,41.2c0.9,0,0.9-1.4,0-1.4C115.4,39.8,115.4,41.2,116.3,41.2L116.3,41.2z"/>
			</g>
		</g>
	</g>
	<g class="st2">
		<g>
			<path class="st30" d="M129.7,58.7c0.9,0.1,1.8,0.1,2.7,0.1c0.6,0,1.7-0.3,2.2-0.1c0.2,0.1,1.3,1.7,1.2,2c-0.2,0.6-1.6,0.6-2,0.6
				c-0.4,0-0.7-0.1-1.1-0.1c-0.8-0.1-2.1-0.5-2.7,0.3c-0.2,0.3-0.2,0.6-0.2,0.8c0,0.4,0,0.9,0,1.3c0,0.1-0.3,2.1-0.6,1.8
				c-0.6-0.7-1.6,0.3-1,1c1.4,1.7,2.7-0.5,2.9-1.8c0.1-0.5,0-1.3,0.1-1.8c0.1-0.5,0.1-0.7,0-0.4c0.4,0,0.8,0.1,1.2,0.1
				c1.2,0.1,2.6,0.6,3.8,0.2c2.3-0.9,0.8-3.4-0.2-4.7c-0.4-0.6-0.8-0.8-1.5-0.8c-1.6-0.1-3.2,0.1-4.8,0
				C128.8,57.2,128.8,58.6,129.7,58.7L129.7,58.7z"/>
		</g>
	</g>
	<g class="st2">
		<g>
			<path class="st30" d="M133.7,60.4c0.9,0,0.9-1.4,0-1.4C132.7,59,132.7,60.4,133.7,60.4L133.7,60.4z"/>
		</g>
	</g>
	<g class="st2">
		<g>
			<path class="st30" d="M128.6,59.2c-0.3,1.8-0.4,3.6-0.4,5.4c0,0.9,1.4,0.9,1.4,0c0-1.7,0.1-3.3,0.3-5
				C130.1,58.7,128.8,58.3,128.6,59.2L128.6,59.2z"/>
		</g>
	</g>
	<g class="st2">
		<g>
			<path class="st30" d="M16.4,59c0.1-2.3,0.8-5,0.3-7.3c0-0.2-0.3-0.4-0.5-0.5c-2.3-0.8-5.5-0.5-8-0.7c-0.4,0-0.7,0.3-0.7,0.7
				c-0.1,2.3-0.3,4.6-0.7,6.9c-0.1,0.5,0.3,1,0.9,0.9c1.5-0.4,2.9-0.9,4.3-1.5c-0.3-0.1-0.7-0.3-1-0.4c0.2,1.5,0.2,2.9-0.2,4.4
				c-0.1,0.4,0.2,0.9,0.7,0.9c1.8-0.1,3.5-2.1,5.3-1.9c0.9,0.1,1.3-1.2,0.4-1.4c-2.3-0.3-3.5,1.7-5.6,1.8c0.2,0.3,0.5,0.6,0.7,0.9
				c0.4-1.7,0.5-3.4,0.2-5.2c-0.1-0.5-0.7-0.6-1-0.4c-1.3,0.6-2.6,1-3.9,1.4c0.3,0.3,0.6,0.6,0.9,0.9c0.4-2.4,0.7-4.8,0.8-7.2
				c-0.2,0.2-0.5,0.5-0.7,0.7c1.1,0.1,2.2,0.1,3.3,0.2c0.7,0,2.7-0.2,3.3,0.2c1.3,0.8,0.3,5.2,0.2,6.6C14.9,59.9,16.3,59.9,16.4,59
				L16.4,59z"/>
		</g>
	</g>
	<g class="st2">
		<g>
			<path class="st30" d="M10.2,53.7c0.9,0,0.9-1.4,0-1.4C9.2,52.3,9.2,53.7,10.2,53.7L10.2,53.7z"/>
		</g>
	</g>
	<g class="st2">
		<g>
			<path class="st30" d="M8.2,59c-0.3,0.8-0.7,1.6-1,2.3c-0.2,0.4-0.1,0.8,0.3,1c0.3,0.2,0.8,0.1,1-0.3c0.3-0.8,0.7-1.6,1-2.3
				c0.2-0.4,0.1-0.8-0.3-1C8.9,58.5,8.4,58.6,8.2,59L8.2,59z"/>
		</g>
	</g>
	<g class="st2">
		<g>
			<path class="st30" d="M5.7,59.1c1-0.3,2-0.7,3-1c0.9-0.3,0.5-1.7-0.4-1.4c-1,0.3-2,0.7-3,1C4.4,58.1,4.8,59.4,5.7,59.1L5.7,59.1z
				"/>
		</g>
	</g>
	<g class="st2">
		<g>
			<path class="st30" d="M4.8,56.2c0.7,0.2,1.4,0.2,2.2,0.2c0.9-0.1,0.9-1.5,0-1.4c-0.6,0-1.2,0-1.8-0.1C4.3,54.6,3.9,55.9,4.8,56.2
				L4.8,56.2z"/>
		</g>
	</g>
	<g class="st2">
		<g>
			<path class="st30" d="M17.7,55.3c1.5-0.3,2.7-1.1,3.6-2.3c0.5-0.7-0.7-1.4-1.2-0.7c-0.7,0.9-1.7,1.4-2.7,1.6
				C16.4,54.1,16.8,55.5,17.7,55.3L17.7,55.3z"/>
		</g>
	</g>
	<g class="st2">
		<g>
			<path class="st30" d="M16.8,57.7c1.3,0,2.5-0.5,3.5-1.4c0.7-0.6-0.3-1.6-1-1c-0.7,0.6-1.6,1-2.5,1C15.9,56.3,15.9,57.7,16.8,57.7
				L16.8,57.7z"/>
		</g>
	</g>
	<g class="st2">
		<g>
			<path class="st30" d="M129,52.6c-0.6-1,2.5-3,3.1-1.3c0.1,0.3,0.5,0.6,0.9,0.5c1.5-0.5,3.1-1.3,3.3-3.1c0.1-1.3-0.6-2.9-1-4.2
				c-0.3-1-0.6-2.1-1.4-3c-0.9-1.1-2.6-1.7-3.9-1c-2,1.2-0.6,3.4-0.6,5.2c0.3-0.2,0.6-0.5,0.9-0.7c-1.4-0.5-4.9-3.2-5.6-0.1
				c-0.2,0.9,0.3,1.4,0.8,2.2c0.7,1.3,0.6,2.2,0.4,3.6c-0.1,1,0,1.8,0.2,2.8c0.2,0.9,1.5,0.5,1.4-0.4c-0.3-1.9,0.9-4-0.1-5.8
				c-0.1-0.3-0.3-0.5-0.5-0.7c-0.6-0.8-0.9-0.6,0.3-1c1.1-0.3,1.7,0.4,2.8,0.8c0.4,0.2,0.9-0.3,0.9-0.7c0-0.7-0.4-1.5-0.4-2.1
				c0.1-3.9,2.6-1.1,3.2,0.4c0.9,2.3,1.9,5.3-1,6.4c0.3,0.2,0.6,0.3,0.9,0.5c-1.2-3.6-7.6-0.6-5.7,2.4
				C128.3,54.1,129.5,53.3,129,52.6L129,52.6z"/>
		</g>
	</g>
	<g class="st2">
		<g>
			<path class="st30" d="M132.2,46.9c0.9,0,0.9-1.4,0-1.4C131.2,45.5,131.2,46.9,132.2,46.9L132.2,46.9z"/>
		</g>
	</g>
	<g class="st2">
		<g>
			<path class="st30" d="M127.2,50.7c0.9,0,0.9-1.4,0-1.4C126.2,49.3,126.2,50.7,127.2,50.7L127.2,50.7z"/>
		</g>
	</g>
	<g class="st2">
		<g>
			<path class="st30" d="M126.4,52.7c0.3,1.2,0.2,2.4-0.2,3.6c-0.3,0.9,1.1,1.3,1.4,0.4c0.4-1.4,0.5-2.9,0.2-4.3
				C127.6,51.4,126.3,51.8,126.4,52.7L126.4,52.7z"/>
		</g>
	</g>
	<g class="st2">
		<g>
			<path class="st30" d="M130.2,51.1c-0.5,1.4-0.6,2.8-0.5,4.2c0.1,0.5,0.6,0.9,1.1,0.6c0.8-0.4,1.5-0.4,2.3-0.1
				c0.9,0.3,1.2-1,0.4-1.4c-1.2-0.4-2.4-0.3-3.4,0.3c0.4,0.2,0.7,0.4,1.1,0.6c-0.2-1.3,0-2.6,0.4-3.9
				C131.9,50.6,130.5,50.2,130.2,51.1L130.2,51.1z"/>
		</g>
	</g>
	<g class="st2">
		<g>
			<path class="st30" d="M131.5,54.8c0.3-0.3,0.7-0.5,1-0.8c0.3-0.2,0.5-0.6,0.3-1c-0.2-0.3-0.7-0.5-1-0.3c-0.3,0.3-0.7,0.5-1,0.8
				c-0.3,0.2-0.5,0.6-0.3,1C130.7,54.9,131.2,55.1,131.5,54.8L131.5,54.8z"/>
		</g>
	</g>
	<g class="st2">
		<g>
			<path class="st30" d="M20.3,75.5c0.2-2.7,7.1,0.5,8.3,0.2c1.8-0.4,1.2-1.9,0.6-3.1c-0.7-1.3-1.5-3.5-3.4-3.4
				c-1.9,0.1-1.7,2-1.6,3.4c0.4-0.2,0.7-0.4,1.1-0.6c-2.1-1.6-6.8-1.7-6.7,1.9c0,0.9,1.4,0.9,1.4,0c0.4-0.5,0.7-1,1.1-1.5
				c0.5-0.1,1-0.1,1.5,0c0.8,0.1,1.3,0.4,2,0.9c0.4,0.3,1.1-0.1,1.1-0.6c0-0.3,0-0.7-0.1-1c0.9-0.5,1.4-0.4,1.7,0.4
				c0.1,0.1,0.9,1.5,0.9,1.7c-0.3,0.9-3.9-0.4-4.7-0.5c-1.9-0.2-4.3-0.1-4.5,2.3C18.8,76.4,20.3,76.4,20.3,75.5L20.3,75.5z"/>
		</g>
	</g>
	<g class="st2">
		<g>
			<path class="st30" d="M28.2,76.7c0.9,0,0.9-1.4,0-1.4C27.2,75.3,27.2,76.7,28.2,76.7L28.2,76.7z"/>
		</g>
	</g>
	<g class="st2">
		<g>
			<path class="st30" d="M19,75.5c0,0.4,0,0.8,0,1.3c0,0.9,1.4,0.9,1.4,0c0-0.4,0-0.8,0-1.3C20.4,74.6,19,74.6,19,75.5L19,75.5z"/>
		</g>
	</g>
	<g class="st2">
		<g>
			<path class="st30" d="M6,73.6c0.4-1.1,0.7-2.2,1.5-3.1c1.2-1.3,3.4-0.4,4.1,1c0.8,1.6,3.1,4.5,2.4,6.3c0.1,0.6-0.1,0.9-0.7,0.9
				c-0.3,0.2-0.6,0.3-0.9,0.2c-0.4,0-0.8-0.2-1.2-0.3c-0.7-0.2-1.4-0.3-2.1-0.3c-1.5-0.1-2.9,0.3-4.2,1.1c0.3,0.1,0.6,0.2,1,0.3
				c-1.3-1.8-1.2-4.1,0.3-5.7c0.6-0.7-0.4-1.7-1-1c-2,2.1-2.2,5.1-0.5,7.4c0.2,0.3,0.6,0.5,1,0.3c1.9-1.3,4-1,6.1-0.4
				c0.8,0.2,1.8,0.5,2.7,0.1c2.4-1.2,0.6-5.4-0.4-6.9c-1.2-1.9-1.8-5.2-4.6-5.2c-2.9-0.1-4.1,2.8-4.9,5.1C4.4,74.1,5.8,74.5,6,73.6
				L6,73.6z"/>
		</g>
	</g>
	<g class="st2">
		<g>
			<path class="st30" d="M8.7,74.4c0.9,0,0.9-1.4,0-1.4C7.7,73,7.7,74.4,8.7,74.4L8.7,74.4z"/>
		</g>
	</g>
	<g class="st2">
		<g>
			<path class="st30" d="M9.4,72.7c0.9,0,0.9-1.4,0-1.4C8.5,71.3,8.5,72.7,9.4,72.7L9.4,72.7z"/>
		</g>
	</g>
	<g class="st2">
		<g>
			<path class="st30" d="M13.7,80.8c-0.2,1.3-0.2,2.6,0,3.9c0.2,0.9,1.5,0.5,1.4-0.4c-0.2-1-0.2-2.1,0-3.1
				C15.2,80.3,13.9,79.9,13.7,80.8L13.7,80.8z"/>
		</g>
	</g>
	<g class="st2">
		<g>
			<path class="st30" d="M4.4,81.2c-0.1,0.7-0.1,1.4-0.2,2.1c-0.1,0.6-0.1,1.2,0.3,1.7c0.3,0.3,0.8,0.5,1.2,0.4c0.5,0,1-0.4,1.5-0.3
				c0.9,0.2,1.3-1.2,0.4-1.4c-0.4-0.1-0.7-0.1-1.1,0c-0.1,0-0.8,0.3-0.9,0.2c-0.1-0.1,0.1-1,0.1-1.2c0.1-0.6,0.1-1.1,0.2-1.7
				C5.9,80.3,4.5,80.3,4.4,81.2L4.4,81.2z"/>
		</g>
	</g>
	<g class="st2">
		<g>
			<path class="st30" d="M12.6,84.9c0.2,0.1,0.3,0.2,0.5,0.3c0.8,0.4,1.5-0.8,0.7-1.2c-0.2-0.1-0.3-0.2-0.5-0.3
				C12.5,83.2,11.7,84.4,12.6,84.9L12.6,84.9z"/>
		</g>
	</g>
	<g class="st2">
		<g>
			<path class="st30" d="M84.6,75.5c-0.7-1.5,3.1-2.3,4.1-2.3c1-0.3,1.9,0,2.8,0.7c0,0.5,0.1,1,0.1,1.5c0.5,1.1-0.1,3,0.9,4
				c0.4,0.4,1,0.4,1.6,0.5c0.7,0.2,4.7-1.3,4.7,0.8c0,0.2-3.9,0.8-4.1,0.9c-3.3,0.5-6.2,0.3-9.5,0.2c-0.6,0-3.7,0.3-3.9,0.1
				c-1.3-1,1.2-1.5,1-1.4c2.2-1.3,1.6-1.7,1.3-5c-0.1-0.9-1.5-0.9-1.4,0c0.1,0.8,0.7,2.8-0.1,3.3c-0.6,0.4-1.1-0.2-1.7-0.1
				c-0.9,0.1-1.8-0.1-2.4,0.9c-0.9,1.4,0.1,2.9,1.4,3.6c1.4,0.7,3.5,0,5,0.1c2.7,0,5.3,0.5,8,0.2c1.8-0.2,7.6-0.3,8.6-2.4
				c0.8-1.7-0.9-2.6-2.2-2.9c-0.9-0.2-2.1,0.5-2.9,0.2c-2.1-0.8-2.5-3.1-2.9-4.9c-0.2-0.6-0.2-1.2-0.7-1.7c-1.4-1.1-5.7,0-7.1,0.6
				c-1.8,0.8-2.6,2-1.8,3.8C83.8,77,85,76.3,84.6,75.5L84.6,75.5z"/>
		</g>
	</g>
	<g class="st2">
		<g>
			<path class="st30" d="M98.2,83.4c0.9,0,0.9-1.4,0-1.4C97.2,82,97.2,83.4,98.2,83.4L98.2,83.4z"/>
		</g>
	</g>
	<g class="st2">
		<g>
			<path class="st30" d="M93.5,75.7c1.6,0.3,3.2,0,4.5-0.9c0.7-0.5,0-1.8-0.7-1.2c-1,0.7-2.2,1.1-3.4,0.8
				C92.9,74.2,92.6,75.6,93.5,75.7L93.5,75.7z"/>
		</g>
	</g>
	<g class="st2">
		<g>
			<path class="st30" d="M81.4,75.5c-0.3,0-0.7-0.4-0.6-0.7c0.1-0.4,0.5-0.5,0.9-0.4c0.9,0.3,1.2-1.1,0.4-1.4
				c-1.1-0.4-2.4,0.3-2.6,1.5c-0.3,1.2,0.8,2.4,2,2.4C82.3,76.9,82.3,75.5,81.4,75.5L81.4,75.5z"/>
		</g>
	</g>
	<g class="st2">
		<g>
			<path class="st30" d="M109.1,70.6c-1.2,0.1-3.4,0.2-4,1.4c-0.5,0.9-0.4,4.4,0.3,5.2c0.9,1.1,3,0.5,4.2,0.3
				c3.3-0.5,6.5-1.3,9.6-2.4c0.4-0.1,0.6-0.5,0.5-0.9c-0.9-5.3,2.1-2.6,2.7-5.3c0.1-0.5-0.2-0.9-0.7-0.9c-4-0.4-7.3,2.9-11.3,2.2
				c-0.9-0.2-1.3,1.2-0.4,1.4c4.2,0.7,7.6-2.5,11.7-2.2c-0.2-0.3-0.5-0.6-0.7-0.9c-0.1,0.5-2,1.2-2.4,1.9c-0.8,1.3-0.5,2.7-0.3,4.2
				c0.2-0.3,0.3-0.6,0.5-0.9c-2.5,0.9-5,1.6-7.6,2.1c-0.9,0.2-1.9,0.3-2.8,0.4c-0.9,0.5-1.4,0.3-1.6-0.6c-1.5-2,0.5-3.5,2.3-3.7
				C110,72,110.1,70.5,109.1,70.6L109.1,70.6z"/>
		</g>
	</g>
	<g class="st2">
		<g>
			<path class="st30" d="M116.2,76.7c0.3,1.7,0.5,3.3,0.8,5c0.1,0.9,1.5,0.5,1.4-0.4c-0.3-1.7-0.5-3.3-0.8-5
				C117.4,75.4,116.1,75.8,116.2,76.7L116.2,76.7z"/>
		</g>
	</g>
	<g class="st2">
		<g>
			<path class="st30" d="M118.6,81.7c0.4-0.2,0.8-0.3,1.3-0.5c0.4-0.1,0.6-0.5,0.5-0.9c-0.1-0.3-0.5-0.6-0.9-0.5
				c-0.4,0.2-0.8,0.3-1.3,0.5c-0.4,0.1-0.6,0.5-0.5,0.9C117.8,81.5,118.2,81.8,118.6,81.7L118.6,81.7z"/>
		</g>
	</g>
	<g class="st2">
		<g>
			<path class="st30" d="M114.4,77.5c-0.8,0.6-1.1,1.6-0.6,2.4c0.5,0.8,1.6,1,2.4,0.6c0.8-0.4,0.1-1.6-0.7-1.2
				c-0.4,0.2-0.8-0.3-0.4-0.6c0.3-0.2,0.5-0.6,0.3-1C115.2,77.5,114.7,77.3,114.4,77.5L114.4,77.5z"/>
		</g>
	</g>
	<g class="st2">
		<g>
			<path class="st30" d="M107.1,76.6c-1.1,1.6-1.8,3.5-2.1,5.4c-0.1,0.4,0.2,1,0.7,0.9c1.7-0.2,3.5-0.4,5.2-0.6
				c0.9-0.1,0.9-1.5,0-1.4c-1.7,0.2-3.5,0.4-5.2,0.6c0.2,0.3,0.5,0.6,0.7,0.9c0.3-1.8,0.9-3.5,1.9-5.1
				C108.8,76.6,107.5,75.9,107.1,76.6L107.1,76.6z"/>
		</g>
	</g>
	<g class="st2">
		<g>
			<path class="st30" d="M109.2,77.5c-0.6,0.5-0.8,1.3-0.7,2c0.1,0.4,0.5,0.5,0.9,0.5c0.2,0,0.5-0.1,0.7-0.1
				c0.4-0.1,0.6-0.5,0.5-0.9c-0.1-0.4-0.5-0.5-0.9-0.5c-0.2,0-0.5,0.1-0.7,0.1c0.3,0.2,0.6,0.3,0.9,0.5c0-0.3,0.1-0.5,0.3-0.6
				C110.9,77.9,109.9,76.9,109.2,77.5L109.2,77.5z"/>
		</g>
	</g>
	<g class="st2">
		<g>
			<path class="st30" d="M115.2,73.2c0.9,0,0.9-1.4,0-1.4C114.2,71.8,114.2,73.2,115.2,73.2L115.2,73.2z"/>
		</g>
	</g>
	<g class="st2">
		<g>
			<path class="st30" d="M111.9,73.9c0.9,0,0.9-1.4,0-1.4C111,72.5,111,73.9,111.9,73.9L111.9,73.9z"/>
		</g>
	</g>
	<g class="st2">
		<g>
			<path class="st30" d="M125.7,73.2c-0.5-0.3-0.7-0.7-0.6-1.3c0.4-0.2,0.8-0.2,1.3-0.3c0.5-0.1,1.1-0.1,1.6-0.2
				c0.7-0.1,1.2-0.2,1.9,0.3c0.4,0.4,1.2,1.6,1.3,2.2c0.1-0.2,0.1-0.5,0.2-0.7c-0.4,0.5-2.9,0.5-3.5,0.6c-1.4,0.2-2.7,0.5-4.1,0.7
				c-0.9,0.2-0.5,1.5,0.4,1.4c1.5-0.3,3.1-0.5,4.6-0.8c0.9-0.1,2.6-0.1,3.3-0.6c0.6-0.4,0.6-0.9,0.3-1.5c-0.4-0.9-1.1-2.1-1.8-2.7
				c-0.7-0.6-1.7-0.4-2.6-0.4c-1,0.1-2.3,0.1-3.3,0.5c-1.9,0.8-1.2,2.6,0,3.7C125.4,74.8,126.4,73.8,125.7,73.2L125.7,73.2z"/>
		</g>
	</g>
	<g class="st2">
		<g>
			<path class="st30" d="M123.5,75.6c-0.6,1.6-1.1,3.2-1.7,4.8c-0.3,0.9,1.1,1.2,1.4,0.4c0.6-1.6,1.1-3.2,1.7-4.8
				C125.2,75.1,123.8,74.7,123.5,75.6L123.5,75.6z"/>
		</g>
	</g>
	<g class="st2">
		<g>
			<path class="st30" d="M129.5,74.6c-0.6,1.6-1.2,3.2-1.8,4.7c-0.3,0.9,1,1.2,1.4,0.4c0.6-1.6,1.2-3.2,1.8-4.7
				C131.2,74.1,129.8,73.7,129.5,74.6L129.5,74.6z"/>
		</g>
	</g>
	<g class="st2">
		<g>
			<path class="st30" d="M126.4,72.2c-0.1,0.1-0.2,0.2-0.3,0.3c-0.6,0.6,0.4,1.6,1,1c0.1-0.1,0.2-0.2,0.3-0.3
				C128.1,72.6,127.1,71.6,126.4,72.2L126.4,72.2z"/>
		</g>
	</g>
	<g class="st2">
		<g>
			<path class="st30" d="M128.7,72.7c0.9,0,0.9-1.4,0-1.4C127.7,71.3,127.7,72.7,128.7,72.7L128.7,72.7z"/>
		</g>
	</g>
	<g class="st2">
		<g>
			<path class="st30" d="M131.1,69.5c0.3-0.3,0.5-0.6,0.8-0.9c0.3,0.1,0.6,0.3,0.9,0.4c0.3,0.3,0.5,0.8,0.7,1.2
				c0.2,0.7,0.3,1.4,0.3,2.1c0,0.4,0.1,1.3-0.1,1.4c-0.2,0.1-1.7-0.5-2-0.6c-0.9-0.3-1.2,1.1-0.4,1.4c1.1,0.3,3,1.4,3.7,0
				c0.6-1.3,0.2-3.7-0.3-5c-0.5-1.3-1.7-2.5-3.2-2.2c-1.3,0.2-2,1.4-1.8,2.7C129.9,70.7,131.3,70.4,131.1,69.5L131.1,69.5z"/>
		</g>
	</g>
	<g class="st2">
		<g>
			<path class="st30" d="M124.3,70.5c-1.4-1.7-4.1-0.3-4,1.8c0.1,2.6,3,3.3,5,2.3c0.8-0.4,0.1-1.6-0.7-1.2c-1,0.5-2.5,0.4-2.8-0.9
				c-0.2-0.9,0.9-1.8,1.6-1C123.9,72.2,124.9,71.2,124.3,70.5L124.3,70.5z"/>
		</g>
	</g>
	<g class="st2">
		<g>
			<path class="st30" d="M30.1,82c-2-2.9,5.5-0.9,6-0.9c0.9,0.1,1.7-0.1,2.6,0.3c1.1,0.5,1.5,1.6,2.2,2.6c0.4,0.6,1.3,0.4,1.3-0.4
				c0-1.6,0.1-4.4-0.9-5.7c-0.6-0.7-1.6-1.1-2.4-1.5c-1-0.6-2.1-1.3-3.3-1.7c-3.8-1.3-6.3,3.9-7.3,6.7c-0.3,0.9,1.1,1.2,1.4,0.4
				c0.4-1.2,0.9-2.3,1.6-3.4c0.3-0.5,0.8-1.3,1.3-1.6c1.4-1,2.4-0.8,3.8-0.2c1.3,0.6,2.7,1.2,3.6,2.4c0.9,1.3,0.8,3.1,0.8,4.6
				c0.4-0.1,0.9-0.2,1.3-0.4c-0.8-1.2-1.6-3.1-3.1-3.6c-0.8-0.2-1.9,0-2.7-0.1c-1.4-0.1-2.8-0.7-4.2-0.9c-2.3-0.2-4.8,1.6-3.2,3.9
				C29.4,83.5,30.7,82.8,30.1,82L30.1,82z"/>
		</g>
	</g>
	<g class="st2">
		<g>
			<path class="st30" d="M34.4,78.2c0.9,0,0.9-1.4,0-1.4C33.5,76.8,33.5,78.2,34.4,78.2L34.4,78.2z"/>
		</g>
	</g>
	<g class="st2">
		<g>
			<path class="st30" d="M35.9,78.7c0.9,0,0.9-1.4,0-1.4C35,77.3,35,78.7,35.9,78.7L35.9,78.7z"/>
		</g>
	</g>
	<g class="st2">
		<g>
			<path class="st30" d="M37.4,79.4c0.9,0,0.9-1.4,0-1.4C36.5,78,36.5,79.4,37.4,79.4L37.4,79.4z"/>
		</g>
	</g>
	<g class="st2">
		<g>
			<path class="st30" d="M52.6,84.1c-1.4-3.4,6.1-2.2,8-2.3c2.5-0.1,4.7-0.6,7-1.4c0.5-0.2,0.2-1,0.9-1c0.3,0.3,0.5,0.6,0.8,0.9
				c1.2,0.8,1.1,1.2-0.3,1.2c-1.1,0.7-4.7,0.2-6.1,0.3c-2,0.1-4.1,0.2-6.1,0.3c-0.8,0-0.9,1.1-0.2,1.4c2,0.8,4.7,2.6,7,2.5
				c1.9-0.1,2.9-2,4.8-2.3c0.9-0.1,0.9-1.5,0-1.4c-1.4,0.2-1.8,0.9-3.1,1.4c-2.8,1.2-5.6-0.5-8.3-1.6c-0.1,0.5-0.1,0.9-0.2,1.4
				c3.6-0.2,7.1-0.3,10.7-0.5c1.3-0.1,3.5,0.3,4.4-0.8c0.3-0.3,0.3-0.7,0-1c-1-1.2-2.1-3.2-3.8-3.5c-0.3,0-0.6,0-0.8,0.3
				c-1.8,2.5-5.4,2.3-8.2,2.3c-1.9,0-5.6-0.7-7.4,0.1c-2.2,1-1.4,1.9-0.5,3.9C51.6,85.3,52.9,84.9,52.6,84.1L52.6,84.1z"/>
		</g>
	</g>
	<g class="st2">
		<g>
			<path class="st30" d="M52.7,84.8c2.2,0,4.5-0.1,6.7-0.4c0.9-0.1,0.5-1.5-0.4-1.4c-2.1,0.3-4.2,0.4-6.3,0.4
				C51.7,83.4,51.7,84.8,52.7,84.8L52.7,84.8z"/>
		</g>
	</g>
	<g class="st2">
		<g>
			<path class="st30" d="M51.9,84.7c-0.7,0.7-1.3,1.5-2,2.2c-0.6,0.7,0.4,1.7,1,1c0.7-0.7,1.3-1.5,2-2.2
				C53.5,85.1,52.5,84.1,51.9,84.7L51.9,84.7z"/>
		</g>
	</g>
	<g class="st2">
		<g>
			<path class="st30" d="M67.9,80.4c0.9,0,0.9-1.4,0-1.4C67,79,67,80.4,67.9,80.4L67.9,80.4z"/>
		</g>
	</g>
	<g class="st2">
		<g>
			<path class="st30" d="M68.2,83.4c0.9,0,0.9-1.4,0-1.4C67.2,82,67.2,83.4,68.2,83.4L68.2,83.4z"/>
		</g>
	</g>
	<g class="st2">
		<g>
			<path class="st30" d="M68.2,81.7c0.9,0,0.9-1.4,0-1.4C67.2,80.3,67.2,81.7,68.2,81.7L68.2,81.7z"/>
		</g>
	</g>
	<g class="st2">
		<g>
			<path class="st30" d="M52.7,83.2c0.9,0,0.9-1.4,0-1.4C51.7,81.8,51.7,83.2,52.7,83.2L52.7,83.2z"/>
		</g>
	</g>
</g>
<g id="Layer_2_copy" class="st0">
</g>
<g id="Layer_7">
</g>
<g id="Layer_9">
</g>
<g id="Layer_8">
	<g>
		<g>
			<g>
				<g>
					<path class="st30" d="M46.4,79c2.9,1.9,5.8,3.1,9.1,4c0.2-1.6,0.4-3.3,0.7-4.9c-5.7,0.2-11-2.6-13.7-7.7
						C38.5,63,44.8,58,50.7,54.7c10.5-5.9,23.1-8,34.6-11c3.2-0.8,1.8-5.3-1.3-4.8c-18.8,3-35.9,12.4-48.6,26.6
						c1.2,1.2,2.4,2.4,3.5,3.5c11.5-14.3,29.8-18,47-21.2c-0.4-1.6-0.9-3.2-1.3-4.8c-7.8,2.1-15.7,4.3-23.5,6.4
						c-2.6,0.7-2.2,5.2,0.7,4.9c6.7-0.7,13.3-1.5,20-2.2c3.2-0.4,3.2-5.4,0-5c-6.7,0.7-13.3,1.5-20,2.2c0.2,1.6,0.4,3.3,0.7,4.9
						c7.8-2.1,15.7-4.3,23.5-6.4c3.1-0.9,1.8-5.4-1.3-4.8c-18,3.4-37.1,7.6-49.2,22.5c-2,2.5,1.4,6,3.5,3.5
						c12.1-13.6,28.3-22.5,46.4-25.3c-0.4-1.6-0.9-3.2-1.3-4.8c-9.1,2.3-18.4,4.3-27.1,7.6c-6.6,2.4-14.1,5.9-18.3,11.8
						C30.1,70,44.3,83.5,56.2,83c2.7-0.1,3.5-4.2,0.7-4.9c-2.9-0.7-5.4-1.9-7.9-3.5C46.2,72.9,43.7,77.2,46.4,79L46.4,79z"/>
				</g>
			</g>
			<g>
				<g>
					<path class="st30" d="M79.2,43.4c-8.3,0.7-16.4,2.5-24.1,5.6c-6.3,2.6-13.4,5.7-18,11c-3.3,3.9-4.9,9.5-2.7,14.3
						c3.2,6.8,10.3,5,16,7.8c0.2-1.5,0.4-3,0.6-4.6c-3.7,0.7-6.9,0-10.1-2c-2.2-1.4-4.6,1.3-3.4,3.4c3.6,6.4,10.6,6.9,17.1,5.1
						c2.3-0.7,2.4-4.2,0-4.8c-6.4-1.7-19.7-5.9-15.5-15.3c1.3-2.9-3-5.5-4.3-2.5c-5.8,13,8.2,20,18.5,22.7c0-1.6,0-3.2,0-4.8
						c-4.2,1.2-9,1.6-11.4-2.8c-1.1,1.1-2.3,2.3-3.4,3.4c4.3,2.8,8.9,3.5,13.9,2.5c2-0.4,2.5-3.6,0.6-4.6c-3.8-1.8-9.7-1.2-12.7-4
						c-5.5-5.2,1.6-12,6.1-14.8c9.8-6.1,21.4-9.5,32.9-10.5C82.4,48.2,82.4,43.2,79.2,43.4L79.2,43.4z"/>
				</g>
			</g>
			<g>
				<g>
					<path class="st30" d="M73.6,84.9c8.7-1.9,17.1-4.6,25.2-8.3c5.3-2.4,11.1-5.6,12.2-11.8c1.1-6-2.7-11.7-7.8-14.5
						c-7.1-3.9-15.6-2.8-23.4-2.9c-3.2-0.1-3.2,4.9,0,5c6.4,0.3,13.2,0.6,18.4,4.8c1.1,0.9,3,2.5,3.5,3.8c1,2.9-0.1,5.2-2.2,6.9
						c-2.6,2-5.2,3.9-7.9,5.9c-1.5,1.1-1.8,4.2,0.6,4.6c4.7,0.6,8.6-3,11.7-6.2c3.2-3.4,5.7-8,4.6-12.8c-2.3-10.6-17.3-13.5-26.1-15
						c0,1.6,0,3.2,0,4.8c5.6-1.9,18.5-2.1,19.7,6c1.4-0.8,2.8-1.6,4.2-2.4c-5.9-6.5-12.1-12.5-21.2-13.5c-2.5-0.3-3.4,3.6-1.3,4.7
						c4.1,2.1,8.3,3,12.9,2.4c2.6-0.3,3.6-4.1,0.7-4.9c-4.9-1.4-9.7-1.9-14.8-1.4c-3.2,0.3-3.2,5.3,0,5c4.7-0.4,8.9-0.1,13.4,1.2
						c0.2-1.6,0.4-3.3,0.7-4.9c-3.8,0.4-7,0-10.4-1.7c-0.4,1.6-0.8,3.1-1.3,4.7c7.5,0.8,12.9,6.7,17.6,12c1.9,2,4.5-0.2,4.2-2.4
						c-1.6-10.9-17.6-12.2-25.8-9.5c-2.1,0.7-2.6,4.4,0,4.8c6.3,1.1,13.7,2.5,18.9,6.4c3.6,2.6,4.7,6.6,2.3,10.6
						c-1.2,1.9-6.3,7.8-8.8,7.5c0.2,1.5,0.4,3,0.6,4.6c6.7-5,17.8-10.6,11.5-20.3c-5.8-8.7-16.2-10.1-25.8-10.5c0,1.7,0,3.3,0,5
						c5.6,0.1,11.5-0.6,17,0.8c6.3,1.7,13.1,8.7,7,14.7c-3.7,3.6-9.9,5.6-14.6,7.3c-5.5,2-11.1,3.6-16.9,4.9
						C69.2,80.8,70.5,85.6,73.6,84.9L73.6,84.9z"/>
				</g>
			</g>
			<g>
				<g>
					<path class="st30" d="M72.7,46.4c1.1-7.2,1.6-14.3,1.6-21.6c-1.7,0-3.3,0-5,0c0.9,6.9,1.2,13.9,1,20.9c1.7,0,3.3,0,5,0
						c-0.8-7.5-1-14.9-0.8-22.4c0.1-3.3-4.7-3.2-5,0c-0.6,7.3-1.5,17-9.3,20.3c-4.4,1.9-8.9,1.2-12,5.5c-1.2,1.6,0.4,3.7,2.2,3.8
						C55,53,59,51.5,63.1,49.6c4.4-2,10.3-3.9,14.1-6.9c2.1-1.7,1.9-3.5,1.2-5.8c-0.9-3-1.9-5.2-2-8.4c-0.1-1.2-0.6-6.9,0.5-7.8
						c-1.4-0.4-2.8-0.7-4.2-1.1c1.2,7.1,1.5,14.3,1.1,21.5c-0.2,2.8,4.4,3.5,4.9,0.7c2-11.1-3.4-21.2-3.5-32.2
						c0-2.7-4.5-3.6-4.9-0.7c-0.9,6.7-1.9,13.5-1.5,20.2c0.2,3.6,0.2,11.7,4,13.8c3.2,1.8,5.3-1.2,5.6-4c0.4-3.6-0.4-7.3-0.2-10.9
						c0.1-1,0.2-1.9,0.4-2.9c0.2-1.7,1-2.3,2.3-1.8c0.8-0.3,2.1-0.1,3.1-0.4c2.5-0.8,2.3-5.2-0.7-4.9c-2,0.2-4,0.4-6.1,0.6
						c-3.1,0.3-3.3,5.2,0,5c2.9-0.2,5.8-0.2,8.6-0.2c-0.8-1.1-1.6-2.1-2.4-3.2c-2.8,7.4-4.5,15.1-5.1,23c1.7,0,3.3,0,5,0
						c-0.2-6.8,0.1-13.5,1-20.3c0.3-2.8-4.2-3.4-4.9-0.7c-1.1,4.5-2.2,9-3.3,13.5c1.6,0,3.2,0,4.8,0c-0.7-4-0.2-7.7,1.7-11.3
						c-1.6-0.4-3.1-0.8-4.7-1.3c0.2,3.1,0.2,6.2-0.3,9.3c1.6,0.2,3.3,0.4,4.9,0.7c0.2-1.8,0.9-3.3,2.3-4.4c-1.4-0.4-2.8-0.7-4.2-1.1
						c0.9,4.8,1.2,9.5,1.1,14.3c-0.1,2.7,4.4,3.5,4.9,0.7c1-6,1.9-11.9,2.6-17.9c-1.7,0-3.3,0-5,0C84,30.4,83.7,36,83.4,41.6
						c-0.2,3.2,4.7,3.2,5,0c0.5-5.5,1.6-10.8,3.2-16.1c-1.6-0.2-3.3-0.4-4.9-0.7c0.5,5.1,0.9,10.1,1.4,15.2c0.2,2.5,3.2,3.3,4.7,1.3
						c1.2-1.6,1.6-3,1.6-5c0.1-2.8-4.4-3.5-4.9-0.7c-0.3,1.7-0.7,3.5-1,5.2c-0.6,3.1,4.2,4.5,4.8,1.3c2.2-10.4-0.3-21.2,2.5-31.4
						c-1.6-0.2-3.3-0.4-4.9-0.7c0.3,11.4,0.1,22.9-0.7,34.3c1.7,0,3.3,0,5,0C94.6,32.1,95,19.9,96.7,7.9c-1.6-0.2-3.3-0.4-4.9-0.7
						c0.1,12.6,0.3,25.2,0.4,37.8c0,3.2,5,3.2,5,0c-0.1-12.6-0.3-25.2-0.4-37.8c0-2.7-4.5-3.5-4.9-0.7c-1.8,12.5-2.3,25.1-1.6,37.7
						c0.2,3.2,4.8,3.2,5,0C96,32.8,96.2,21.4,95.9,10c-0.1-2.8-4.2-3.4-4.9-0.7c-2.8,10.3-0.3,21-2.5,31.4c1.6,0.4,3.2,0.9,4.8,1.3
						c0.3-1.7,0.7-3.5,1-5.2c-1.6-0.2-3.3-0.4-4.9-0.7c-0.3,0.8-0.6,1.7-1,2.5c1.6,0.4,3.1,0.8,4.7,1.3c-0.5-5.1-0.9-10.1-1.4-15.2
						c-0.3-2.7-4-3.5-4.9-0.7c-1.8,5.7-2.9,11.4-3.4,17.4c1.7,0,3.3,0,5,0c0.3-5.6,0.6-11.1,0.9-16.7c0.2-3.3-4.6-3.1-5,0
						c-0.7,5.6-1.5,11.1-2.5,16.6c1.6,0.2,3.3,0.4,4.9,0.7c0.1-5.3-0.3-10.5-1.3-15.6c-0.4-1.9-2.9-2.3-4.2-1.1
						c-2.3,2.3-3.4,4.7-3.8,7.9c-0.3,2.8,4.5,3.5,4.9,0.7c0.5-3.6,0.7-7,0.5-10.7c-0.1-2.3-3.5-3.6-4.7-1.3
						c-2.5,4.9-3.2,9.8-2.2,15.2c0.4,2.5,4.3,2.3,4.8,0c1.1-4.5,2.2-9,3.3-13.5c-1.6-0.2-3.3-0.4-4.9-0.7c-0.8,6.8-1.1,13.5-1,20.3
						c0.1,3.2,4.8,3.2,5,0c0.5-7.5,2.2-14.6,4.9-21.6c0.6-1.6-0.9-3.1-2.4-3.2c-2.9-0.1-5.8,0-8.6,0.2c0,1.7,0,3.3,0,5
						c2-0.2,4-0.4,6.1-0.6c-0.2-1.6-0.4-3.3-0.7-4.9c-3.7,1.2-6.6-0.7-8.4,3.9c-0.8,2.1-1,4.6-1.1,6.8c-0.1,1.8,1.2,9,0,10.3
						c0.8-0.2,1.6-0.4,2.4-0.6c-2-0.4-1.8-11.9-1.8-14c0.1-4.8,0.7-9.5,1.4-14.3c-1.6-0.2-3.3-0.4-4.9-0.7
						c0.2,10.4,5.6,20.5,3.7,30.8c1.6,0.2,3.3,0.4,4.9,0.7c0.5-7.7,0-15.3-1.2-22.8c-0.3-2-2.9-2.2-4.2-1.1c-2.2,1.9-1.9,5.4-2,8.1
						c-0.1,3.9,0.1,7.9,1.5,11.5c1.1,2.9,1.2,0.9-0.7,2.8c-1.5,1.4-4.8,2.3-6.7,3.2c-4.8,2.3-9.5,5-15,4.9c0.7,1.3,1.4,2.5,2.2,3.8
						c1.9-2.5,6.7-2.2,9.3-3.2c2.7-1.1,4.9-2.9,6.7-5.1c4.6-5.6,5.3-13,5.9-20c-1.7,0-3.3,0-5,0c-0.2,7.5,0,14.9,0.8,22.4
						c0.3,3.1,4.9,3.3,5,0c0.2-7-0.2-13.9-1-20.9c-0.4-3.1-5-3.3-5,0c0,6.8-0.4,13.5-1.4,20.2C67.4,48.2,72.3,49.6,72.7,46.4
						L72.7,46.4z"/>
				</g>
			</g>
			<g>
				<g>
					<path class="st31" d="M73.9,30.7c1.8-1.4,4.8-4.3,7.1-4.7c2.6-0.5,6.2,3.8,8,5.3c0.7,0.6,1.7-0.4,1-1c-1.8-1.5-3.6-2.9-5.4-4.4
						c-0.6-0.5-1.7-1.8-2.6-1.9c-1.1-0.1-2.7,1.3-3.6,1.8c-1.8,1.1-3.6,2.3-5.3,3.6C72.4,30,73.2,31.3,73.9,30.7L73.9,30.7z"/>
				</g>
			</g>
			<g>
				<g>
					<path class="st31" d="M74.6,30.6c1.4,2.5,4.1,3.6,6.9,3.2c2.7-0.4,5.7-2.1,5.9-5.1c0.1-0.9-1.4-0.9-1.4,0
						c-0.1,2.4-3.1,3.7-5.1,3.8c-2.1,0.1-3.9-0.7-5-2.6C75.3,29.1,74.1,29.9,74.6,30.6L74.6,30.6z"/>
				</g>
			</g>
			<g>
				<g>
					<path class="st31" d="M70.3,24.9C70,30,69.6,35,69.2,40.1c0,0.6,0.8,1,1.2,0.5c0.9-1,2-3,3.1-3.7c0.6-0.4,0.2,0,0.2,0.8
						c0.1,0.8,0.5,1.7,0.7,2.4c0.2,0.6,1,0.7,1.3,0.2c1-1.6,2-3.1,3-4.7c0.5-0.8-0.7-1.5-1.2-0.7c-1,1.6-2,3.1-3,4.7
						c0.4,0.1,0.9,0.1,1.3,0.2c-0.4-1.4-0.6-3.2-1.4-4.4c-0.2-0.3-0.5-0.4-0.8-0.3c-1.5,0.2-3.3,3.4-4.2,4.5
						c0.4,0.2,0.8,0.3,1.2,0.5C71,35,71.4,30,71.7,24.9C71.8,24,70.4,24,70.3,24.9L70.3,24.9z"/>
				</g>
			</g>
			<g>
				<g>
					<path class="st31" d="M78.8,36.3c0.8,0.6,1.6,1.1,2.4,1.7c0.1,0.5,0.8,0.7,1.2,0.3c0.6-0.6,1.2-1.1,1.8-1.7
						c1.7,0.1,2.4,0.7,2,1.9c0,0.6,0.8,0.9,1.2,0.5c0.8-0.9,1.3-1.7,1.8-2.8c-0.4,0-0.8,0-1.2,0c1.2,1.7,2,3.3,2.2,5.4
						c0.1,0.4,0.4,0.9,0.9,0.7c2-0.8,2.6-2.3,2.8-4.5c0.4-4,0.5-8.1,0.7-12.1c0.1-0.9-1.4-0.9-1.4,0c-0.1,2.3-0.3,4.7-0.4,7
						c-0.1,2.1,0.4,7.2-2,8.2c0.3,0.2,0.6,0.5,0.9,0.7c-0.3-2.3-1-4.2-2.4-6.1c-0.3-0.4-1-0.5-1.2,0c-0.3,1-0.9,1.8-1.6,2.5
						c0.4,0.2,0.8,0.3,1.2,0.5c0.1-1.6-0.2-3.4-1.9-3.9c-1.9-0.6-3.2,1.6-4.4,2.7c0.4,0.1,0.8,0.2,1.2,0.3c-0.5-2.1-2.1-3.1-4.2-2.7
						C77.6,35.1,77.9,36.5,78.8,36.3L78.8,36.3z"/>
				</g>
			</g>
			<g>
				<g>
					<path class="st30" d="M42.6,70.9c1.1,4.7,5.3,6.5,9.7,7.1c0.7,0.1,1.3-0.9,0.5-1.3c-4.9-2.6-14-7.6-10.8-14.6
						c-0.4-0.1-0.9-0.2-1.3-0.4c0.6,4.8,1.1,9.5,5.2,12.5c1.7,1.3,3.6,2.2,5.6,2.8c2.5,0.7,5.2,0.5,7.6,1.4c0-0.5,0-0.9,0-1.4
						c-1.3,0-2.5,0.1-3.8,0.1c-0.1,0.5-0.1,0.9-0.2,1.4c1.2,0.1,2.4,0.2,3.6,0.3c0.9,0.1,0.9-1.3,0-1.4c-0.6-0.1-1.2-0.1-1.8-0.2
						c-0.8-0.1-1,1.2-0.2,1.4c1.4,0.3,1.1,0.3,2.5,0.3c0.8,0,1-1.2,0.2-1.4c-1.3-0.3-1.2-0.3-2.4-0.4c-0.9-0.1-0.9,1.3,0,1.4
						c1.4,0.1,2.6,0.2,4,0.2c0.8,0,1-1.3,0.2-1.4c-0.5-0.1-1-0.1-1.5-0.2c-0.9-0.1-1.3,1.2-0.4,1.4c0.5,0.1,1,0.1,1.5,0.2
						c0.1-0.5,0.1-0.9,0.2-1.4c-1.4,0-2.6-0.1-4-0.2c0,0.5,0,0.9,0,1.4c0.7,0.1,1.4,0.2,2.1,0.4c0.1-0.5,0.1-0.9,0.2-1.4
						c-0.7-0.1-1.4-0.2-2.1-0.2c-0.1,0.5-0.1,0.9-0.2,1.4c0.6,0.1,1.2,0.1,1.8,0.2c0-0.5,0-0.9,0-1.4c-1.2-0.1-2.4-0.2-3.6-0.3
						c-0.8-0.1-1,1.3-0.2,1.4c1.6,0.3,2.9,0.2,4.5-0.1c0.7-0.2,0.6-1.1,0-1.4c-3.5-1.3-7.3-0.8-10.7-2.7c-5.1-2.8-6-7.3-6.6-12.7
						c-0.1-0.6-1-1.1-1.3-0.4c-3.7,7.9,5.5,13.4,11.3,16.5c0.2-0.4,0.4-0.9,0.5-1.3c-3.8-0.6-7.7-1.9-8.7-6.1
						C43.8,69.6,42.4,70,42.6,70.9L42.6,70.9z"/>
				</g>
			</g>
			<g>
				<g>
					<path class="st30" d="M75.6,78.7c-2.1-0.1-4.2-0.2-6.3-0.2c0,0.5,0,0.9,0,1.4c13.5-0.6,26.6-4.7,35.8-15c0.6-0.7-0.3-1.6-1-1
						C93.4,73.2,79.8,78,65.6,77.5c-0.8,0-1,1.3-0.2,1.4c1.5,0.2,1.3,0.2,2.8,0.2c0.9,0,0.9-1.3,0-1.4c-1.2-0.1-2.4-0.2-3.6-0.3
						c0,0.5,0,0.9,0,1.4c2.3-0.1,4.5,0,6.8,0.2c-0.1-0.5-0.1-0.9-0.2-1.4c-2,0.4-3.6,0.4-5.6,0.3c-0.8-0.1-1,1.2-0.2,1.4
						c1.9,0.4,3.8,0.8,5.7,1.1c0.1-0.5,0.1-0.9,0.2-1.4c-1.7,0.2-3.4,0-5-0.6c-0.1,0.5-0.1,0.9-0.2,1.4c1.6,0.1,3.2,0.2,4.8,0.3
						c0.8,0.1,0.9-1.2,0.2-1.4c-1.9-0.6-3.8-1.1-5.7-1.5c-0.8-0.2-1.2,0.8-0.5,1.3c2,1.3,4.1,2.3,6.3,3.1c0.9,0.3,1.2-1.1,0.4-1.4
						c-2.3-0.8-4-1.6-6-2.9c-0.2,0.4-0.4,0.9-0.5,1.3c1.9,0.4,3.8,0.9,5.7,1.5c0.1-0.5,0.1-0.9,0.2-1.4c-1.6-0.1-3.2-0.2-4.8-0.3
						c-0.8-0.1-0.9,1.2-0.2,1.4c1.9,0.5,3.4,0.7,5.4,0.7c0.8,0,1-1.2,0.2-1.4c-1.9-0.4-3.8-0.8-5.7-1.1c-0.1,0.5-0.1,0.9-0.2,1.4
						c2.1,0.2,4,0,6-0.3c0.8-0.2,0.5-1.3-0.2-1.4c-2.3-0.2-4.5-0.3-6.8-0.2c-0.9,0-0.9,1.3,0,1.4c1.2,0.1,2.4,0.2,3.6,0.3
						c0-0.5,0-0.9,0-1.4c-0.8,0-1.6-0.1-2.4-0.1c-0.1,0.5-0.1,0.9-0.2,1.4c14.6,0.5,28.5-4.5,39.5-14.1c-0.3-0.3-0.7-0.7-1-1
						c-8.9,10.1-21.6,14-34.8,14.6c-0.9,0-0.9,1.4,0,1.4c2.1,0.1,4.2,0.2,6.3,0.2C76.5,80.1,76.5,78.7,75.6,78.7L75.6,78.7z"/>
				</g>
			</g>
			<g>
				<g>
					<path class="st30" d="M64.8,79c1.6,0.9,3.1,1.9,4.5,3.1c0.3-0.3,0.7-0.7,1-1c-1.4-1.2-2.9-2.3-4.4-3.3
						c-0.2,0.4-0.5,0.8-0.7,1.2c1.8,1.1,3.5,2.4,5.1,3.6c0.7,0.6,1.7-0.4,1-1c-1.8-1.4-3.5-2.7-5.4-3.9c-0.8-0.5-1.5,0.7-0.7,1.2
						c1.4,1,2.8,2,4.1,3.1c0.7,0.6,1.7-0.4,1-1c-1.5-1.3-3.1-2.4-4.8-3.3C64.8,77.4,64,78.6,64.8,79L64.8,79z"/>
				</g>
			</g>
			<g>
				<g>
					<path class="st30" d="M69.2,81.6c-1.6,0.2-3.1,0.6-4.6,1c0.1,0.5,0.3,0.9,0.4,1.4c2-0.6,4.1-1.1,6.1-1.7
						c-0.1-0.5-0.3-0.9-0.4-1.4c-2,0.6-3.9,1.1-5.9,1.7c0.1,0.5,0.3,0.9,0.4,1.4c1.6-0.6,3.2-1.1,4.9-1.2c-0.1-0.5-0.1-0.9-0.2-1.4
						c-1.8,0.3-3.7,0.6-5.5,0.9c0.1,0.5,0.3,0.9,0.4,1.4c1.6-0.6,3.1-0.8,4.8-0.8c-0.1-0.5-0.1-0.9-0.2-1.4
						c-1.9,0.5-3.8,1.1-5.8,1.6c0.1,0.5,0.3,0.9,0.4,1.4c1.8-0.6,3.7-1.2,5.6-1.6c-0.1-0.5-0.3-0.9-0.4-1.4C67.2,82,65,82.6,62.8,83
						c0.1,0.5,0.3,0.9,0.4,1.4c2.1-0.5,4.1-1,6.2-1.5c-0.1-0.5-0.3-0.9-0.4-1.4c-0.5,0.1-1.1,0.3-1.6,0.4c-0.9,0.2-0.5,1.6,0.4,1.4
						c0.5-0.1,1.1-0.3,1.6-0.4c0.9-0.2,0.5-1.6-0.4-1.4c-2.1,0.5-4.2,1-6.2,1.5c-0.9,0.2-0.5,1.5,0.4,1.4c2.2-0.4,4.4-1,6.5-1.7
						c0.9-0.3,0.5-1.6-0.4-1.4c-1.9,0.5-3.7,1-5.6,1.6c-0.9,0.3-0.5,1.6,0.4,1.4c1.9-0.5,3.8-1.1,5.8-1.6c0.8-0.2,0.6-1.4-0.2-1.4
						c-1.8,0-3.5,0.3-5.2,0.9c-0.9,0.3-0.5,1.5,0.4,1.4c1.8-0.3,3.7-0.6,5.5-0.9c0.8-0.1,0.6-1.5-0.2-1.4c-1.8,0.2-3.6,0.6-5.3,1.3
						c-0.8,0.3-0.5,1.6,0.4,1.4c2-0.6,3.9-1.1,5.9-1.7c0.9-0.2,0.5-1.6-0.4-1.4c-2,0.6-4.1,1.1-6.1,1.7c-0.9,0.2-0.5,1.6,0.4,1.4
						c1.5-0.4,3-0.7,4.6-1C70.5,82.8,70.1,81.4,69.2,81.6L69.2,81.6z"/>
				</g>
			</g>
			<g>
				<g>
					<path class="st30" d="M60.5,79.1c0.9,0,0.9-1.4,0-1.4C59.5,77.7,59.5,79.1,60.5,79.1L60.5,79.1z"/>
				</g>
			</g>
			<g>
				<g>
					<path class="st30" d="M58,79.4c1.8,0.2,3.5,0.6,5.2,1.4c0.2-0.4,0.4-0.9,0.5-1.3c-1.7-0.4-3.4-0.7-5.2-1.1
						c-0.9-0.2-1.3,1.2-0.4,1.4c2,0.4,3.9,0.8,5.9,1.3c0.1-0.5,0.1-0.9,0.2-1.4c-1.8-0.1-3.5-0.4-5.2-0.9c-0.1,0.5-0.1,0.9-0.2,1.4
						c0.4,0,4.6,0.4,4.6,0.4c0.2-0.3,0.3-0.6,0.5-0.9c-2.4,0.5-4.9,0.9-7.3,1.3c0.1,0.5,0.3,0.9,0.4,1.4c2.2-0.4,4.3-0.8,6.5-1
						c0-0.5,0-0.9,0-1.4c-2.2,0.3-4.4,0.5-6.6,0.8c0.1,0.4,0.2,0.9,0.4,1.3c1.3-0.7,2.6-1.2,4.1-1.5c-0.1-0.5-0.3-0.9-0.4-1.4
						c-0.9,0.4-1.8,0.6-2.8,0.6c-0.9,0.1-0.9,1.5,0,1.4c1.1-0.1,2.2-0.3,3.2-0.7c0.9-0.3,0.5-1.5-0.4-1.4c-1.6,0.3-3,0.8-4.4,1.6
						c-0.6,0.3-0.4,1.4,0.4,1.3c2.2-0.3,4.4-0.5,6.6-0.8c0.9-0.1,0.9-1.5,0-1.4c-2.3,0.2-4.6,0.6-6.9,1c-0.9,0.2-0.5,1.5,0.4,1.4
						c2.4-0.4,4.9-0.8,7.3-1.3c0.4-0.1,0.5-0.5,0.5-0.9c-0.1-0.7-0.8-0.8-1.4-0.9c-1.5-0.2-3-0.3-4.5-0.5c-0.8-0.1-0.9,1.2-0.2,1.4
						c1.8,0.6,3.6,0.9,5.5,0.9c0.8,0,1-1.2,0.2-1.4c-2-0.4-3.9-0.8-5.9-1.3c-0.1,0.5-0.3,0.9-0.4,1.4c1.7,0.4,3.4,0.7,5.2,1.1
						c0.7,0.2,1.3-0.9,0.5-1.3C62,78.7,60,78.1,58,78C57,77.9,57.1,79.3,58,79.4L58,79.4z"/>
				</g>
			</g>
			<g>
				<g>
					<path class="st30" d="M66.6,83.2c3.3-1.1,6.7-2,10.2-2.8c0.9-0.2,0.5-1.5-0.4-1.4c-2.4,0.4-4.9,0.7-7.3,1.1
						c0.1,0.5,0.3,0.9,0.4,1.4c1.8-0.7,3.5-1.3,5.4-1.5c-0.1-0.4-0.2-0.9-0.4-1.3c-3.9,2.1-7.9,3.5-12.2,4.2
						c-0.8,0.1-0.6,1.4,0.2,1.4c4.1-0.1,8.1-0.3,12.2-1.2c0.8-0.2,0.6-1.4-0.2-1.4c-4,0.1-7.9,0.6-11.8,1.4c0.2,0.4,0.4,0.9,0.5,1.3
						c1.7-0.7,5,0.5,6.8,0.9c0.9,0.2,1.2-1.1,0.4-1.4c-2.2-0.7-4.4-1.1-6.8-1.1c-0.8,0-0.9,1.1-0.2,1.4c2.4,0.9,4.9,1.4,7.4,1.6
						c0.9,0.1,0.9-1.3,0-1.4c-2-0.2-4-0.5-6.1-0.7c0,0.5,0,0.9,0,1.4c2.6-0.2,5.2-0.3,7.8-0.5c0.7,0,1-1.3,0.2-1.4
						c-1.7-0.2-3.4-0.5-5-0.7c-0.9-0.1-1.3,1.2-0.4,1.4c1.8,0.4,3.5,0.6,5.4,0.6c0.8,0,1-1.2,0.2-1.4c-1.2-0.2-2.4-0.4-3.6-0.4
						c-0.8,0-0.9,1.2-0.2,1.4c1.2,0.3,2.3,0.5,3.5,0.5c0.9,0,0.9-1.4,0-1.4c-1.1,0-2.1-0.2-3.1-0.5c-0.1,0.5-0.1,0.9-0.2,1.4
						c1.1,0,2.2,0.2,3.2,0.4c0.1-0.5,0.1-0.9,0.2-1.4c-1.7,0-3.3-0.2-5-0.5c-0.1,0.5-0.3,0.9-0.4,1.4c1.7,0.2,3.4,0.5,5,0.7
						c0.1-0.5,0.1-0.9,0.2-1.4c-2.6,0.2-5.2,0.3-7.8,0.5c-0.9,0.1-0.9,1.3,0,1.4c2,0.2,4,0.5,6.1,0.7c0-0.5,0-0.9,0-1.4
						c-2.5-0.2-4.7-0.7-7-1.6c-0.1,0.5-0.1,0.9-0.2,1.4c2.2,0,4.3,0.3,6.4,1c0.1-0.5,0.3-0.9,0.4-1.4c-2.4-0.5-5.5-1.8-7.8-0.8
						c-0.8,0.3-0.2,1.5,0.5,1.3c3.8-0.8,7.6-1.2,11.4-1.3c-0.1-0.5-0.1-0.9-0.2-1.4c-3.9,0.8-7.8,1-11.8,1.1
						c0.1,0.5,0.1,0.9,0.2,1.4c4.4-0.8,8.6-2.3,12.5-4.4c0.6-0.3,0.4-1.4-0.4-1.3c-2,0.2-3.8,0.8-5.7,1.6c-0.9,0.3-0.5,1.5,0.4,1.4
						c2.4-0.4,4.9-0.7,7.3-1.1c-0.1-0.5-0.3-0.9-0.4-1.4c-3.4,0.8-6.8,1.7-10.2,2.8C65.4,82.1,65.8,83.5,66.6,83.2L66.6,83.2z"/>
				</g>
			</g>
			<g>
				<g>
					<path class="st30" d="M71.4,84.5c-2.2,1.1-4.1,1.8-6.4,2.4c0.2,0.4,0.4,0.9,0.5,1.3c2.7-1.2,5.3-2.1,8.1-3
						c-0.1-0.5-0.3-0.9-0.4-1.4c-2.9,1.2-5.7,2.4-8.6,3.5c-0.7,0.3-0.7,1.4,0.2,1.4c5,0.1,9.7-0.6,14.4-2.1c0.9-0.3,0.5-1.6-0.4-1.4
						c-3.8,0.8-7.7,1.2-11.6,1.3c0.1,0.5,0.1,0.9,0.2,1.4c3.8-1.2,7.7-2.3,11.5-3.5c-0.2-0.4-0.4-0.9-0.5-1.3
						c-2.7,1.5-5.3,2.3-8.2,2.8c-0.8,0.1-0.6,1.4,0.2,1.4c8.8,0.2,16.6-3.6,24.2-7.7c-0.2-0.4-0.5-0.8-0.7-1.2
						c-5.6,3.2-11.4,4.9-17.8,5.3c0,0.5,0,0.9,0,1.4c6.9-0.5,12.9-3.4,18.9-6.6c-0.2-0.4-0.5-0.8-0.7-1.2
						c-6.5,3.6-13.4,6.2-20.4,8.7c-0.9,0.3-0.5,1.5,0.4,1.4c11-2.2,21-6.8,29.9-13.7c0.7-0.6-0.3-1.6-1-1
						c-8.6,6.7-18.5,11.2-29.2,13.3c0.1,0.5,0.3,0.9,0.4,1.4c7.1-2.6,14.1-5.2,20.8-8.9c0.8-0.4,0.1-1.7-0.7-1.2
						c-5.8,3.1-11.5,6-18.2,6.4c-0.9,0.1-0.9,1.5,0,1.4c6.7-0.4,12.8-2.2,18.6-5.5c0.8-0.5,0.1-1.7-0.7-1.2
						c-7.4,4-14.9,7.6-23.5,7.5c0.1,0.5,0.1,0.9,0.2,1.4c3.1-0.5,5.8-1.4,8.6-2.9c0.7-0.4,0.2-1.5-0.5-1.3
						c-3.8,1.2-7.7,2.3-11.5,3.5c-0.8,0.2-0.6,1.4,0.2,1.4c4.1,0,8-0.5,12-1.3c-0.1-0.5-0.3-0.9-0.4-1.4c-4.6,1.5-9.2,2.2-14.1,2.1
						c0.1,0.5,0.1,0.9,0.2,1.4c2.9-1.2,5.7-2.4,8.6-3.5c0.8-0.3,0.5-1.6-0.4-1.4c-2.9,0.9-5.7,1.9-8.4,3.1c-0.8,0.3-0.2,1.5,0.5,1.3
						c2.4-0.6,4.5-1.4,6.7-2.5C73,85.3,72.3,84.1,71.4,84.5L71.4,84.5z"/>
				</g>
			</g>
			<g>
				<g>
					<path class="st30" d="M78.2,86.6c8.8-1.5,17.2-4.8,24.6-9.9c5.3-3.7,11.2-8.7,8.9-15.8c-0.2-0.6-1.2-0.7-1.4,0
						c-1.3,7.3-5.9,13.2-12.8,16.1c-0.8,0.3-0.5,1.6,0.4,1.4c5.6-1.4,12.3-5.8,13.6-11.8c1.5-7-4.9-13.2-10.3-16.4
						c-0.2,0.4-0.4,0.9-0.5,1.3c7,2.1,10.1,8.6,8.2,15.6c-0.2,0.6,0.5,1.1,1,0.8c4.8-2.6,2.5-8.9,0.1-12.5c-2.2-3.1-4.9-5.9-7.3-8.8
						c-1.8-2.1-3.2-4.2-5.9-4.9c-0.9-0.2-1.3,1.1-0.4,1.4c3.4,0.9,5.9,5.3,8.1,7.9c2.5,3,11.4,12.1,4.7,15.7c0.3,0.3,0.7,0.5,1,0.8
						c2.1-7.6-1.5-15-9.2-17.3c-0.8-0.2-1.2,0.9-0.5,1.3c5.2,3.1,11.3,8.9,9.2,15.5c-1.7,5.3-6.9,8.8-12.1,10.1
						c0.1,0.5,0.3,0.9,0.4,1.4c7.3-3,12.4-9.2,13.8-17.1c-0.5,0-0.9,0-1.4,0c2.7,8.4-7.7,14.3-13.9,17.6c-5.8,3.1-12.1,5.1-18.6,6.3
						C76.9,85.4,77.3,86.8,78.2,86.6L78.2,86.6z"/>
				</g>
			</g>
			<g>
				<g>
					<path class="st30" d="M95.6,45.8c3-2.9,8.4,5.7,9.6,7.3c1.3,1.6,3.3,3.4,4.1,5.3c1.8,4.1,0.8,6.7-1.8,10c-0.6,0.7,0.4,1.7,1,1
						c5.1-6.1,3.5-10.1-1.1-15.8c-2.4-3-8-13.3-12.8-8.7C94,45.5,95,46.5,95.6,45.8L95.6,45.8z"/>
				</g>
			</g>
			<g>
				<g>
					<path class="st30" d="M55.5,82.1c1.5,2.3,3.4,3.7,6.1,4.3c0.8,0.2,1.3-0.9,0.5-1.3c-2-1-4.3-1.5-5.8-3.3c-0.3,0.3-0.7,0.7-1,1
						c1.2,1.1,2.4,2.1,3.7,3c0.2-0.4,0.5-0.8,0.7-1.2c-0.9-0.5-1.9-1.1-2.8-1.6c-0.7-0.4-1.5,0.6-0.9,1.1c0.9,0.7,0.8,0.7,1.8,1.2
						c0.2-0.4,0.4-0.9,0.5-1.3c-1.9-0.6-3.8-1-5.7-1.3c-0.8-0.1-1.3,0.8-0.5,1.3c1.4,0.9,2.7,1.4,4.4,1.6c0.8,0.1,1-1.3,0.2-1.4
						c-1.9-0.3-3.8-0.4-5.7-0.3c-0.8,0.1-0.9,1.1-0.2,1.4c1.2,0.5,2.4,0.8,3.6,1c0.1-0.5,0.3-0.9,0.4-1.4c-1.6-0.3-3.1-0.4-4.8-0.2
						c-0.7,0.1-0.6,1.2,0,1.4c2.7,0.8,5.3,1.4,8.1,1.7c0.8,0.1,0.9-1.2,0.2-1.4c-4.3-1.3-8.6-2.4-12.9-3.5c-0.7-0.2-1.3,1-0.5,1.3
						c3.4,1.5,6.7,2.8,10.5,2.5c0.7-0.1,1-1.2,0.2-1.4c-3-0.5-6.1-1.1-9.1-1.6c-0.1,0.5-0.3,0.9-0.4,1.4c3.7,0.5,8,1.8,11.7,1
						c0.9-0.2,0.5-1.5-0.4-1.4c-3.5,0.7-7.5-0.6-11-1c-0.9-0.1-1.3,1.2-0.4,1.4c3,0.5,6.1,1.1,9.1,1.6c0.1-0.5,0.1-0.9,0.2-1.4
						c-3.6,0.3-6.6-0.9-9.8-2.3c-0.2,0.4-0.4,0.9-0.5,1.3c4.3,1.1,8.7,2.2,12.9,3.5c0.1-0.5,0.1-0.9,0.2-1.4
						c-2.7-0.3-5.2-0.9-7.7-1.7c0,0.5,0,0.9,0,1.4c1.4-0.2,2.7-0.2,4,0.2c0.9,0.1,1.3-1.2,0.4-1.4c-1.3-0.2-2.4-0.5-3.6-1
						c-0.1,0.5-0.1,0.9-0.2,1.4c1.8-0.1,3.5-0.1,5.3,0.2c0.1-0.5,0.1-0.9,0.2-1.4c-1.4-0.1-2.6-0.6-3.7-1.4
						c-0.2,0.4-0.4,0.9-0.5,1.3c1.9,0.3,3.8,0.7,5.7,1.3c0.8,0.2,1.3-0.9,0.5-1.3c-0.5-0.3-1-0.7-1.5-1c-0.3,0.4-0.6,0.7-0.9,1.1
						c0.9,0.5,1.9,1.1,2.8,1.6c0.8,0.5,1.5-0.7,0.7-1.2c-1.2-0.9-2.3-1.7-3.4-2.8c-0.7-0.6-1.6,0.3-1,1c1.6,2,3.9,2.4,6.1,3.5
						c0.2-0.4,0.4-0.9,0.5-1.3c-2.3-0.5-4-1.7-5.2-3.7C56.2,80.6,55,81.3,55.5,82.1L55.5,82.1z"/>
				</g>
			</g>
			<g>
				<g>
					<path class="st31" d="M80.9,30.5c-0.3,0.7-0.4,1.6,0.5,1.9c0.8,0.3,1.5-0.3,1.8-1c0.1-0.3,0.1-0.6-0.1-0.9
						c-0.4-0.4-1-0.7-1.6-0.3c-0.6,0.3-0.7,1.1-0.3,1.6c0.8,1,2.3-0.3,1.7-1.3c-0.2-0.5-0.7-0.8-1.2-0.8c-0.7-0.1-1.2,0.4-1.2,1.1
						c0,0.6,0.2,1.2,0.7,1.6c0.5,0.4,1.2,0.5,1.6-0.1c0.6-1,0-3-1.4-2.6c-1.1,0.3-1.7,2.1-0.6,2.7c1.2,0.7,2.3-0.7,1.9-1.8
						c-0.1-0.5-0.5-1-1.1-0.9c-0.6,0-1,0.6-1,1.2c-0.1,1.1,1,2,2,1.4c1-0.6,1-2,0-2.6c-1-0.6-2.5-0.3-2.6,1.1c0,1.2,1.3,2,2.4,1.8
						c1.4-0.3,1-2.1,0-2.6c-1-0.5-2.6,0.3-2.4,1.6c0.2,1.2,1.7,1.3,2.6,0.9c1.1-0.5,1.2-2.1,0.1-2.7c-1.3-0.7-2.7,0.6-2.5,1.9
						c0.2,1.4,2.1,1.6,2.6,0.2c0.5-1.2-0.9-2.3-2-2c-0.6,0.2-1,0.8-1.1,1.4c-0.1,0.6,0.2,1.2,0.7,1.5c0.3,0.2,0.8,0,1-0.3
						c0.2-0.4,0-0.7-0.3-1c-0.1,0-0.1-0.3,0-0.3c0.1-0.1,0.2,0.1,0.3,0.1c0,0,0,0.1,0,0.1c0,0-0.1,0,0,0c0.2,0.1,0.2,0.1,0.2,0
						c0.1-0.1,0-0.4,0.3-0.5c0.1,0,0.2,0.1,0.2,0.2c0,0-0.1,0-0.1,0.1c-0.2,0.1-0.4,0-0.6,0.1c-0.1-0.1-0.2,0-0.1,0.1c0,0,0,0.1,0,0
						c0.1,0,0.2-0.1,0.3-0.1c0.1,0,0.1,0.1,0.2,0.1c0,0,0,0.1,0,0.1c0.2-0.2,0.3-0.3,0-0.2c-0.2-0.1-0.5,0-0.5-0.3
						c0-0.1,0.3,0.1,0.4,0.1c0,0,0.3,0.2,0.1,0c0,0-0.1,0.1-0.1,0.1c0,0,0.2,0.1,0.1-0.1c-0.1,0.2-0.4,0.2-0.7-0.1
						c0,0.1,0.1,0.1,0.1,0.2c0,0.1,0,0.1,0,0.1c0.2,0.3,0.2,0.1,0.3,0c0-0.1,0.1-0.1,0.1-0.2c-0.2-0.1-0.3,0-0.2,0.1
						c0,0.1,0,0.2,0,0.3c-0.1,0.3,0.1,0.2,0.5-0.1c0,0-0.2-0.5-0.2-0.5c0,0-0.9,0.3-0.3,0.3c0.1,0.1,0.2,0,0.1-0.3
						c0,0.3,0.1,0.6,0.3,0.8c0-0.3-0.1-0.6-0.1-0.9c0,0-0.2,0.3-0.2,0.4c0,0.1,0.3,0.3,0.4,0.1C82.6,30.4,81.4,29.7,80.9,30.5
						L80.9,30.5z"/>
				</g>
			</g>
			<g>
				<g>
					<path class="st31" d="M79.3,22.9c0.8,0.7,2.3,2.5,3.5,2c0.7-0.3,1.2-0.9,1.8-1.4c0.8-0.7,1.5-1.3,2.3-2c0.7-0.6-0.3-1.6-1-1
						c-0.8,0.7-1.7,1.4-2.5,2.2c-1.3,1.1-2,0.1-3.1-0.8C79.6,21.3,78.6,22.3,79.3,22.9L79.3,22.9z"/>
				</g>
			</g>
		</g>
		<g>
			<g>
				<path class="st30" d="M101.3,57.2c8.6,10.1,26.3,14.7,33.9,0.6c1.5-2.8-2.7-5.3-4.3-2.5c-4.6,8.1-12.8,5.2-19.3,1.6
					c-0.6,1.5-1.3,3-1.9,4.6c5.8,1.8,12.1,3.5,18,1.1c5-2,8.4-6.7,7.7-12.2c-1.6,0.4-3.1,0.8-4.7,1.3c3.2,5.3-5,7.9-8.7,8.1
					c-3.8,0.2-7.6-0.9-10.8-2.7c-6.5-3.7-10-10.7-11.2-17.8c-0.6-3.2-5.4-1.8-4.8,1.3c2.2,11.9,10.6,22.4,23.1,24
					c8.3,1.1,23.3-4.7,16.9-15.4c-1.2-1.9-5-1.3-4.7,1.3c1.4,11.1-13.1,8.2-19.3,6.3c-2.7-0.8-4.4,3.2-1.9,4.6
					c9.1,5.1,20.1,7.3,26.2-3.4c-1.4-0.8-2.9-1.7-4.3-2.5c-6.1,11.3-19.6,6-26-1.7C102.8,51.2,99.3,54.7,101.3,57.2L101.3,57.2z"/>
			</g>
		</g>
		<g>
			<g>
				<path class="st30" d="M100.1,45.7c7.4-1.1,14.6-0.5,21.7,1.7c3.1,1,4.3-3.7,1.3-4.8C116.9,40.2,95,31.7,93.7,44
					c-0.2,1.9,2.3,3.1,3.8,2.2c7.3-4.4,19.5-1.6,26.1,3c2.6,1.9,5.1-2.5,2.5-4.3c-8.1-5.7-22.2-8.4-31.1-3c1.3,0.7,2.5,1.4,3.8,2.2
					c0.5-4.6,20.6,2.4,23.2,3.5c0.4-1.6,0.9-3.2,1.3-4.8c-8-2.5-16.1-3-24.4-1.7C95.6,41.4,97,46.2,100.1,45.7L100.1,45.7z"/>
			</g>
		</g>
		<g>
			<g>
				<path class="st30" d="M128.5,52c0.4,0.4,0.9,0.8,1.3,1.2c0.3-0.4,0.6-0.7,0.9-1.1c-0.9-0.5-1.9-1-2.8-1.5
					c-0.2,0.4-0.4,0.9-0.5,1.3c1,0.4,2,0.8,3,1.2c0.7,0.3,1.1-0.7,0.7-1.2c-0.6-0.7-1.5-1.1-2.4-1.1c-0.9,0-0.9,1.3,0,1.4
					c1.1,0.1,2.2,0.3,3.3,0.2c0.7,0,1.3-0.4,1.4-1.1c0.1-1.6-1.9-3-3.1-3.5c-0.1,0.5-0.3,0.9-0.4,1.4c0.7,0.2,1.4,0.5,2,1
					c0.7,0.5,1.4-0.5,0.9-1.1c-0.7-0.8-1.6-1.5-2.5-2.2c-0.7-0.5-1.3,0.5-0.9,1.1c0.5,0.6,1.1,1.1,1.8,1.5c0.8,0.5,1.5-0.8,0.7-1.2
					c-0.6-0.3-1.1-0.8-1.5-1.3c-0.3,0.4-0.6,0.7-0.9,1.1c0.8,0.6,1.5,1.2,2.2,1.9c0.3-0.4,0.6-0.7,0.9-1.1c-0.7-0.5-1.5-0.9-2.3-1.1
					c-0.9-0.3-1.2,1-0.4,1.4c0.5,0.2,1,0.5,1.3,0.9c0.2,0.2,0.3,0.4,0.5,0.6c0.1,0.1,0.1,0.2,0.2,0.3c0.1,0.2,0.1,0.2,0.1,0.1
					c-0.3,0.1-1.1-0.1-1.4-0.1c-0.6,0-1.3-0.1-1.9-0.1c0,0.5,0,0.9,0,1.4c0.6,0,1,0.2,1.4,0.6c0.2-0.4,0.5-0.8,0.7-1.2
					c-1-0.4-2-0.8-3-1.2c-0.7-0.3-1.2,0.9-0.5,1.3c0.9,0.5,1.9,1,2.8,1.5c0.7,0.4,1.5-0.6,0.9-1.1c-0.4-0.4-0.9-0.8-1.3-1.2
					C128.8,50.4,127.8,51.4,128.5,52L128.5,52z"/>
			</g>
		</g>
		<g>
			<g>
				<path class="st30" d="M125.1,49.2c0.8,0.2,1.6,0.4,2.5,0.6c0.8,0.2,1.3-0.9,0.5-1.3c-1.2-0.7-1-0.6-2.3-1
					c-0.1,0.5-0.1,0.9-0.2,1.4c0.8,0.1,1.6,0.3,2.5,0.4c0.8,0.2,1.2-0.8,0.5-1.3c-0.9-1-1.8-2-2.7-3c-0.3,0.3-0.6,0.6-1,1
					c-0.2,0.6-0.3,1.1-0.5,1.7c-0.6-0.1-1.1,0.5-0.8,1c0.1,0.2,0.1,0.3,0.2,0.5c0.1,0.2,0.4,0.4,0.6,0.4c0.2,0,0.3,0,0.5,0
					c0.5,0,0.8-0.4,0.7-0.9c-1.3-8.6-15.5-8.7-21.8-7.1c-0.9,0.2-0.5,1.6,0.4,1.4c3.9-1,7.7-0.7,11.7,0c1,0.2,2,0.3,3,0.6
					c1.8,0.3,3.1,1.2,3.9,2.7c0.4,1.1,1.1,1.7,2.1,1.8c-0.3,0.3-0.5,0.7-0.8,1c3.1,0.6,4.5-2.8,1.6-4.3c-0.6-0.3-1.3,0.3-1,1
					c0.9,1.6,1.8,2.5,3.2,3.5c0.2-0.4,0.4-0.9,0.5-1.3c-1.6-0.4-1.2-0.4-2.8-0.4c-0.8,0-0.9,1.2-0.2,1.4c0.7,0.3,1.3,0.5,2,0.8
					c0.2-0.4,0.4-0.9,0.5-1.3c-0.8-0.2-1.6-0.4-2.5-0.6C124.6,47.6,124.2,48.9,125.1,49.2L125.1,49.2z"/>
			</g>
		</g>
		<g>
			<g>
				<path class="st30" d="M124.2,45.9c0.9,0,0.9-1.4,0-1.4C123.3,44.5,123.3,45.9,124.2,45.9L124.2,45.9z"/>
			</g>
		</g>
		<g>
			<g>
				<path class="st30" d="M130.1,48.4c3.2,0.5,4.9,3.7,3.3,6.6c0.4,0.2,0.9,0.4,1.3,0.5c0.5-2.4,0-4.7-1.3-6.8
					c-0.4-0.7-1.5-0.3-1.3,0.5c0.5,2.1,0.5,4.2,0,6.3c-0.2,0.9,1.2,1.3,1.4,0.4c0.6-2.4,0.6-4.7,0-7.1c-0.4,0.2-0.9,0.4-1.3,0.5
					c1.2,1.7,1.6,3.7,1.2,5.7c-0.1,0.8,0.9,1.3,1.3,0.5c2-3.6,0-8.1-4.1-8.7C129.6,46.9,129.2,48.2,130.1,48.4L130.1,48.4z"/>
			</g>
		</g>
		<g>
			<g>
				<path class="st30" d="M128.7,72.9c-0.1-1.9,2.6-2.2,2.6-0.1c0,0.5,0.6,0.9,1.1,0.6c2.1-1.4,3.1,1.5,3.3,3c0.1,0.9,1.5,0.9,1.4,0
					c-0.3-2.6-2.3-6.3-5.4-4.2c0.4,0.2,0.7,0.4,1.1,0.6c-0.1-3.8-5.6-3.7-5.5,0.1C127.3,73.8,128.7,73.8,128.7,72.9L128.7,72.9z"/>
			</g>
		</g>
		<g>
			<g>
				<path class="st30" d="M127,71.7c-2.2-1.7-4.9-0.1-3.5,2.6c2.2,4.2,8,1.9,11.6,3.4c0.8,0.4,1.6-0.9,0.7-1.2
					c-1.5-0.6-2.9-0.8-4.4-0.8c-1.3,0-2.7,0.1-4-0.2c-0.5-0.1-1-0.3-1.5-0.6c-1.4-0.7-1.3-1.4,0.1-2.1
					C126.7,73.2,127.8,72.2,127,71.7L127,71.7z"/>
			</g>
		</g>
		<g>
			<g>
				<path class="st30" d="M129.5,73.6c0.9,0,0.9-1.4,0-1.4C128.6,72.2,128.6,73.6,129.5,73.6L129.5,73.6z"/>
			</g>
		</g>
		<g>
			<g>
				<path class="st30" d="M59.1,42.5c-4.1,1.5-8.3,2.4-12.7,2.4c-3.9,0-7.7-0.9-11.5-1c-5.5-0.1-13.9,0.5-17.8,5
					c-1.9,2.2,0.5,5,3,3.9c6.1-2.6,12.6-3.3,19.2-3.7c6.4-0.4,12.8-0.8,19.1,0.8c3.1,0.8,4.5-4.1,1.3-4.8
					c-7.3-1.8-14.7-1.4-22.2-0.8c-6.9,0.5-13.6,1.5-20,4.2c1,1.3,2,2.6,3,3.9c2.3-2.6,7.2-3,10.4-3.3c3.5-0.4,6.8,0.1,10.3,0.5
					c6.6,0.7,12.9-0.1,19.1-2.3C63.5,46.2,62.2,41.4,59.1,42.5L59.1,42.5z"/>
			</g>
		</g>
		<g>
			<g>
				<path class="st30" d="M48.9,37.1c-3.3,0.6-8.9,3.8-4.4,7.2c2.4,1.9,6.3,2.3,9.2,2.7c3.6,0.6,7.2,0.9,10.9,0.9c3.2,0,3.2-5,0-5
					c-3.7,0-7.4-0.2-11-0.9c-1.1-0.2-3.2-1.1-4.3-1c-1.2-0.7-1.7-0.2-1.4,1.6c0.8-0.3,1.5-0.5,2.3-0.6
					C53.4,41.4,52.1,36.5,48.9,37.1L48.9,37.1z"/>
			</g>
		</g>
		<g>
			<g>
				<path class="st30" d="M55.4,39.6c2.5-0.1,4.9,0.1,7.3,0.6c1.1,0.2,2,0.4,1.1,1.5c-0.9,1-2.6,1.5-3.8,1.6
					c0.1,0.5,0.1,0.9,0.2,1.4c1.4-0.4,4.3-2.1,3.8-4c-0.2-0.8-1.6-1.6-2.3-2c-1.5-0.8-3.3-0.4-4.8-0.9c-0.1,0.5-0.1,0.9-0.2,1.4
					c1.1,0,2.2,0.1,3.3,0.5c1.2,0.2,1.8,0.9,1.9,2.2c-0.4,0.3-0.9,0.6-1.4,0.8c0.2,0.4,0.4,0.9,0.5,1.3c1.1-0.8,3.4-2.7,2-4.1
					c-1.7-1.8-5.3-2.2-7.6-1.9c-0.7,0.1-1,1.2-0.2,1.4c2.3,0.6,5.5,0.2,6.9,2.5c0.3-0.3,0.6-0.6,1-1c-2.5-1.1-5.1-1.8-7.8-1.9
					c0.1,0.4,0.2,0.9,0.4,1.3c1.2-0.6,2.4-0.5,3.7-0.2c0.2,0.1,3.5,1.2,2.5,2.1c-0.7,0.6,0.3,1.6,1,1c1.4-1.4,0.2-2.9-1.2-3.6
					c-2.1-1.1-4.5-1.6-6.7-0.5c-0.7,0.3-0.3,1.3,0.4,1.3c2.5,0.1,4.8,0.7,7.1,1.7c0.6,0.3,1.4-0.3,1-1c-1.7-2.8-4.9-2.4-7.7-3.1
					c-0.1,0.5-0.1,0.9-0.2,1.4c1.4-0.2,2.7-0.1,4.1,0.3c0.4,0.1,1.7,0.4,2,0.8c0.6,0.9-0.6,1.9-1.2,2.3c-0.6,0.4-0.3,1.6,0.5,1.3
					c1.5-0.6,3.3-1.8,2.5-3.6c-1-2.2-4.7-2.6-6.7-2.7c-0.8,0-0.9,1.1-0.2,1.4c1.5,0.5,3.1,0.2,4.6,0.8c0.9,0.4,1.6,0.7,1.2,1.6
					c-0.4,0.9-1.5,1.4-2.4,1.7c-0.7,0.2-0.6,1.5,0.2,1.4c1.6-0.2,7.2-2,6-4.5c-0.6-1.2-2.5-1.3-3.6-1.5c-2.3-0.4-4.6-0.6-7-0.5
					C54.5,38.2,54.5,39.6,55.4,39.6L55.4,39.6z"/>
			</g>
		</g>
		<g>
			<g>
				<path class="st30" d="M49.4,40.2c1.3-0.5,2.6-0.8,4-1c0.9-0.2,0.5-1.5-0.4-1.4c-1.7,0.2-3.2,0.8-4.7,1.7
					c-0.7,0.4-0.2,1.4,0.5,1.3c2-0.4,4-0.6,6-0.7c0-0.5,0-0.9,0-1.4c-1.8,0.2-3.6,0.6-5.4,1c-0.7,0.2-0.6,1.5,0.2,1.4
					c2.3-0.2,4.6-0.5,7-0.9c0.7-0.1,0.6-1.2,0-1.4c-3.2-0.9-6.2-0.3-9.4,0.5c0.2,0.4,0.4,0.9,0.5,1.3c3.3-1.6,6.8-1.9,10.3-0.8
					c0.1-0.5,0.1-0.9,0.2-1.4c-4-0.5-7.9-0.2-11.8,0.9c0.3,0.2,0.6,0.5,0.9,0.7c-0.2-4.5,13.9,1,15.2,1.6c0.8,0.4,1.5-0.9,0.7-1.2
					c-2.6-1.2-17.7-7.2-17.3-0.3c0,0.4,0.4,0.8,0.9,0.7c3.8-1.1,7.5-1.4,11.4-0.9c0.8,0.1,0.9-1.2,0.2-1.4c-3.9-1.2-7.7-0.8-11.4,1
					c-0.7,0.4-0.2,1.5,0.5,1.3c2.9-0.7,5.7-1.3,8.6-0.5c0-0.5,0-0.9,0-1.4c-2.2,0.3-4.4,0.6-6.6,0.9c0.1,0.5,0.1,0.9,0.2,1.4
					c1.6-0.4,3.3-0.8,5-1c0.9-0.1,0.9-1.4,0-1.4c-2.2,0.1-4.3,0.3-6.4,0.7c0.2,0.4,0.4,0.9,0.5,1.3c1.4-0.8,2.7-1.3,4.3-1.5
					c-0.1-0.5-0.3-0.9-0.4-1.4c-1.4,0.2-2.7,0.6-4,1C48.2,39.2,48.6,40.6,49.4,40.2L49.4,40.2z"/>
			</g>
		</g>
		<g>
			<g>
				<path class="st30" d="M41.5,56.3c-7.3,4.3-16.7,6.6-23.4-0.1c-1.5-1.5-4.3-0.4-4.3,1.8c0.3,9.1,14.6,12.6,21.3,8.5
					c-1.1-1.1-2.3-2.3-3.4-3.4c-1.2,2.1-11-2.1-12.3-2.7c-2.4-1.2-5.4,2-3,3.9c5.8,4.7,13,5.6,19.7,2.3c-0.8-1.4-1.7-2.9-2.5-4.3
					c-4.7,2.9-11.4,0.2-15.7-2.2c-2.8-1.6-5.2,2.5-2.5,4.3c5.2,3.6,11.1,5,17.4,4.2c3.1-0.4,3.2-5.4,0-5c-5.5,0.7-10.3-0.4-14.9-3.5
					c-0.8,1.4-1.7,2.9-2.5,4.3c5.9,3.3,14.5,6.1,20.8,2.2c2.8-1.7,0.4-5.7-2.5-4.3c-4.6,2.2-9.7,1.6-13.7-1.6c-1,1.3-2,2.6-3,3.9
					c4.6,2.3,15.7,7,19.1,0.9c1.2-2.1-1.3-4.8-3.4-3.4c-2.5,1.5-4.7,1.5-7.4,0.6c-1.7-0.6-6.2-2.6-6.3-4.8c-1.4,0.6-2.8,1.2-4.3,1.8
					c8.3,8.3,20.1,6.4,29.4,0.9C46.8,59,44.3,54.6,41.5,56.3L41.5,56.3z"/>
			</g>
		</g>
		<g>
			<g>
				<path class="st30" d="M14.6,63.6c2.5,1.4,5.1,1.6,7.8,2.3c2.8,0.8,5.2,2.3,8.1,1.2c3-1.1,1.7-5.9-1.3-4.8
					c-2,0.7-4.3-0.9-6.3-1.4c-2-0.4-4-0.5-5.8-1.6C14.4,57.6,11.9,62,14.6,63.6L14.6,63.6z"/>
			</g>
		</g>
		<g>
			<g>
				<path class="st30" d="M19.2,48c-2.1,0.7-3.6,2.1-4.4,4.1c0.4-0.1,0.8-0.2,1.2-0.3c-0.4-0.4,3.1-2.7,3.4-2.8
					c-0.2-0.4-0.5-0.8-0.7-1.2c-1.7,1.2-3.1,2.8-4,4.7c-0.4,0.8,0.8,1.5,1.2,0.7c0.8-1.5,2.1-2.3,3.7-2.6c-0.2-0.4-0.4-0.9-0.5-1.3
					c-1.2,0.9-2.4,1.8-3.6,2.6c-0.6,0.5-0.3,1.5,0.5,1.3c1.2-0.3,2.3-0.4,3.5-0.4c-0.1-0.4-0.2-0.9-0.4-1.3c-1.1,0.7-2,1.6-2.9,2.6
					c-0.5,0.6,0.1,1.6,0.9,1.1c1-0.6,2.1-1.3,3.1-1.9c-0.3-0.4-0.6-0.7-0.9-1.1c-0.2,0.1-0.3,0.2-0.5,0.4c-0.8,0.4-0.1,1.7,0.7,1.2
					c0.4-0.2,0.5-0.3,0.8-0.6c0.6-0.6-0.2-1.5-0.9-1.1c-1,0.6-2.1,1.3-3.1,1.9c0.3,0.4,0.6,0.7,0.9,1.1c0.7-0.9,1.6-1.7,2.6-2.4
					c0.6-0.4,0.4-1.3-0.4-1.3c-1.3,0-2.6,0.2-3.8,0.5c0.2,0.4,0.4,0.9,0.5,1.3c1.2-0.9,2.4-1.8,3.6-2.6c0.7-0.5,0.3-1.4-0.5-1.3
					c-2,0.3-3.6,1.5-4.5,3.3c0.4,0.2,0.8,0.5,1.2,0.7c0.8-1.7,2-3.1,3.5-4.2c0.7-0.5,0.1-1.7-0.7-1.2c-1.2,0.7-5.5,3.3-3.7,5.1
					c0.4,0.4,1,0.2,1.2-0.3c0.6-1.5,1.8-2.6,3.4-3.1C20.4,49.1,20.1,47.7,19.2,48L19.2,48z"/>
			</g>
		</g>
		<g>
			<g>
				<path class="st30" d="M14.6,60.7c-0.5-1.7-0.3-3.4,0.7-4.9c0.5-0.7-0.5-1.3-1.1-0.9c-1.5,1.3-1.4,3.2-1.1,5
					c0.5-0.1,0.9-0.3,1.4-0.4c-0.4-1.1-0.4-2.2,0.3-3.3c-0.4-0.2-0.9-0.4-1.3-0.5c-0.2,0.8-0.2,1.5,0,2.3c0.3,0.9,1.6,0.5,1.4-0.4
					c-0.2-0.6-0.2-1,0-1.6c0.2-0.8-0.9-1.2-1.3-0.5c-0.8,1.3-1,2.9-0.4,4.4c0.3,0.9,1.5,0.5,1.4-0.4c-0.2-1.3-0.3-2.7,0.8-3.6
					c-0.4-0.3-0.7-0.6-1.1-0.9c-1.2,1.8-1.5,3.9-0.9,6C13.5,62,14.8,61.6,14.6,60.7L14.6,60.7z"/>
			</g>
		</g>
		<g>
			<g>
				<path class="st30" d="M23.6,56.9c0.8,1.3,2.2,1.9,3.6,1.5c0.8-0.2,1.4-0.7,1.9-1.3c0.2-0.3,0.6-1.7,0.8-1.8
					c0.2-0.1,0,2.3,0.1,2.5c0.2,0.4,0.6,0.7,1.1,0.8c1.5,0.2,2-1.3,2.1-2.5c0.1-0.9-1.3-0.9-1.4,0c-0.1,1.3,0,0.3,0.1-0.2
					c0.1-0.5,0.1-0.9-0.1-1.4c-0.3-0.7-0.9-1.2-1.7-1.2c-0.7,0.1-1.1,0.6-1.4,1.2c-0.3,0.7-0.3,1.3-0.9,1.9c-0.9,1-2.3,0.9-3-0.2
					C24.3,55.4,23.1,56.1,23.6,56.9L23.6,56.9z"/>
			</g>
		</g>
		<g>
			<g>
				<path class="st30" d="M25,56.6c0.5-2,1.8-3.5,3.7-4.2c0.9-0.3,2.2-0.7,3,0c1,0.7,1,3,0.4,3.9c-0.5,0.7,0.7,1.5,1.2,0.7
					c0.9-1.3,0.7-3.1,0.2-4.6c-0.6-1.4-1.7-1.9-3.2-1.8c-3.2,0.2-5.9,2.6-6.6,5.6C23.4,57.1,24.8,57.5,25,56.6L25,56.6z"/>
			</g>
		</g>
		<g>
			<g>
				<path class="st30" d="M27,54.7c0.9,0,0.9-1.4,0-1.4C26.1,53.3,26.1,54.7,27,54.7L27,54.7z"/>
			</g>
		</g>
		<g>
			<g>
				<path class="st30" d="M28.5,54c0.9,0,0.9-1.4,0-1.4C27.5,52.6,27.5,54,28.5,54L28.5,54z"/>
			</g>
		</g>
		<g>
			<g>
				<path class="st30" d="M101.5,84.1c1.4-0.5,2.8-1.2,4.2-1.9c0.8-0.4,0.1-1.7-0.7-1.2c-1.2,0.7-2.5,1.3-3.8,1.8
					C100.3,83,100.7,84.4,101.5,84.1L101.5,84.1z"/>
			</g>
		</g>
		<g>
			<g>
				<path class="st30" d="M101.3,79.8c1.6-0.8,3.1-1.7,4.6-2.7c0.7-0.5,0-1.8-0.7-1.2c-1.4,1.1-3,2-4.6,2.7
					C99.8,79,100.5,80.2,101.3,79.8L101.3,79.8z"/>
			</g>
		</g>
		<g>
			<g>
				<path class="st30" d="M100.8,75.3c0.8-0.4,1.7-0.8,2.5-1.2c0.8-0.4,0.1-1.6-0.7-1.2c-0.8,0.4-1.7,0.8-2.5,1.2
					C99.3,74.5,100,75.7,100.8,75.3L100.8,75.3z"/>
			</g>
		</g>
		<g>
			<g>
				<path class="st30" d="M11.4,76.8c0-0.9,0.1-1.8,0.1-2.7c0-0.4,0-0.8,0.1-1.1c-0.1-0.9,0.3-1.6,1.4-2c0,0.3,0.3,0.4,0.5,0.4
					c0.7-0.1,1-1.1,1.6-1.5c0.7-0.5,1.9-1.4,2.6-0.4c0.3,0.4,0.1,2.5,0.1,3.1c0,0.3,0.4,0.5,0.6,0.3c0.3,0,0.7,0.1,1,0.1
					c0,0.3,0,0.5,0,0.8c0.1,0.5,0,1.1,0,1.6c0,0.5,0.2,1.6,0,2c0.1,0.6-0.1,0.6-0.8,0.2c-0.6,0.1-0.9-0.1-0.8-0.5
					c-0.5-0.9,0.2-1-1.3-1.2c-0.8-0.1-1.8,0-2.4,0.6c-0.3,0.3-0.2,0.7-0.5,1c-0.3,0.6,0.2,0.5-0.6,0.6c-0.8,0.1-1.8-0.9-1.6-1.5
					c0.2-0.5-0.6-0.7-0.7-0.2c-0.3,0.8-0.4,1.7,0.4,2.3c0.5,0.4,2.3,0.5,2.8,0.2c0.2-0.1,0.2-0.4,0.4-0.6c0.1,0,0-0.2,0.1-0.2
					c0.9-0.4,1.7-0.9,2.6-1.3c0,0.2,0,0.3,0,0.5c0.3,0.8,0.2,1.6,1.2,2c2.5,1,2-3.2,2-4.3c0-0.8,0.4-2.7-0.4-3.3
					c-0.7-0.5-1.4,0.2-1.9,0.6c0.2,0.1,0.4,0.2,0.6,0.3c0-1,0.5-4.5-1.2-4.7c-0.7-0.1-1.9,0.9-2.4,1.2c-0.3,0.2-0.8,0.4-1.1,0.7
					c0,0-0.6,0.9-0.6,0.9c0.2,0.1,0.3,0.2,0.5,0.4c0.1-1.3-1.2-1.8-2.2-1c-0.4,0.4-0.6,0.9-0.7,1.5c-0.3,1.7-0.2,3.6-0.3,5.3
					C10.6,77.2,11.4,77.2,11.4,76.8L11.4,76.8z"/>
			</g>
		</g>
		<g>
			<g>
				<path class="st30" d="M15,71.4c0.5,0,0.5-0.8,0-0.8C14.5,70.6,14.5,71.4,15,71.4L15,71.4z"/>
			</g>
		</g>
		<g>
			<g>
				<path class="st30" d="M16.4,70.5c0.5,0,0.5-0.8,0-0.8C15.9,69.7,15.9,70.5,16.4,70.5L16.4,70.5z"/>
			</g>
		</g>
		<g>
			<g>
				<path class="st30" d="M14.8,72.9c0.8,0.7,1.6,0,2-0.7c0.3-0.4-0.4-0.8-0.7-0.4c-0.1,0.2-0.5,0.8-0.8,0.5
					C14.9,72,14.4,72.6,14.8,72.9L14.8,72.9z"/>
			</g>
		</g>
		<g>
			<g>
				<path class="st30" d="M20.5,74.3c0.2-0.2,0.5-0.1,0.8,0c0.1,0.1,0.6,0.4,0.6,0.6c0.1,0.4-1.3,0.2-1.5,0.1
					c-0.5-0.1-0.7,0.6-0.2,0.7c0.6,0.1,1.2,0.2,1.8,0c0.4-0.1,0.9-0.5,0.7-1c-0.1-0.5-0.7-1-1.1-1.2c-0.5-0.2-1-0.2-1.4,0
					C19.7,73.9,20,74.6,20.5,74.3L20.5,74.3z"/>
			</g>
		</g>
		<g>
			<g>
				<path class="st30" d="M10.4,72.8c-0.7,0.1-1.5,0.4-1.2,1.2c0.2,0.6,0.8,1,1.4,0.9c0.5,0,0.5-0.8,0-0.8c-0.4,0-0.7-0.2-0.8-0.6
					c0,0.1-0.1,0.2-0.1,0.3c0.2-0.2,0.4-0.2,0.6-0.3C10.8,73.5,10.8,72.7,10.4,72.8L10.4,72.8z"/>
			</g>
		</g>
		<g>
			<g>
				<g>
					<path class="st30" d="M113.2,81.1c0.4-0.9,1.5-5.8,3.1-3.5c-0.1-0.2-0.2,1.6-0.2,1.6c0.1,0.5,0.8,1,1.2,0.5
						c0.7-1.3,1.7-1.3,3.1,0.1c-0.1,0.5,0.5,0.7,0.9,0.7c0,0,0.7-0.3,0.8-0.3c0.4-0.7,0.9-0.5,1.3,0.5c-0.1,0.6-0.1,1.3-0.2,1.9
						c-0.3,3.1-0.4,6.2-1.8,9c0.4,0,0.7-0.1,1.1-0.1c-0.3-0.4-0.7-0.7-1-1.1c-0.6-0.7-1.6,0.3-1,1c0.3,0.4,0.7,0.7,1,1.1
						c0.3,0.3,0.9,0.2,1.1-0.1c0.9-1.8,1.3-3.6,1.6-5.5c0.3-1.9,1.1-5.2,0.7-7.1c-0.2-0.9-0.4-1.6-1.3-1.8c-1.4-0.4-1.4,1-2.6,1.2
						c0.3,0.2,0.6,0.5,0.9,0.7c0.2-1.4-0.3-2.5-1.6-3.1c-1.8-0.7-2.9,0.7-3.9,2c0.4,0.2,0.8,0.3,1.2,0.5c-0.2-1.6,1.9-4.2-1-4.6
						c-2.9-0.5-3.9,4.4-4.7,6.2C111.5,81.6,112.9,82,113.2,81.1L113.2,81.1z"/>
				</g>
			</g>
			<g>
				<g>
					<path class="st30" d="M121.1,90.2c-0.1-1.2-0.2-2.4-0.3-3.6c-0.1-0.7-0.9-1-1.3-0.4c-1.1,1.8-2.7-0.3-3.7,1
						c-0.5,0.6-0.3,1.6-0.6,2.3c-0.8,1.3-2.5,0-3.5-0.5c0.1,0.3,0.2,0.5,0.3,0.8c0.4-2.6,0.9-5.2,1.3-7.8c0.2-0.9-1.2-1.3-1.4-0.4
						c-0.4,2.6-0.9,5.2-1.3,7.8c0,0.3,0,0.7,0.3,0.8c1.1,0.5,2.8,1.8,4.1,1.7c1-0.1,1.4-1.2,1.6-2c0.1-0.4,0.2-1.5,0.4-1.7
						c0.2-0.1,1.2,0.3,1.5,0.2c1-0.1,1.8-0.7,2.3-1.6c-0.4-0.1-0.9-0.2-1.3-0.4c0.1,1.2,0.2,2.4,0.3,3.6
						C119.8,91.1,121.2,91.1,121.1,90.2L121.1,90.2z"/>
				</g>
			</g>
			<g>
				<g>
					<path class="st30" d="M116.2,81.6c0.9,0,0.9-1.4,0-1.4C115.3,80.2,115.3,81.6,116.2,81.6L116.2,81.6z"/>
				</g>
			</g>
			<g>
				<g>
					<path class="st30" d="M119.2,82.1c0.9,0,0.9-1.4,0-1.4C118.3,80.7,118.3,82.1,119.2,82.1L119.2,82.1z"/>
				</g>
			</g>
			<g>
				<g>
					<path class="st30" d="M115.2,83.6c1.8,2.6,5.5,2.5,7-0.3c0.4-0.8-0.8-1.5-1.2-0.7c-1,1.8-3.4,2.1-4.6,0.3
						C116,82.1,114.7,82.8,115.2,83.6L115.2,83.6z"/>
				</g>
			</g>
			<g>
				<g>
					<path class="st30" d="M113.1,79.7c-0.4-0.9-0.8-1.9-1.8-2.2c-0.9-0.3-1.9,0-2.3,1c-0.7,1.9,0.5,3.8,2.3,4.6
						c0.8,0.3,1.2-1,0.4-1.4c-0.8-0.3-1.3-1.1-1.4-1.9c0-0.4,0-1.1,0.6-1c0.5,0.1,0.7,0.8,0.9,1.2C112,80.9,113.4,80.6,113.1,79.7
						L113.1,79.7z"/>
				</g>
			</g>
			<g>
				<g>
					<path class="st30" d="M125.3,80.7c1-1.1,2.4,0.2,2.2,1.4c-0.3,1.5-2,2-3.3,1.7c-0.9-0.1-1.3,1.2-0.4,1.4
						c2.4,0.4,5.3-0.8,5.2-3.6c-0.1-2.3-3-3.7-4.6-1.9C123.7,80.4,124.7,81.4,125.3,80.7L125.3,80.7z"/>
				</g>
			</g>
		</g>
		<g>
			<g>
				<path class="st30" d="M85.6,67.6c1.1-1.8,3.5-3.6,5.5-4.2c1.3-0.4,4.9-0.6,4,1.8c-0.3,1-1.7,2-2.4,2.6c-0.7,0.6,0.3,1.6,1,1
					c1.1-0.9,3.5-2.9,3.4-4.6c-0.1-1.4-1.9-2-3-2.2c-3.6-0.9-7.9,2.1-9.8,5C83.9,67.6,85.1,68.3,85.6,67.6L85.6,67.6z"/>
			</g>
		</g>
		<g>
			<g>
				<path class="st30" d="M89.6,68.8c1.3,0.1,3.4,1.4,3.4,2.9c0,1.2-1,2.8-2,3.3c-0.8,0.4-0.1,1.7,0.7,1.2c1.6-0.9,3-3.3,2.6-5.2
					c-0.4-2-2.9-3.5-4.7-3.6C88.7,67.3,88.7,68.7,89.6,68.8L89.6,68.8z"/>
			</g>
		</g>
		<g>
			<g>
				<path class="st30" d="M93.4,69c0.9,0.7,1.7,1.6,1.8,2.8c0.1,1.2-0.7,2.4-2,2.5c-0.9,0.1-0.9,1.5,0,1.4c1.7-0.1,3-1.3,3.4-3
					c0.4-1.9-0.7-3.6-2.1-4.7C93.7,67.4,92.6,68.4,93.4,69L93.4,69z"/>
			</g>
		</g>
		<g>
			<g>
				<path class="st30" d="M92,65.7c0.9,0,0.9-1.4,0-1.4C91.1,64.3,91.1,65.7,92,65.7L92,65.7z"/>
			</g>
		</g>
		<g>
			<g>
				<path class="st30" d="M94,65.2c0.9,0,0.9-1.4,0-1.4C93.1,63.8,93.1,65.2,94,65.2L94,65.2z"/>
			</g>
		</g>
		<g>
			<g>
				<path class="st30" d="M98.6,70.3c3.8,4.1,5.5,9.4,6.7,14.8c0.7,3.1,5.5,1.8,4.8-1.3c-1.4-6.3-3.6-12.2-8-17
					C99.9,64.4,96.4,68,98.6,70.3L98.6,70.3z"/>
			</g>
		</g>
		<g>
			<g>
				<path class="st30" d="M93.2,73.4c1.8,0.9,2.6,4.7,3.1,6.6c0.7,2.3,1.1,4.7,1.4,7.1c0.3,3.2,5.3,3.2,5,0c-0.3-3.6-1-7.2-2.3-10.6
					c-1-2.7-2-6-4.7-7.4C92.9,67.6,90.4,71.9,93.2,73.4L93.2,73.4z"/>
			</g>
		</g>
		<g>
			<g>
				<path class="st31" d="M98.1,68.2c1.6,2.6,3,5.4,4.2,8.2c0.4,0.8,1.6,0.1,1.2-0.7c-1.2-2.9-2.6-5.6-4.2-8.2
					C98.8,66.7,97.6,67.5,98.1,68.2L98.1,68.2z"/>
			</g>
		</g>
		<g>
			<g>
				<path class="st31" d="M99.7,74.5c1-0.6,2-1.1,3-1.7c0.8-0.5,0.1-1.7-0.7-1.2c-1,0.6-2,1.1-3,1.7C98.2,73.8,98.9,75,99.7,74.5
					L99.7,74.5z"/>
			</g>
		</g>
		<g>
			<g>
				<path class="st31" d="M101.2,77.9c0.9-0.5,1.8-1,2.7-1.5c0.8-0.4,0.1-1.7-0.7-1.2c-0.9,0.5-1.8,1-2.7,1.5
					C99.7,77.1,100.4,78.3,101.2,77.9L101.2,77.9z"/>
			</g>
		</g>
		<g>
			<g>
				<path class="st31" d="M98.5,71.2c0.8-0.4,1.5-0.8,2.3-1.2c0.8-0.4,0.1-1.6-0.7-1.2c-0.8,0.4-1.5,0.8-2.3,1.2
					C97,70.4,97.7,71.6,98.5,71.2L98.5,71.2z"/>
			</g>
		</g>
		<g>
			<g>
				<path class="st30" d="M95.8,66.8c0.4-0.2,0.8-0.4,1.2-0.4c0.3-0.1,0.6-0.1,0.9,0.1c0.1,0.2,0.1,0.5,0.2,0.7
					c-0.3,0.6-1.8,0.2-2.3,0.2c-1.1,0-2.2,0.4-3.1,1c-0.3,0.2-0.5,0.8-0.1,1.1c0-0.1,0-0.2,0-0.3c-0.7,0.6,0.3,1.6,1,1
					c0.5-0.5,0.5-1.2,0-1.7c0,0.4-0.1,0.7-0.1,1.1c0.7-0.5,1.4-0.8,2.2-0.8c0.7,0,1.4,0.2,2.1,0.1c0.8-0.1,1.7-0.6,1.9-1.5
					c0.2-1-0.4-1.8-1.3-2.2c-1.1-0.5-2.3,0-3.3,0.5C94.3,65.9,95,67.2,95.8,66.8L95.8,66.8z"/>
			</g>
		</g>
		<g>
			<g>
				<path class="st30" d="M84.9,66.7c-1.3,1.2-1,2.9-0.2,4.3c0.8,1.4,1.8,3.5,3.4,3.9c0.9,0.2,1.3-1.1,0.4-1.4
					c-1-0.3-1.6-1.7-2.1-2.5c-0.6-1-1.7-2.4-0.5-3.4C86.6,67.1,85.6,66.1,84.9,66.7L84.9,66.7z"/>
			</g>
		</g>
		<g>
			<g>
				<path class="st31" d="M23.2,68.4c0.9-2.8,2.3-5.4,4-7.9c0.5-0.7-0.7-1.4-1.2-0.7c-1.8,2.5-3.2,5.3-4.2,8.2
					C21.6,68.9,22.9,69.3,23.2,68.4L23.2,68.4z"/>
			</g>
		</g>
		<g>
			<g>
				<path class="st31" d="M18.3,66.1c1.5-2.9,3.1-5.7,5-8.3c0.5-0.8-0.7-1.5-1.2-0.7c-1.8,2.7-3.5,5.5-5,8.3
					C16.6,66.2,17.8,66.9,18.3,66.1L18.3,66.1z"/>
			</g>
		</g>
		<g>
			<g>
				<path class="st31" d="M21.5,61.4c0.9,0.2,1.8,0.3,2.7,0.5c0.9,0.2,1.3-1.2,0.4-1.4c-0.9-0.2-1.8-0.3-2.7-0.5
					C21,59.9,20.6,61.3,21.5,61.4L21.5,61.4z"/>
			</g>
		</g>
		<g>
			<g>
				<path class="st31" d="M20.5,63.4c1.1,0.4,2.2,0.7,3.4,0.9c0.9,0.1,0.9-1.3,0-1.4c-1-0.1-2-0.4-3-0.8
					C20,61.7,19.6,63.1,20.5,63.4L20.5,63.4z"/>
			</g>
		</g>
		<g>
			<g>
				<path class="st31" d="M19,65.1c1.2,0.4,2.4,0.7,3.7,0.9c0.9,0.1,0.9-1.3,0-1.4c-1.1-0.2-2.2-0.4-3.3-0.8
					C18.5,63.4,18.1,64.8,19,65.1L19,65.1z"/>
			</g>
		</g>
		<g>
			<g>
				<path class="st30" d="M26.8,59.3c-2.7,3.2-4.6,6.7-5.9,10.6c-0.3,0.9,1.1,1.2,1.4,0.4c1.2-3.7,2.9-7,5.5-10
					C28.4,59.6,27.4,58.6,26.8,59.3L26.8,59.3z"/>
			</g>
		</g>
		<g>
			<g>
				<path class="st30" d="M22.2,56.4c-3.1,2.8-4.9,6.5-6.7,10.3c-0.4,0.8,0.8,1.5,1.2,0.7c1.7-3.6,3.4-7.2,6.4-10
					C23.8,56.8,22.8,55.8,22.2,56.4L22.2,56.4z"/>
			</g>
		</g>
		<g>
			<g>
				<path class="st31" d="M127.2,66.1c-1-2.9-2.4-5.7-4.2-8.2c-0.5-0.7-1.8,0-1.2,0.7c1.8,2.4,3.1,5,4,7.9
					C126.1,67.3,127.5,66.9,127.2,66.1L127.2,66.1z"/>
			</g>
		</g>
		<g>
			<g>
				<path class="st31" d="M132,63.4c-1.5-2.9-3.1-5.7-5-8.3c-0.5-0.7-1.7,0-1.2,0.7c1.8,2.7,3.5,5.5,5,8.3
					C131.2,64.9,132.4,64.2,132,63.4L132,63.4z"/>
			</g>
		</g>
		<g>
			<g>
				<path class="st31" d="M127.2,58.1c-0.9,0.2-1.8,0.3-2.7,0.5c-0.9,0.2-0.5,1.5,0.4,1.4c0.9-0.2,1.8-0.3,2.7-0.5
					C128.5,59.3,128.1,57.9,127.2,58.1L127.2,58.1z"/>
			</g>
		</g>
		<g>
			<g>
				<path class="st31" d="M128.2,60.1c-1,0.4-2,0.7-3,0.8c-0.9,0.1-0.9,1.5,0,1.4c1.2-0.2,2.3-0.4,3.4-0.9
					C129.4,61.1,129,59.7,128.2,60.1L128.2,60.1z"/>
			</g>
		</g>
		<g>
			<g>
				<path class="st31" d="M129.7,61.7c-1.1,0.4-2.2,0.7-3.3,0.8c-0.9,0.1-0.9,1.5,0,1.4c1.3-0.2,2.5-0.4,3.7-0.9
					C130.9,62.8,130.6,61.4,129.7,61.7L129.7,61.7z"/>
			</g>
		</g>
		<g>
			<g>
				<path class="st30" d="M121.2,58.3c2.6,3,4.3,6.3,5.5,10c0.3,0.9,1.7,0.5,1.4-0.4c-1.3-3.9-3.2-7.5-5.9-10.6
					C121.6,56.6,120.6,57.6,121.2,58.3L121.2,58.3z"/>
			</g>
		</g>
		<g>
			<g>
				<path class="st30" d="M125.9,55.4c3,2.8,4.7,6.4,6.4,10c0.4,0.8,1.6,0.1,1.2-0.7c-1.7-3.7-3.6-7.4-6.7-10.3
					C126.2,53.8,125.2,54.8,125.9,55.4L125.9,55.4z"/>
			</g>
		</g>
	</g>
</g>
<g id="TXT">
</g>
</svg>
